{"glyphs":{"0":{"ha":708,"x_min":118,"x_max":590,"o":"m 590 174 q 533 31 590 83 q 356 -21 475 -21 q 177 31 236 -21 q 118 174 118 83 l 118 729 q 176 872 118 819 q 353 924 233 924 q 531 872 472 924 q 590 729 590 819 l 590 174 m 493 729 q 458 811 493 782 q 353 840 424 840 q 249 811 283 840 q 215 729 215 782 l 215 174 q 250 92 215 122 q 356 63 285 63 q 459 92 425 63 q 493 174 493 122 l 493 729 z "},"1":{"ha":708,"x_min":100,"x_max":578,"o":"m 578 0 l 175 0 l 175 83 l 328 83 l 328 808 l 142 700 l 100 771 l 328 903 l 425 903 l 425 83 l 578 83 l 578 0 z "},"2":{"ha":708,"x_min":125,"x_max":594,"o":"m 389 457 q 438 528 413 492 q 480 598 463 564 q 497 660 497 632 l 497 735 q 465 812 497 783 q 367 840 433 840 q 268 812 300 840 q 236 735 236 783 l 236 611 l 139 611 l 139 729 q 192 872 139 819 q 363 924 246 924 q 538 872 482 924 q 594 729 594 819 l 594 660 q 562 550 594 610 q 464 399 529 490 l 243 83 l 593 83 l 593 0 l 125 0 l 125 83 l 389 457 z "},"3":{"ha":708,"x_min":121,"x_max":590,"o":"m 590 174 q 535 31 590 83 q 356 -21 479 -21 q 177 31 233 -21 q 121 174 121 83 l 121 292 l 218 292 l 218 168 q 252 92 218 121 q 356 63 286 63 q 459 92 425 63 q 493 168 493 121 l 493 299 q 462 378 493 339 q 369 417 431 417 l 229 417 l 229 486 l 356 486 q 449 524 418 486 q 479 604 479 563 l 479 735 q 447 812 479 783 q 349 840 415 840 q 250 812 282 840 q 218 735 218 783 l 218 611 l 121 611 l 121 729 q 174 872 121 819 q 344 924 228 924 q 520 872 464 924 q 576 729 576 819 l 576 604 q 478 453 576 486 q 590 299 590 422 l 590 174 z "},"4":{"ha":708,"x_min":43,"x_max":578,"o":"m 140 292 l 411 292 l 411 742 l 140 292 m 411 0 l 411 208 l 43 208 l 43 292 l 411 903 l 508 903 l 508 292 l 578 292 l 578 208 l 508 208 l 508 0 l 411 0 z "},"5":{"ha":708,"x_min":121,"x_max":590,"o":"m 590 174 q 535 31 590 83 q 356 -21 479 -21 q 177 31 233 -21 q 121 174 121 83 l 121 292 l 218 292 l 218 168 q 252 92 218 121 q 356 63 286 63 q 459 92 425 63 q 493 168 493 121 l 493 340 q 462 419 493 381 q 369 458 431 458 l 135 458 l 135 903 l 576 903 l 576 819 l 232 819 l 232 542 l 369 542 q 535 486 481 542 q 590 340 590 431 l 590 174 z "},"6":{"ha":708,"x_min":118,"x_max":590,"o":"m 118 729 q 174 872 118 819 q 353 924 231 924 q 532 872 476 924 q 588 729 588 819 l 588 639 l 490 639 l 490 735 q 353 840 490 840 q 215 735 215 840 l 215 486 q 271 522 238 508 q 353 535 304 535 q 531 483 472 535 q 590 340 590 431 l 590 174 q 533 31 590 83 q 356 -21 475 -21 q 177 31 236 -21 q 118 174 118 83 l 119 175 l 118 175 l 118 729 m 215 174 q 250 92 215 122 q 356 63 285 63 q 459 92 425 63 q 493 174 493 122 l 493 340 q 458 422 493 393 q 353 451 424 451 q 249 422 283 451 q 215 340 215 393 l 215 174 z "},"7":{"ha":708,"x_min":113,"x_max":567,"o":"m 113 903 l 567 903 l 567 819 l 313 0 l 213 0 l 467 819 l 113 819 l 113 903 z "},"8":{"ha":708,"x_min":119,"x_max":589,"o":"m 119 306 q 144 401 119 365 q 219 451 169 436 q 144 501 169 467 q 119 597 119 536 l 119 729 q 173 872 119 819 q 343 924 226 924 q 519 872 463 924 q 575 729 575 819 l 575 597 q 552 503 575 538 q 482 453 529 469 q 562 403 535 439 q 589 306 589 368 l 589 174 q 533 31 589 83 q 354 -21 478 -21 q 176 31 232 -21 q 119 174 119 83 l 119 306 m 217 597 q 247 521 217 556 q 340 486 278 486 l 354 486 q 447 521 417 486 q 478 597 478 556 l 478 735 q 446 812 478 783 q 347 840 414 840 q 249 812 281 840 q 217 735 217 783 l 217 597 m 492 306 q 460 381 492 346 q 368 417 429 417 l 340 417 q 248 381 279 417 q 217 306 217 346 l 217 168 q 251 92 217 121 q 354 63 285 63 q 458 92 424 63 q 492 168 492 121 l 492 306 z "},"9":{"ha":708,"x_min":118,"x_max":590,"o":"m 590 174 q 535 31 590 83 q 356 -21 479 -21 q 177 31 233 -21 q 121 174 121 83 l 121 264 l 218 264 l 218 168 q 356 63 218 63 q 493 168 493 63 l 493 417 q 438 381 471 394 q 356 368 404 368 q 177 420 236 368 q 118 563 118 472 l 118 729 q 176 872 118 819 q 353 924 233 924 q 531 872 472 924 q 590 729 590 819 l 589 728 l 590 728 l 590 174 m 493 729 q 458 811 493 782 q 353 840 424 840 q 249 811 283 840 q 215 729 215 782 l 215 563 q 250 481 215 511 q 356 451 285 451 q 459 481 425 451 q 493 563 493 511 l 493 729 z "},"A":{"ha":665,"x_min":56,"x_max":610,"o":"m 406 903 l 610 0 l 513 0 l 465 208 l 200 208 l 153 0 l 56 0 l 260 903 l 406 903 m 218 292 l 446 292 l 332 794 l 218 292 z "},"Á":{"ha":665,"x_min":56,"x_max":610,"o":"m 406 903 l 610 0 l 513 0 l 465 208 l 200 208 l 153 0 l 56 0 l 260 903 l 406 903 m 218 292 l 446 292 l 332 794 l 218 292 m 403 1049 l 246 969 l 210 1006 l 381 1176 l 456 1101 l 403 1049 z "},"Ă":{"ha":665,"x_min":56,"x_max":610,"o":"m 406 903 l 610 0 l 513 0 l 465 208 l 200 208 l 153 0 l 56 0 l 260 903 l 406 903 m 218 292 l 446 292 l 332 794 l 218 292 m 274 1106 q 287 1073 274 1083 q 333 1063 300 1063 q 379 1073 365 1063 q 393 1106 393 1083 l 393 1133 l 469 1133 l 469 1097 q 436 1021 469 1049 q 333 993 403 993 q 229 1021 261 993 q 197 1097 197 1049 l 197 1133 l 274 1133 l 274 1106 z "},"Ắ":{"ha":665,"x_min":56,"x_max":610,"o":"m 406 903 l 610 0 l 513 0 l 465 208 l 200 208 l 153 0 l 56 0 l 260 903 l 406 903 m 218 292 l 446 292 l 332 794 l 218 292 m 274 1106 q 287 1073 274 1083 q 333 1063 300 1063 q 379 1073 365 1063 q 393 1106 393 1083 l 393 1133 l 469 1133 l 469 1097 q 436 1021 469 1049 q 333 993 403 993 q 229 1021 261 993 q 197 1097 197 1049 l 197 1133 l 274 1133 l 274 1106 m 403 1251 l 246 1172 l 210 1208 l 381 1379 l 456 1304 l 403 1251 z "},"Ặ":{"ha":665,"x_min":56,"x_max":610,"o":"m 406 903 l 610 0 l 513 0 l 465 208 l 200 208 l 153 0 l 56 0 l 260 903 l 406 903 m 218 292 l 446 292 l 332 794 l 218 292 m 274 1106 q 287 1073 274 1083 q 333 1063 300 1063 q 379 1073 365 1063 q 393 1106 393 1083 l 393 1133 l 469 1133 l 469 1097 q 436 1021 469 1049 q 333 993 403 993 q 229 1021 261 993 q 197 1097 197 1049 l 197 1133 l 274 1133 l 274 1106 m 278 -229 l 278 -76 l 389 -76 l 389 -229 l 278 -229 z "},"Ằ":{"ha":665,"x_min":56,"x_max":610,"o":"m 406 903 l 610 0 l 513 0 l 465 208 l 200 208 l 153 0 l 56 0 l 260 903 l 406 903 m 218 292 l 446 292 l 332 794 l 218 292 m 274 1106 q 287 1073 274 1083 q 333 1063 300 1063 q 379 1073 365 1063 q 393 1106 393 1083 l 393 1133 l 469 1133 l 469 1097 q 436 1021 469 1049 q 333 993 403 993 q 229 1021 261 993 q 197 1097 197 1049 l 197 1133 l 274 1133 l 274 1106 m 210 1304 l 285 1379 l 456 1208 l 419 1172 l 263 1251 l 210 1304 z "},"Ẳ":{"ha":665,"x_min":56,"x_max":610,"o":"m 406 903 l 610 0 l 513 0 l 465 208 l 200 208 l 153 0 l 56 0 l 260 903 l 406 903 m 218 292 l 446 292 l 332 794 l 218 292 m 274 1106 q 287 1073 274 1083 q 333 1063 300 1063 q 379 1073 365 1063 q 393 1106 393 1083 l 393 1133 l 469 1133 l 469 1097 q 436 1021 469 1049 q 333 993 403 993 q 229 1021 261 993 q 197 1097 197 1049 l 197 1133 l 274 1133 l 274 1106 m 332 1218 q 390 1311 390 1268 l 390 1328 q 333 1371 390 1371 q 275 1328 275 1371 l 275 1286 l 208 1286 l 208 1325 q 238 1402 208 1374 q 333 1431 268 1431 q 428 1402 399 1431 q 457 1325 457 1374 l 457 1311 q 444 1254 457 1285 q 400 1196 432 1224 l 372 1172 l 332 1218 z "},"Ẵ":{"ha":665,"x_min":56,"x_max":610,"o":"m 406 903 l 610 0 l 513 0 l 465 208 l 200 208 l 153 0 l 56 0 l 260 903 l 406 903 m 218 292 l 446 292 l 332 794 l 218 292 m 274 1106 q 287 1073 274 1083 q 333 1063 300 1063 q 379 1073 365 1063 q 393 1106 393 1083 l 393 1133 l 469 1133 l 469 1097 q 436 1021 469 1049 q 333 993 403 993 q 229 1021 261 993 q 197 1097 197 1049 l 197 1133 l 274 1133 l 274 1106 m 440 1218 q 393 1257 426 1257 q 353 1244 371 1257 q 314 1217 335 1231 q 261 1204 293 1204 q 199 1232 225 1204 q 169 1307 174 1260 l 226 1326 q 274 1288 240 1288 q 315 1301 297 1288 q 353 1327 332 1314 q 406 1340 375 1340 q 467 1313 442 1340 q 497 1238 493 1286 l 440 1218 z "},"Â":{"ha":665,"x_min":56,"x_max":610,"o":"m 406 903 l 610 0 l 513 0 l 465 208 l 200 208 l 153 0 l 56 0 l 260 903 l 406 903 m 218 292 l 446 292 l 332 794 l 218 292 m 211 969 l 175 1006 l 311 1163 l 356 1163 l 492 1006 l 456 969 l 333 1056 l 211 969 z "},"Ấ":{"ha":665,"x_min":56,"x_max":610,"o":"m 406 903 l 610 0 l 513 0 l 465 208 l 200 208 l 153 0 l 56 0 l 260 903 l 406 903 m 218 292 l 446 292 l 332 794 l 218 292 m 211 969 l 175 1006 l 311 1163 l 356 1163 l 492 1006 l 456 969 l 333 1056 l 211 969 m 403 1267 l 246 1188 l 210 1224 l 381 1394 l 456 1319 l 403 1267 z "},"Ậ":{"ha":665,"x_min":56,"x_max":610,"o":"m 406 903 l 610 0 l 513 0 l 465 208 l 200 208 l 153 0 l 56 0 l 260 903 l 406 903 m 218 292 l 446 292 l 332 794 l 218 292 m 211 969 l 175 1006 l 311 1163 l 356 1163 l 492 1006 l 456 969 l 333 1056 l 211 969 m 278 -229 l 278 -76 l 389 -76 l 389 -229 l 278 -229 z "},"Ầ":{"ha":665,"x_min":56,"x_max":610,"o":"m 406 903 l 610 0 l 513 0 l 465 208 l 200 208 l 153 0 l 56 0 l 260 903 l 406 903 m 218 292 l 446 292 l 332 794 l 218 292 m 211 969 l 175 1006 l 311 1163 l 356 1163 l 492 1006 l 456 969 l 333 1056 l 211 969 m 210 1319 l 285 1394 l 456 1224 l 419 1188 l 263 1267 l 210 1319 z "},"Ẩ":{"ha":665,"x_min":56,"x_max":610,"o":"m 406 903 l 610 0 l 513 0 l 465 208 l 200 208 l 153 0 l 56 0 l 260 903 l 406 903 m 218 292 l 446 292 l 332 794 l 218 292 m 211 969 l 175 1006 l 311 1163 l 356 1163 l 492 1006 l 456 969 l 333 1056 l 211 969 m 332 1233 q 390 1326 390 1283 l 390 1343 q 333 1386 390 1386 q 275 1343 275 1386 l 275 1301 l 208 1301 l 208 1340 q 238 1417 208 1389 q 333 1446 268 1446 q 428 1417 399 1446 q 457 1340 457 1389 l 457 1326 q 444 1269 457 1300 q 400 1211 432 1239 l 372 1188 l 332 1233 z "},"Ẫ":{"ha":665,"x_min":56,"x_max":610,"o":"m 406 903 l 610 0 l 513 0 l 465 208 l 200 208 l 153 0 l 56 0 l 260 903 l 406 903 m 218 292 l 446 292 l 332 794 l 218 292 m 211 969 l 175 1006 l 311 1163 l 356 1163 l 492 1006 l 456 969 l 333 1056 l 211 969 m 440 1233 q 393 1272 426 1272 q 353 1259 371 1272 q 314 1233 335 1246 q 261 1219 293 1219 q 199 1247 225 1219 q 169 1322 174 1275 l 226 1342 q 274 1303 240 1303 q 315 1316 297 1303 q 353 1342 332 1329 q 406 1356 375 1356 q 467 1328 442 1356 q 497 1253 493 1301 l 440 1233 z "},"Ȁ":{"ha":665,"x_min":56,"x_max":610,"o":"m 406 903 l 610 0 l 513 0 l 465 208 l 200 208 l 153 0 l 56 0 l 260 903 l 406 903 m 218 292 l 446 292 l 332 794 l 218 292 m 374 1058 l 332 1111 l 413 1176 l 556 996 l 522 969 l 374 1058 m 151 1058 l 110 1111 l 190 1176 l 333 996 l 300 969 l 151 1058 z "},"Ä":{"ha":665,"x_min":56,"x_max":610,"o":"m 406 903 l 610 0 l 513 0 l 465 208 l 200 208 l 153 0 l 56 0 l 260 903 l 406 903 m 218 292 l 446 292 l 332 794 l 218 292 m 188 993 l 188 1146 l 285 1146 l 285 993 l 188 993 m 382 993 l 382 1146 l 479 1146 l 479 993 l 382 993 z "},"Ạ":{"ha":665,"x_min":56,"x_max":610,"o":"m 406 903 l 610 0 l 513 0 l 465 208 l 200 208 l 153 0 l 56 0 l 260 903 l 406 903 m 218 292 l 446 292 l 332 794 l 218 292 m 278 -229 l 278 -76 l 389 -76 l 389 -229 l 278 -229 z "},"À":{"ha":665,"x_min":56,"x_max":610,"o":"m 406 903 l 610 0 l 513 0 l 465 208 l 200 208 l 153 0 l 56 0 l 260 903 l 406 903 m 218 292 l 446 292 l 332 794 l 218 292 m 210 1101 l 285 1176 l 456 1006 l 419 969 l 263 1049 l 210 1101 z "},"Ả":{"ha":665,"x_min":56,"x_max":610,"o":"m 406 903 l 610 0 l 513 0 l 465 208 l 200 208 l 153 0 l 56 0 l 260 903 l 406 903 m 218 292 l 446 292 l 332 794 l 218 292 m 332 1015 q 390 1108 390 1065 l 390 1125 q 333 1168 390 1168 q 275 1125 275 1168 l 275 1083 l 208 1083 l 208 1122 q 238 1199 208 1171 q 333 1228 268 1228 q 428 1199 399 1228 q 457 1122 457 1171 l 457 1108 q 444 1051 457 1082 q 400 993 432 1021 l 372 969 l 332 1015 z "},"Ȃ":{"ha":665,"x_min":56,"x_max":610,"o":"m 406 903 l 610 0 l 513 0 l 465 208 l 200 208 l 153 0 l 56 0 l 260 903 l 406 903 m 218 292 l 446 292 l 332 794 l 218 292 m 393 1021 q 380 1053 393 1043 q 333 1064 367 1064 q 288 1053 301 1064 q 274 1021 274 1043 l 274 993 l 197 993 l 197 1029 q 231 1106 197 1078 q 333 1133 264 1133 q 438 1106 406 1133 q 469 1029 469 1078 l 469 993 l 393 993 l 393 1021 z "},"Ā":{"ha":665,"x_min":56,"x_max":610,"o":"m 406 903 l 610 0 l 513 0 l 465 208 l 200 208 l 153 0 l 56 0 l 260 903 l 406 903 m 218 292 l 446 292 l 332 794 l 218 292 m 183 1111 l 483 1111 l 483 1028 l 183 1028 l 183 1111 z "},"Ą":{"ha":665,"x_min":56,"x_max":636,"o":"m 406 903 l 610 0 l 513 0 l 465 208 l 200 208 l 153 0 l 56 0 l 260 903 l 406 903 m 218 292 l 446 292 l 332 794 l 218 292 m 610 0 l 522 -71 q 454 -172 454 -126 l 454 -231 q 511 -274 454 -274 q 569 -231 569 -274 l 569 -189 l 636 -189 l 636 -228 q 606 -304 636 -275 q 511 -333 576 -333 q 417 -304 447 -333 q 388 -228 388 -275 l 388 -172 q 399 -116 388 -144 q 444 -57 410 -87 l 569 50 l 610 0 z "},"Å":{"ha":665,"x_min":56,"x_max":610,"o":"m 406 903 l 610 0 l 513 0 l 465 208 l 200 208 l 153 0 l 56 0 l 260 903 l 406 903 m 218 292 l 446 292 l 332 794 l 218 292 m 451 1056 q 424 979 451 1007 q 333 951 396 951 q 242 979 269 951 q 215 1056 215 1007 l 215 1083 q 242 1160 215 1132 q 333 1188 269 1188 q 424 1160 396 1188 q 451 1083 451 1132 l 451 1056 m 285 1056 q 333 1013 285 1013 q 382 1056 382 1013 l 382 1083 q 333 1126 382 1126 q 285 1083 285 1126 l 285 1056 z "},"Ǻ":{"ha":665,"x_min":56,"x_max":610,"o":"m 406 903 l 610 0 l 513 0 l 465 208 l 200 208 l 153 0 l 56 0 l 260 903 l 406 903 m 218 292 l 446 292 l 332 794 l 218 292 m 451 1056 q 424 979 451 1007 q 333 951 396 951 q 242 979 269 951 q 215 1056 215 1007 l 215 1083 q 242 1160 215 1132 q 333 1188 269 1188 q 424 1160 396 1188 q 451 1083 451 1132 l 451 1056 m 285 1056 q 333 1013 285 1013 q 382 1056 382 1013 l 382 1083 q 333 1126 382 1126 q 285 1083 285 1126 l 285 1056 m 403 1278 l 246 1199 l 210 1235 l 381 1406 l 456 1331 l 403 1278 z "},"Ã":{"ha":665,"x_min":56,"x_max":610,"o":"m 406 903 l 610 0 l 513 0 l 465 208 l 200 208 l 153 0 l 56 0 l 260 903 l 406 903 m 218 292 l 446 292 l 332 794 l 218 292 m 440 1015 q 393 1054 426 1054 q 353 1041 371 1054 q 314 1015 335 1028 q 261 1001 293 1001 q 199 1029 225 1001 q 169 1104 174 1057 l 226 1124 q 274 1085 240 1085 q 315 1098 297 1085 q 353 1124 332 1111 q 406 1138 375 1138 q 467 1110 442 1138 q 497 1035 493 1083 l 440 1015 z "},"Æ":{"ha":944,"x_min":0,"x_max":875,"o":"m 861 903 l 861 819 l 563 819 l 563 444 l 806 444 l 806 361 l 563 361 l 563 83 l 875 83 l 875 0 l 465 0 l 465 361 l 229 361 l 97 0 l 0 0 l 329 903 l 861 903 m 260 444 l 465 444 l 465 819 l 396 819 l 260 444 z "},"Ǽ":{"ha":944,"x_min":0,"x_max":875,"o":"m 861 903 l 861 819 l 563 819 l 563 444 l 806 444 l 806 361 l 563 361 l 563 83 l 875 83 l 875 0 l 465 0 l 465 361 l 229 361 l 97 0 l 0 0 l 329 903 l 861 903 m 260 444 l 465 444 l 465 819 l 396 819 l 260 444 m 674 1049 l 517 969 l 481 1006 l 651 1176 l 726 1101 l 674 1049 z "},"B":{"ha":701,"x_min":139,"x_max":583,"o":"m 349 903 q 515 851 460 903 q 569 708 569 799 l 569 625 q 471 474 569 507 q 583 319 583 443 l 583 194 q 529 52 583 104 q 363 0 475 0 l 139 0 l 139 903 l 349 903 m 472 708 q 441 784 472 749 q 349 819 410 819 l 236 819 l 236 507 l 349 507 q 442 545 411 507 q 472 625 472 583 l 472 708 m 486 319 q 455 399 486 360 q 363 438 424 438 l 236 438 l 236 83 l 363 83 q 456 118 425 83 q 486 194 486 153 l 486 319 z "},"C":{"ha":681,"x_min":118,"x_max":576,"o":"m 479 250 l 576 250 l 576 174 q 521 31 576 83 q 349 -21 465 -21 q 175 31 232 -21 q 118 174 118 83 l 118 729 q 174 872 118 819 q 346 924 229 924 q 519 872 463 924 q 576 729 576 819 l 576 597 l 479 597 l 479 729 q 447 811 479 782 q 346 840 414 840 q 247 811 279 840 q 215 729 215 782 l 215 174 q 248 92 215 122 q 349 63 281 63 q 447 92 415 63 q 479 174 479 122 l 479 250 z "},"Ć":{"ha":681,"x_min":118,"x_max":576,"o":"m 479 250 l 576 250 l 576 174 q 521 31 576 83 q 349 -21 465 -21 q 175 31 232 -21 q 118 174 118 83 l 118 729 q 174 872 118 819 q 346 924 229 924 q 519 872 463 924 q 576 729 576 819 l 576 597 l 479 597 l 479 729 q 447 811 479 782 q 346 840 414 840 q 247 811 279 840 q 215 729 215 782 l 215 174 q 248 92 215 122 q 349 63 281 63 q 447 92 415 63 q 479 174 479 122 l 479 250 m 410 1049 l 253 969 l 217 1006 l 388 1176 l 463 1101 l 410 1049 z "},"Č":{"ha":681,"x_min":118,"x_max":576,"o":"m 479 250 l 576 250 l 576 174 q 521 31 576 83 q 349 -21 465 -21 q 175 31 232 -21 q 118 174 118 83 l 118 729 q 174 872 118 819 q 346 924 229 924 q 519 872 463 924 q 576 729 576 819 l 576 597 l 479 597 l 479 729 q 447 811 479 782 q 346 840 414 840 q 247 811 279 840 q 215 729 215 782 l 215 174 q 248 92 215 122 q 349 63 281 63 q 447 92 415 63 q 479 174 479 122 l 479 250 m 463 1163 l 499 1126 l 363 969 l 318 969 l 182 1126 l 218 1163 l 340 1076 l 463 1163 z "},"Ç":{"ha":681,"x_min":118,"x_max":576,"o":"m 479 250 l 576 250 l 576 174 q 521 31 576 83 q 349 -21 465 -21 q 175 31 232 -21 q 118 174 118 83 l 118 729 q 174 872 118 819 q 346 924 229 924 q 519 872 463 924 q 576 729 576 819 l 576 597 l 479 597 l 479 729 q 447 811 479 782 q 346 840 414 840 q 247 811 279 840 q 215 729 215 782 l 215 174 q 248 92 215 122 q 349 63 281 63 q 447 92 415 63 q 479 174 479 122 l 479 250 m 376 3 l 358 -86 l 365 -86 q 453 -117 424 -86 q 482 -196 482 -147 l 482 -228 q 453 -304 482 -275 q 358 -333 424 -333 q 263 -304 293 -333 q 233 -228 233 -275 l 233 -217 l 300 -217 l 300 -231 q 358 -274 300 -274 q 415 -231 415 -274 l 415 -196 q 402 -162 415 -178 q 365 -146 389 -146 l 282 -146 l 311 3 l 376 3 z "},"Ĉ":{"ha":681,"x_min":118,"x_max":576,"o":"m 479 250 l 576 250 l 576 174 q 521 31 576 83 q 349 -21 465 -21 q 175 31 232 -21 q 118 174 118 83 l 118 729 q 174 872 118 819 q 346 924 229 924 q 519 872 463 924 q 576 729 576 819 l 576 597 l 479 597 l 479 729 q 447 811 479 782 q 346 840 414 840 q 247 811 279 840 q 215 729 215 782 l 215 174 q 248 92 215 122 q 349 63 281 63 q 447 92 415 63 q 479 174 479 122 l 479 250 m 218 969 l 182 1006 l 318 1163 l 363 1163 l 499 1006 l 463 969 l 340 1056 l 218 969 z "},"Ċ":{"ha":681,"x_min":118,"x_max":576,"o":"m 479 250 l 576 250 l 576 174 q 521 31 576 83 q 349 -21 465 -21 q 175 31 232 -21 q 118 174 118 83 l 118 729 q 174 872 118 819 q 346 924 229 924 q 519 872 463 924 q 576 729 576 819 l 576 597 l 479 597 l 479 729 q 447 811 479 782 q 346 840 414 840 q 247 811 279 840 q 215 729 215 782 l 215 174 q 248 92 215 122 q 349 63 281 63 q 447 92 415 63 q 479 174 479 122 l 479 250 m 285 993 l 285 1146 l 396 1146 l 396 993 l 285 993 z "},"D":{"ha":701,"x_min":139,"x_max":583,"o":"m 139 0 l 139 903 l 363 903 q 528 851 474 903 q 583 708 583 799 l 583 194 q 529 52 583 104 q 363 0 475 0 l 139 0 m 486 708 q 455 784 486 749 q 363 819 424 819 l 236 819 l 236 83 l 363 83 q 456 118 425 83 q 486 194 486 153 l 486 708 z "},"Ǆ":{"ha":1281,"x_min":139,"x_max":1225,"o":"m 139 0 l 139 903 l 363 903 q 528 851 474 903 q 583 708 583 799 l 583 194 q 529 52 583 104 q 363 0 475 0 l 139 0 m 486 708 q 455 784 486 749 q 363 819 424 819 l 236 819 l 236 83 l 363 83 q 456 118 425 83 q 486 194 486 153 l 486 708 m 771 903 l 1225 903 l 1225 819 l 851 83 l 1218 83 l 1218 0 l 750 0 l 750 83 l 1124 819 l 771 819 l 771 903 m 1114 1163 l 1150 1126 l 1014 969 l 969 969 l 833 1126 l 869 1163 l 992 1076 l 1114 1163 z "},"Ð":{"ha":701,"x_min":56,"x_max":583,"o":"m 139 0 l 139 903 l 363 903 q 528 851 474 903 q 583 708 583 799 l 583 194 q 529 52 583 104 q 363 0 475 0 l 139 0 m 486 708 q 455 784 486 749 q 363 819 424 819 l 236 819 l 236 83 l 363 83 q 456 118 425 83 q 486 194 486 153 l 486 708 m 56 486 l 417 486 l 417 417 l 56 417 l 56 486 z "},"Ď":{"ha":701,"x_min":139,"x_max":583,"o":"m 139 0 l 139 903 l 363 903 q 528 851 474 903 q 583 708 583 799 l 583 194 q 529 52 583 104 q 363 0 475 0 l 139 0 m 486 708 q 455 784 486 749 q 363 819 424 819 l 236 819 l 236 83 l 363 83 q 456 118 425 83 q 486 194 486 153 l 486 708 m 460 1163 l 496 1126 l 360 969 l 315 969 l 179 1126 l 215 1163 l 338 1076 l 460 1163 z "},"Đ":{"ha":701,"x_min":56,"x_max":583,"o":"m 139 0 l 139 903 l 363 903 q 528 851 474 903 q 583 708 583 799 l 583 194 q 529 52 583 104 q 363 0 475 0 l 139 0 m 486 708 q 455 784 486 749 q 363 819 424 819 l 236 819 l 236 83 l 363 83 q 456 118 425 83 q 486 194 486 153 l 486 708 m 56 486 l 417 486 l 417 417 l 56 417 l 56 486 z "},"ǅ":{"ha":1281,"x_min":139,"x_max":1225,"o":"m 139 0 l 139 903 l 363 903 q 528 851 474 903 q 583 708 583 799 l 583 194 q 529 52 583 104 q 363 0 475 0 l 139 0 m 486 708 q 455 784 486 749 q 363 819 424 819 l 236 819 l 236 83 l 363 83 q 456 118 425 83 q 486 194 486 153 l 486 708 m 771 903 l 1225 903 l 1225 819 l 851 83 l 1218 83 l 1218 0 l 750 0 l 750 83 l 1124 819 l 771 819 l 771 903 m 1114 1163 l 1150 1126 l 1014 969 l 969 969 l 833 1126 l 869 1163 l 992 1076 l 1114 1163 z "},"E":{"ha":618,"x_min":139,"x_max":549,"o":"m 139 0 l 139 903 l 535 903 l 535 819 l 236 819 l 236 500 l 479 500 l 479 417 l 236 417 l 236 83 l 549 83 l 549 0 l 139 0 z "},"É":{"ha":618,"x_min":139,"x_max":549,"o":"m 139 0 l 139 903 l 535 903 l 535 819 l 236 819 l 236 500 l 479 500 l 479 417 l 236 417 l 236 83 l 549 83 l 549 0 l 139 0 m 414 1049 l 257 969 l 221 1006 l 392 1176 l 467 1101 l 414 1049 z "},"Ĕ":{"ha":618,"x_min":139,"x_max":549,"o":"m 139 0 l 139 903 l 535 903 l 535 819 l 236 819 l 236 500 l 479 500 l 479 417 l 236 417 l 236 83 l 549 83 l 549 0 l 139 0 m 285 1106 q 298 1073 285 1083 q 344 1063 311 1063 q 390 1073 376 1063 q 404 1106 404 1083 l 404 1133 l 481 1133 l 481 1097 q 447 1021 481 1049 q 344 993 414 993 q 240 1021 272 993 q 208 1097 208 1049 l 208 1133 l 285 1133 l 285 1106 z "},"Ě":{"ha":618,"x_min":139,"x_max":549,"o":"m 139 0 l 139 903 l 535 903 l 535 819 l 236 819 l 236 500 l 479 500 l 479 417 l 236 417 l 236 83 l 549 83 l 549 0 l 139 0 m 467 1163 l 503 1126 l 367 969 l 322 969 l 186 1126 l 222 1163 l 344 1076 l 467 1163 z "},"Ê":{"ha":618,"x_min":139,"x_max":549,"o":"m 139 0 l 139 903 l 535 903 l 535 819 l 236 819 l 236 500 l 479 500 l 479 417 l 236 417 l 236 83 l 549 83 l 549 0 l 139 0 m 222 969 l 186 1006 l 322 1163 l 367 1163 l 503 1006 l 467 969 l 344 1056 l 222 969 z "},"Ế":{"ha":618,"x_min":139,"x_max":549,"o":"m 139 0 l 139 903 l 535 903 l 535 819 l 236 819 l 236 500 l 479 500 l 479 417 l 236 417 l 236 83 l 549 83 l 549 0 l 139 0 m 222 969 l 186 1006 l 322 1163 l 367 1163 l 503 1006 l 467 969 l 344 1056 l 222 969 m 414 1267 l 257 1188 l 221 1224 l 392 1394 l 467 1319 l 414 1267 z "},"Ệ":{"ha":618,"x_min":139,"x_max":549,"o":"m 139 0 l 139 903 l 535 903 l 535 819 l 236 819 l 236 500 l 479 500 l 479 417 l 236 417 l 236 83 l 549 83 l 549 0 l 139 0 m 222 969 l 186 1006 l 322 1163 l 367 1163 l 503 1006 l 467 969 l 344 1056 l 222 969 m 289 -229 l 289 -76 l 400 -76 l 400 -229 l 289 -229 z "},"Ề":{"ha":618,"x_min":139,"x_max":549,"o":"m 139 0 l 139 903 l 535 903 l 535 819 l 236 819 l 236 500 l 479 500 l 479 417 l 236 417 l 236 83 l 549 83 l 549 0 l 139 0 m 222 969 l 186 1006 l 322 1163 l 367 1163 l 503 1006 l 467 969 l 344 1056 l 222 969 m 221 1319 l 296 1394 l 467 1224 l 431 1188 l 274 1267 l 221 1319 z "},"Ể":{"ha":618,"x_min":139,"x_max":549,"o":"m 139 0 l 139 903 l 535 903 l 535 819 l 236 819 l 236 500 l 479 500 l 479 417 l 236 417 l 236 83 l 549 83 l 549 0 l 139 0 m 222 969 l 186 1006 l 322 1163 l 367 1163 l 503 1006 l 467 969 l 344 1056 l 222 969 m 343 1233 q 401 1326 401 1283 l 401 1343 q 344 1386 401 1386 q 286 1343 286 1386 l 286 1301 l 219 1301 l 219 1340 q 249 1417 219 1389 q 344 1446 279 1446 q 439 1417 410 1446 q 468 1340 468 1389 l 468 1326 q 456 1269 468 1300 q 411 1211 443 1239 l 383 1188 l 343 1233 z "},"Ễ":{"ha":618,"x_min":139,"x_max":549,"o":"m 139 0 l 139 903 l 535 903 l 535 819 l 236 819 l 236 500 l 479 500 l 479 417 l 236 417 l 236 83 l 549 83 l 549 0 l 139 0 m 222 969 l 186 1006 l 322 1163 l 367 1163 l 503 1006 l 467 969 l 344 1056 l 222 969 m 451 1233 q 404 1272 438 1272 q 364 1259 382 1272 q 325 1233 346 1246 q 272 1219 304 1219 q 210 1247 236 1219 q 181 1322 185 1275 l 238 1342 q 285 1303 251 1303 q 326 1316 308 1303 q 365 1342 343 1329 q 417 1356 386 1356 q 478 1328 453 1356 q 508 1253 504 1301 l 451 1233 z "},"Ȅ":{"ha":618,"x_min":121,"x_max":567,"o":"m 139 0 l 139 903 l 535 903 l 535 819 l 236 819 l 236 500 l 479 500 l 479 417 l 236 417 l 236 83 l 549 83 l 549 0 l 139 0 m 385 1058 l 343 1111 l 424 1176 l 567 996 l 533 969 l 385 1058 m 163 1058 l 121 1111 l 201 1176 l 344 996 l 311 969 l 163 1058 z "},"Ë":{"ha":618,"x_min":139,"x_max":549,"o":"m 139 0 l 139 903 l 535 903 l 535 819 l 236 819 l 236 500 l 479 500 l 479 417 l 236 417 l 236 83 l 549 83 l 549 0 l 139 0 m 199 993 l 199 1146 l 296 1146 l 296 993 l 199 993 m 393 993 l 393 1146 l 490 1146 l 490 993 l 393 993 z "},"Ė":{"ha":618,"x_min":139,"x_max":549,"o":"m 139 0 l 139 903 l 535 903 l 535 819 l 236 819 l 236 500 l 479 500 l 479 417 l 236 417 l 236 83 l 549 83 l 549 0 l 139 0 m 289 993 l 289 1146 l 400 1146 l 400 993 l 289 993 z "},"Ẹ":{"ha":618,"x_min":139,"x_max":549,"o":"m 139 0 l 139 903 l 535 903 l 535 819 l 236 819 l 236 500 l 479 500 l 479 417 l 236 417 l 236 83 l 549 83 l 549 0 l 139 0 m 289 -229 l 289 -76 l 400 -76 l 400 -229 l 289 -229 z "},"È":{"ha":618,"x_min":139,"x_max":549,"o":"m 139 0 l 139 903 l 535 903 l 535 819 l 236 819 l 236 500 l 479 500 l 479 417 l 236 417 l 236 83 l 549 83 l 549 0 l 139 0 m 221 1101 l 296 1176 l 467 1006 l 431 969 l 274 1049 l 221 1101 z "},"Ẻ":{"ha":618,"x_min":139,"x_max":549,"o":"m 139 0 l 139 903 l 535 903 l 535 819 l 236 819 l 236 500 l 479 500 l 479 417 l 236 417 l 236 83 l 549 83 l 549 0 l 139 0 m 343 1015 q 401 1108 401 1065 l 401 1125 q 344 1168 401 1168 q 286 1125 286 1168 l 286 1083 l 219 1083 l 219 1122 q 249 1199 219 1171 q 344 1228 279 1228 q 439 1199 410 1228 q 468 1122 468 1171 l 468 1108 q 456 1051 468 1082 q 411 993 443 1021 l 383 969 l 343 1015 z "},"Ȇ":{"ha":618,"x_min":139,"x_max":549,"o":"m 139 0 l 139 903 l 535 903 l 535 819 l 236 819 l 236 500 l 479 500 l 479 417 l 236 417 l 236 83 l 549 83 l 549 0 l 139 0 m 404 1021 q 391 1053 404 1043 q 344 1064 378 1064 q 299 1053 313 1064 q 285 1021 285 1043 l 285 993 l 208 993 l 208 1029 q 242 1106 208 1078 q 344 1133 275 1133 q 449 1106 417 1133 q 481 1029 481 1078 l 481 993 l 404 993 l 404 1021 z "},"Ē":{"ha":618,"x_min":139,"x_max":549,"o":"m 139 0 l 139 903 l 535 903 l 535 819 l 236 819 l 236 500 l 479 500 l 479 417 l 236 417 l 236 83 l 549 83 l 549 0 l 139 0 m 194 1111 l 494 1111 l 494 1028 l 194 1028 l 194 1111 z "},"Ę":{"ha":618,"x_min":139,"x_max":575,"o":"m 139 0 l 139 903 l 535 903 l 535 819 l 236 819 l 236 500 l 479 500 l 479 417 l 236 417 l 236 83 l 549 83 l 549 0 l 139 0 m 549 0 l 461 -71 q 393 -172 393 -126 l 393 -231 q 450 -274 393 -274 q 508 -231 508 -274 l 508 -189 l 575 -189 l 575 -228 q 545 -304 575 -275 q 450 -333 515 -333 q 356 -304 386 -333 q 326 -228 326 -275 l 326 -172 q 338 -116 326 -144 q 383 -57 349 -87 l 508 50 l 549 0 z "},"Ẽ":{"ha":618,"x_min":139,"x_max":549,"o":"m 139 0 l 139 903 l 535 903 l 535 819 l 236 819 l 236 500 l 479 500 l 479 417 l 236 417 l 236 83 l 549 83 l 549 0 l 139 0 m 451 1015 q 404 1054 438 1054 q 364 1041 382 1054 q 325 1015 346 1028 q 272 1001 304 1001 q 210 1029 236 1001 q 181 1104 185 1057 l 238 1124 q 285 1085 251 1085 q 326 1098 308 1085 q 365 1124 343 1111 q 417 1138 386 1138 q 478 1110 453 1138 q 508 1035 504 1083 l 451 1015 z "},"Ə":{"ha":694,"x_min":118,"x_max":576,"o":"m 215 653 l 118 653 l 118 729 q 174 872 118 819 q 346 924 229 924 q 519 872 463 924 q 576 729 576 819 l 576 174 q 521 31 576 83 q 349 -21 465 -21 q 175 31 232 -21 q 118 174 118 83 l 118 479 l 479 479 l 479 729 q 447 811 479 782 q 346 840 414 840 q 247 811 279 840 q 215 729 215 782 l 215 653 m 479 396 l 215 396 l 215 174 q 248 92 215 122 q 349 63 281 63 q 447 92 415 63 q 479 174 479 122 l 479 396 z "},"F":{"ha":576,"x_min":139,"x_max":521,"o":"m 139 0 l 139 903 l 521 903 l 521 819 l 236 819 l 236 500 l 465 500 l 465 417 l 236 417 l 236 0 l 139 0 z "},"G":{"ha":694,"x_min":118,"x_max":576,"o":"m 324 458 l 576 458 l 576 0 l 535 0 l 499 89 q 424 10 471 42 q 319 -21 376 -21 q 200 5 244 -21 q 137 75 156 31 q 118 174 118 119 l 118 729 q 174 872 118 819 q 346 924 229 924 q 519 872 463 924 q 576 729 576 819 l 576 653 l 479 653 l 479 729 q 447 811 479 782 q 346 840 414 840 q 247 811 279 840 q 215 729 215 782 l 215 174 q 235 94 215 126 q 318 63 256 63 q 397 85 361 63 q 456 141 433 108 q 479 201 479 174 l 479 375 l 324 375 l 324 458 z "},"Ğ":{"ha":694,"x_min":118,"x_max":576,"o":"m 324 458 l 576 458 l 576 0 l 535 0 l 499 89 q 424 10 471 42 q 319 -21 376 -21 q 200 5 244 -21 q 137 75 156 31 q 118 174 118 119 l 118 729 q 174 872 118 819 q 346 924 229 924 q 519 872 463 924 q 576 729 576 819 l 576 653 l 479 653 l 479 729 q 447 811 479 782 q 346 840 414 840 q 247 811 279 840 q 215 729 215 782 l 215 174 q 235 94 215 126 q 318 63 256 63 q 397 85 361 63 q 456 141 433 108 q 479 201 479 174 l 479 375 l 324 375 l 324 458 m 288 1106 q 301 1073 288 1083 q 347 1063 314 1063 q 393 1073 379 1063 q 407 1106 407 1083 l 407 1133 l 483 1133 l 483 1097 q 450 1021 483 1049 q 347 993 417 993 q 243 1021 275 993 q 211 1097 211 1049 l 211 1133 l 288 1133 l 288 1106 z "},"Ǧ":{"ha":694,"x_min":118,"x_max":576,"o":"m 324 458 l 576 458 l 576 0 l 535 0 l 499 89 q 424 10 471 42 q 319 -21 376 -21 q 200 5 244 -21 q 137 75 156 31 q 118 174 118 119 l 118 729 q 174 872 118 819 q 346 924 229 924 q 519 872 463 924 q 576 729 576 819 l 576 653 l 479 653 l 479 729 q 447 811 479 782 q 346 840 414 840 q 247 811 279 840 q 215 729 215 782 l 215 174 q 235 94 215 126 q 318 63 256 63 q 397 85 361 63 q 456 141 433 108 q 479 201 479 174 l 479 375 l 324 375 l 324 458 m 469 1163 l 506 1126 l 369 969 l 325 969 l 189 1126 l 225 1163 l 347 1076 l 469 1163 z "},"Ĝ":{"ha":694,"x_min":118,"x_max":576,"o":"m 324 458 l 576 458 l 576 0 l 535 0 l 499 89 q 424 10 471 42 q 319 -21 376 -21 q 200 5 244 -21 q 137 75 156 31 q 118 174 118 119 l 118 729 q 174 872 118 819 q 346 924 229 924 q 519 872 463 924 q 576 729 576 819 l 576 653 l 479 653 l 479 729 q 447 811 479 782 q 346 840 414 840 q 247 811 279 840 q 215 729 215 782 l 215 174 q 235 94 215 126 q 318 63 256 63 q 397 85 361 63 q 456 141 433 108 q 479 201 479 174 l 479 375 l 324 375 l 324 458 m 225 969 l 189 1006 l 325 1163 l 369 1163 l 506 1006 l 469 969 l 347 1056 l 225 969 z "},"Ģ":{"ha":694,"x_min":118,"x_max":576,"o":"m 324 458 l 576 458 l 576 0 l 535 0 l 499 89 q 424 10 471 42 q 319 -21 376 -21 q 200 5 244 -21 q 137 75 156 31 q 118 174 118 119 l 118 729 q 174 872 118 819 q 346 924 229 924 q 519 872 463 924 q 576 729 576 819 l 576 653 l 479 653 l 479 729 q 447 811 479 782 q 346 840 414 840 q 247 811 279 840 q 215 729 215 782 l 215 174 q 235 94 215 126 q 318 63 256 63 q 397 85 361 63 q 456 141 433 108 q 479 201 479 174 l 479 375 l 324 375 l 324 458 m 342 -356 l 297 -347 l 325 -215 l 292 -203 l 292 -76 l 403 -76 l 403 -194 l 342 -356 z "},"Ġ":{"ha":694,"x_min":118,"x_max":576,"o":"m 324 458 l 576 458 l 576 0 l 535 0 l 499 89 q 424 10 471 42 q 319 -21 376 -21 q 200 5 244 -21 q 137 75 156 31 q 118 174 118 119 l 118 729 q 174 872 118 819 q 346 924 229 924 q 519 872 463 924 q 576 729 576 819 l 576 653 l 479 653 l 479 729 q 447 811 479 782 q 346 840 414 840 q 247 811 279 840 q 215 729 215 782 l 215 174 q 235 94 215 126 q 318 63 256 63 q 397 85 361 63 q 456 141 433 108 q 479 201 479 174 l 479 375 l 324 375 l 324 458 m 292 993 l 292 1146 l 403 1146 l 403 993 l 292 993 z "},"H":{"ha":746,"x_min":139,"x_max":607,"o":"m 139 0 l 139 903 l 236 903 l 236 500 l 510 500 l 510 903 l 607 903 l 607 0 l 510 0 l 510 417 l 236 417 l 236 0 l 139 0 z "},"Ħ":{"ha":746,"x_min":54,"x_max":693,"o":"m 139 0 l 139 903 l 236 903 l 236 500 l 510 500 l 510 903 l 607 903 l 607 0 l 510 0 l 510 417 l 236 417 l 236 0 l 139 0 m 54 733 l 693 733 l 693 664 l 54 664 l 54 733 z "},"Ĥ":{"ha":746,"x_min":139,"x_max":607,"o":"m 139 0 l 139 903 l 236 903 l 236 500 l 510 500 l 510 903 l 607 903 l 607 0 l 510 0 l 510 417 l 236 417 l 236 0 l 139 0 m 251 969 l 215 1006 l 351 1163 l 396 1163 l 532 1006 l 496 969 l 374 1056 l 251 969 z "},"I":{"ha":431,"x_min":97,"x_max":333,"o":"m 333 0 l 97 0 l 97 83 l 167 83 l 167 819 l 97 819 l 97 903 l 333 903 l 333 819 l 264 819 l 264 83 l 333 83 l 333 0 z "},"Ĳ":{"ha":958,"x_min":97,"x_max":833,"o":"m 333 0 l 97 0 l 97 83 l 167 83 l 167 819 l 97 819 l 97 903 l 333 903 l 333 819 l 264 819 l 264 83 l 333 83 l 333 0 m 833 903 l 833 160 q 782 24 833 69 q 644 -21 731 -21 q 508 24 558 -21 q 458 160 458 69 l 458 250 l 556 250 l 556 154 q 579 85 556 107 q 644 63 603 63 q 712 85 688 63 q 736 154 736 107 l 736 819 l 556 819 l 556 903 l 833 903 z "},"Í":{"ha":431,"x_min":92,"x_max":338,"o":"m 333 0 l 97 0 l 97 83 l 167 83 l 167 819 l 97 819 l 97 903 l 333 903 l 333 819 l 264 819 l 264 83 l 333 83 l 333 0 m 285 1049 l 128 969 l 92 1006 l 263 1176 l 338 1101 l 285 1049 z "},"Ĭ":{"ha":431,"x_min":79,"x_max":351,"o":"m 333 0 l 97 0 l 97 83 l 167 83 l 167 819 l 97 819 l 97 903 l 333 903 l 333 819 l 264 819 l 264 83 l 333 83 l 333 0 m 156 1106 q 169 1073 156 1083 q 215 1063 182 1063 q 261 1073 247 1063 q 275 1106 275 1083 l 275 1133 l 351 1133 l 351 1097 q 318 1021 351 1049 q 215 993 285 993 q 111 1021 143 993 q 79 1097 79 1049 l 79 1133 l 156 1133 l 156 1106 z "},"Î":{"ha":431,"x_min":57,"x_max":374,"o":"m 333 0 l 97 0 l 97 83 l 167 83 l 167 819 l 97 819 l 97 903 l 333 903 l 333 819 l 264 819 l 264 83 l 333 83 l 333 0 m 93 969 l 57 1006 l 193 1163 l 238 1163 l 374 1006 l 338 969 l 215 1056 l 93 969 z "},"Ȉ":{"ha":431,"x_min":-8,"x_max":438,"o":"m 333 0 l 97 0 l 97 83 l 167 83 l 167 819 l 97 819 l 97 903 l 333 903 l 333 819 l 264 819 l 264 83 l 333 83 l 333 0 m 256 1058 l 214 1111 l 294 1176 l 438 996 l 404 969 l 256 1058 m 33 1058 l -8 1111 l 72 1176 l 215 996 l 182 969 l 33 1058 z "},"Ï":{"ha":431,"x_min":69,"x_max":361,"o":"m 333 0 l 97 0 l 97 83 l 167 83 l 167 819 l 97 819 l 97 903 l 333 903 l 333 819 l 264 819 l 264 83 l 333 83 l 333 0 m 69 993 l 69 1146 l 167 1146 l 167 993 l 69 993 m 264 993 l 264 1146 l 361 1146 l 361 993 l 264 993 z "},"İ":{"ha":431,"x_min":97,"x_max":333,"o":"m 333 0 l 97 0 l 97 83 l 167 83 l 167 819 l 97 819 l 97 903 l 333 903 l 333 819 l 264 819 l 264 83 l 333 83 l 333 0 m 160 993 l 160 1146 l 271 1146 l 271 993 l 160 993 z "},"Ị":{"ha":431,"x_min":97,"x_max":333,"o":"m 333 0 l 97 0 l 97 83 l 167 83 l 167 819 l 97 819 l 97 903 l 333 903 l 333 819 l 264 819 l 264 83 l 333 83 l 333 0 m 160 -229 l 160 -76 l 271 -76 l 271 -229 l 160 -229 z "},"Ì":{"ha":431,"x_min":92,"x_max":338,"o":"m 333 0 l 97 0 l 97 83 l 167 83 l 167 819 l 97 819 l 97 903 l 333 903 l 333 819 l 264 819 l 264 83 l 333 83 l 333 0 m 92 1101 l 167 1176 l 338 1006 l 301 969 l 144 1049 l 92 1101 z "},"Ỉ":{"ha":431,"x_min":90,"x_max":339,"o":"m 333 0 l 97 0 l 97 83 l 167 83 l 167 819 l 97 819 l 97 903 l 333 903 l 333 819 l 264 819 l 264 83 l 333 83 l 333 0 m 214 1015 q 272 1108 272 1065 l 272 1125 q 215 1168 272 1168 q 157 1125 157 1168 l 157 1083 l 90 1083 l 90 1122 q 120 1199 90 1171 q 215 1228 150 1228 q 310 1199 281 1228 q 339 1122 339 1171 l 339 1108 q 326 1051 339 1082 q 282 993 314 1021 l 254 969 l 214 1015 z "},"Ȋ":{"ha":431,"x_min":79,"x_max":351,"o":"m 333 0 l 97 0 l 97 83 l 167 83 l 167 819 l 97 819 l 97 903 l 333 903 l 333 819 l 264 819 l 264 83 l 333 83 l 333 0 m 275 1021 q 262 1053 275 1043 q 215 1064 249 1064 q 169 1053 183 1064 q 156 1021 156 1043 l 156 993 l 79 993 l 79 1029 q 113 1106 79 1078 q 215 1133 146 1133 q 319 1106 288 1133 q 351 1029 351 1078 l 351 993 l 275 993 l 275 1021 z "},"Ī":{"ha":431,"x_min":65,"x_max":365,"o":"m 333 0 l 97 0 l 97 83 l 167 83 l 167 819 l 97 819 l 97 903 l 333 903 l 333 819 l 264 819 l 264 83 l 333 83 l 333 0 m 65 1111 l 365 1111 l 365 1028 l 65 1028 l 65 1111 z "},"Į":{"ha":431,"x_min":97,"x_max":360,"o":"m 333 0 l 97 0 l 97 83 l 167 83 l 167 819 l 97 819 l 97 903 l 333 903 l 333 819 l 264 819 l 264 83 l 333 83 l 333 0 m 333 0 l 246 -71 q 178 -172 178 -126 l 178 -231 q 235 -274 178 -274 q 293 -231 293 -274 l 293 -189 l 360 -189 l 360 -228 q 330 -304 360 -275 q 235 -333 300 -333 q 141 -304 171 -333 q 111 -228 111 -275 l 111 -172 q 122 -116 111 -144 q 168 -57 133 -87 l 293 50 l 333 0 z "},"Ĩ":{"ha":431,"x_min":51,"x_max":379,"o":"m 333 0 l 97 0 l 97 83 l 167 83 l 167 819 l 97 819 l 97 903 l 333 903 l 333 819 l 264 819 l 264 83 l 333 83 l 333 0 m 322 1015 q 275 1054 308 1054 q 235 1041 253 1054 q 196 1015 217 1028 q 143 1001 175 1001 q 81 1029 107 1001 q 51 1104 56 1057 l 108 1124 q 156 1085 122 1085 q 197 1098 179 1085 q 235 1124 214 1111 q 288 1138 257 1138 q 349 1110 324 1138 q 379 1035 375 1083 l 322 1015 z "},"J":{"ha":528,"x_min":28,"x_max":403,"o":"m 403 903 l 403 160 q 351 24 403 69 q 214 -21 300 -21 q 78 24 128 -21 q 28 160 28 69 l 28 250 l 125 250 l 125 154 q 149 85 125 107 q 214 63 172 63 q 281 85 257 63 q 306 154 306 107 l 306 819 l 125 819 l 125 903 l 403 903 z "},"Ĵ":{"ha":528,"x_min":28,"x_max":429,"o":"m 403 903 l 403 160 q 351 24 403 69 q 214 -21 300 -21 q 78 24 128 -21 q 28 160 28 69 l 28 250 l 125 250 l 125 154 q 149 85 125 107 q 214 63 172 63 q 281 85 257 63 q 306 154 306 107 l 306 819 l 125 819 l 125 903 l 403 903 m 149 969 l 113 1006 l 249 1163 l 293 1163 l 429 1006 l 393 969 l 271 1056 l 149 969 z "},"K":{"ha":632,"x_min":140,"x_max":604,"o":"m 140 0 l 140 903 l 238 903 l 238 519 l 479 903 l 588 903 l 342 514 l 604 0 l 497 0 l 283 421 l 238 347 l 238 0 l 140 0 z "},"Ķ":{"ha":632,"x_min":140,"x_max":604,"o":"m 140 0 l 140 903 l 238 903 l 238 519 l 479 903 l 588 903 l 342 514 l 604 0 l 497 0 l 283 421 l 238 347 l 238 0 l 140 0 m 339 -356 l 294 -347 l 322 -215 l 289 -203 l 289 -76 l 400 -76 l 400 -194 l 339 -356 z "},"L":{"ha":518,"x_min":139,"x_max":490,"o":"m 139 903 l 236 903 l 236 83 l 490 83 l 490 0 l 139 0 l 139 903 z "},"Ǉ":{"ha":1046,"x_min":139,"x_max":921,"o":"m 139 903 l 236 903 l 236 83 l 490 83 l 490 0 l 139 0 l 139 903 m 921 903 l 921 160 q 869 24 921 69 q 732 -21 818 -21 q 596 24 646 -21 q 546 160 546 69 l 546 250 l 643 250 l 643 154 q 667 85 643 107 q 732 63 690 63 q 799 85 775 63 q 824 154 824 107 l 824 819 l 643 819 l 643 903 l 921 903 z "},"Ĺ":{"ha":518,"x_min":64,"x_max":490,"o":"m 139 903 l 236 903 l 236 83 l 490 83 l 490 0 l 139 0 l 139 903 m 257 1049 l 100 969 l 64 1006 l 235 1176 l 310 1101 l 257 1049 z "},"Ľ":{"ha":518,"x_min":139,"x_max":490,"o":"m 139 903 l 236 903 l 236 83 l 490 83 l 490 0 l 139 0 l 139 903 m 478 1014 l 471 939 l 401 778 l 351 782 l 372 1022 l 478 1014 z "},"Ļ":{"ha":518,"x_min":139,"x_max":490,"o":"m 139 903 l 236 903 l 236 83 l 490 83 l 490 0 l 139 0 l 139 903 m 319 -356 l 275 -347 l 303 -215 l 269 -203 l 269 -76 l 381 -76 l 381 -194 l 319 -356 z "},"Ŀ":{"ha":518,"x_min":139,"x_max":518,"o":"m 139 903 l 236 903 l 236 83 l 490 83 l 490 0 l 139 0 l 139 903 m 393 375 l 393 528 l 518 528 l 518 375 l 393 375 z "},"ǈ":{"ha":1046,"x_min":139,"x_max":921,"o":"m 139 903 l 236 903 l 236 83 l 490 83 l 490 0 l 139 0 l 139 903 m 921 903 l 921 160 q 869 24 921 69 q 732 -21 818 -21 q 596 24 646 -21 q 546 160 546 69 l 546 250 l 643 250 l 643 154 q 667 85 643 107 q 732 63 690 63 q 799 85 775 63 q 824 154 824 107 l 824 903 l 921 903 z "},"Ł":{"ha":518,"x_min":47,"x_max":490,"o":"m 139 903 l 236 903 l 236 83 l 490 83 l 490 0 l 139 0 l 139 903 m 47 394 l 393 571 l 425 508 l 79 332 l 47 394 z "},"M":{"ha":888,"x_min":139,"x_max":749,"o":"m 139 0 l 139 903 l 275 903 l 444 293 l 613 903 l 749 903 l 749 0 l 651 0 l 651 747 l 489 167 l 399 167 l 236 747 l 236 0 l 139 0 z "},"N":{"ha":774,"x_min":139,"x_max":635,"o":"m 139 0 l 139 903 l 232 903 l 538 208 l 538 903 l 635 903 l 635 0 l 542 0 l 236 694 l 236 0 l 139 0 z "},"Ǌ":{"ha":1301,"x_min":139,"x_max":1176,"o":"m 139 0 l 139 903 l 232 903 l 538 208 l 538 903 l 635 903 l 635 0 l 542 0 l 236 694 l 236 0 l 139 0 m 1176 903 l 1176 160 q 1125 24 1176 69 q 988 -21 1074 -21 q 851 24 901 -21 q 801 160 801 69 l 801 250 l 899 250 l 899 154 q 922 85 899 107 q 988 63 946 63 q 1055 85 1031 63 q 1079 154 1079 107 l 1079 819 l 899 819 l 899 903 l 1176 903 z "},"Ń":{"ha":774,"x_min":139,"x_max":635,"o":"m 139 0 l 139 903 l 232 903 l 538 208 l 538 903 l 635 903 l 635 0 l 542 0 l 236 694 l 236 0 l 139 0 m 457 1049 l 300 969 l 264 1006 l 435 1176 l 510 1101 l 457 1049 z "},"Ň":{"ha":774,"x_min":139,"x_max":635,"o":"m 139 0 l 139 903 l 232 903 l 538 208 l 538 903 l 635 903 l 635 0 l 542 0 l 236 694 l 236 0 l 139 0 m 510 1163 l 546 1126 l 410 969 l 365 969 l 229 1126 l 265 1163 l 388 1076 l 510 1163 z "},"Ņ":{"ha":774,"x_min":139,"x_max":635,"o":"m 139 0 l 139 903 l 232 903 l 538 208 l 538 903 l 635 903 l 635 0 l 542 0 l 236 694 l 236 0 l 139 0 m 382 -356 l 338 -347 l 365 -215 l 332 -203 l 332 -76 l 443 -76 l 443 -194 l 382 -356 z "},"ǋ":{"ha":1301,"x_min":139,"x_max":1176,"o":"m 139 0 l 139 903 l 232 903 l 538 208 l 538 903 l 635 903 l 635 0 l 542 0 l 236 694 l 236 0 l 139 0 m 1176 903 l 1176 160 q 1125 24 1176 69 q 988 -21 1074 -21 q 851 24 901 -21 q 801 160 801 69 l 801 250 l 899 250 l 899 154 q 922 85 899 107 q 988 63 946 63 q 1055 85 1031 63 q 1079 154 1079 107 l 1079 903 l 1176 903 z "},"Ñ":{"ha":774,"x_min":139,"x_max":635,"o":"m 139 0 l 139 903 l 232 903 l 538 208 l 538 903 l 635 903 l 635 0 l 542 0 l 236 694 l 236 0 l 139 0 m 494 1015 q 447 1054 481 1054 q 407 1041 425 1054 q 368 1015 389 1028 q 315 1001 347 1001 q 253 1029 279 1001 q 224 1104 228 1057 l 281 1124 q 328 1085 294 1085 q 369 1098 351 1085 q 408 1124 386 1111 q 460 1138 429 1138 q 522 1110 496 1138 q 551 1035 547 1083 l 494 1015 z "},"Ŋ":{"ha":774,"x_min":139,"x_max":635,"o":"m 139 0 l 139 903 l 233 903 l 538 203 l 538 903 l 635 903 l 635 -187 q 583 -323 635 -278 q 446 -368 532 -368 q 310 -323 360 -368 q 260 -187 260 -278 l 260 -153 l 357 -153 l 357 -193 q 381 -262 357 -240 q 446 -285 404 -285 q 513 -262 489 -285 q 538 -193 538 -240 l 538 0 l 236 693 l 236 0 l 139 0 z "},"O":{"ha":708,"x_min":118,"x_max":590,"o":"m 590 174 q 533 31 590 83 q 356 -21 475 -21 q 177 31 236 -21 q 118 174 118 83 l 118 729 q 176 872 118 819 q 353 924 233 924 q 531 872 472 924 q 590 729 590 819 l 590 174 m 493 729 q 458 811 493 782 q 353 840 424 840 q 249 811 283 840 q 215 729 215 782 l 215 174 q 250 92 215 122 q 356 63 285 63 q 459 92 425 63 q 493 174 493 121 l 493 729 z "},"Ó":{"ha":708,"x_min":118,"x_max":590,"o":"m 590 174 q 533 31 590 83 q 356 -21 475 -21 q 177 31 236 -21 q 118 174 118 83 l 118 729 q 176 872 118 819 q 353 924 233 924 q 531 872 472 924 q 590 729 590 819 l 590 174 m 493 729 q 458 811 493 782 q 353 840 424 840 q 249 811 283 840 q 215 729 215 782 l 215 174 q 250 92 215 122 q 356 63 285 63 q 459 92 425 63 q 493 174 493 121 l 493 729 m 424 1049 l 267 969 l 231 1006 l 401 1176 l 476 1101 l 424 1049 z "},"Ŏ":{"ha":708,"x_min":118,"x_max":590,"o":"m 590 174 q 533 31 590 83 q 356 -21 475 -21 q 177 31 236 -21 q 118 174 118 83 l 118 729 q 176 872 118 819 q 353 924 233 924 q 531 872 472 924 q 590 729 590 819 l 590 174 m 493 729 q 458 811 493 782 q 353 840 424 840 q 249 811 283 840 q 215 729 215 782 l 215 174 q 250 92 215 122 q 356 63 285 63 q 459 92 425 63 q 493 174 493 121 l 493 729 m 294 1106 q 308 1073 294 1083 q 354 1063 321 1063 q 400 1073 386 1063 q 414 1106 414 1083 l 414 1133 l 490 1133 l 490 1097 q 457 1021 490 1049 q 354 993 424 993 q 250 1021 282 993 q 218 1097 218 1049 l 218 1133 l 294 1133 l 294 1106 z "},"Ô":{"ha":708,"x_min":118,"x_max":590,"o":"m 590 174 q 533 31 590 83 q 356 -21 475 -21 q 177 31 236 -21 q 118 174 118 83 l 118 729 q 176 872 118 819 q 353 924 233 924 q 531 872 472 924 q 590 729 590 819 l 590 174 m 493 729 q 458 811 493 782 q 353 840 424 840 q 249 811 283 840 q 215 729 215 782 l 215 174 q 250 92 215 122 q 356 63 285 63 q 459 92 425 63 q 493 174 493 121 l 493 729 m 232 969 l 196 1006 l 332 1163 l 376 1163 l 513 1006 l 476 969 l 354 1056 l 232 969 z "},"Ố":{"ha":708,"x_min":118,"x_max":590,"o":"m 590 174 q 533 31 590 83 q 356 -21 475 -21 q 177 31 236 -21 q 118 174 118 83 l 118 729 q 176 872 118 819 q 353 924 233 924 q 531 872 472 924 q 590 729 590 819 l 590 174 m 493 729 q 458 811 493 782 q 353 840 424 840 q 249 811 283 840 q 215 729 215 782 l 215 174 q 250 92 215 122 q 356 63 285 63 q 459 92 425 63 q 493 174 493 121 l 493 729 m 232 969 l 196 1006 l 332 1163 l 376 1163 l 513 1006 l 476 969 l 354 1056 l 232 969 m 424 1267 l 267 1188 l 231 1224 l 401 1394 l 476 1319 l 424 1267 z "},"Ộ":{"ha":708,"x_min":118,"x_max":590,"o":"m 590 174 q 533 31 590 83 q 356 -21 475 -21 q 177 31 236 -21 q 118 174 118 83 l 118 729 q 176 872 118 819 q 353 924 233 924 q 531 872 472 924 q 590 729 590 819 l 590 174 m 493 729 q 458 811 493 782 q 353 840 424 840 q 249 811 283 840 q 215 729 215 782 l 215 174 q 250 92 215 122 q 356 63 285 63 q 459 92 425 63 q 493 174 493 121 l 493 729 m 232 969 l 196 1006 l 332 1163 l 376 1163 l 513 1006 l 476 969 l 354 1056 l 232 969 m 299 -229 l 299 -76 l 410 -76 l 410 -229 l 299 -229 z "},"Ồ":{"ha":708,"x_min":118,"x_max":590,"o":"m 590 174 q 533 31 590 83 q 356 -21 475 -21 q 177 31 236 -21 q 118 174 118 83 l 118 729 q 176 872 118 819 q 353 924 233 924 q 531 872 472 924 q 590 729 590 819 l 590 174 m 493 729 q 458 811 493 782 q 353 840 424 840 q 249 811 283 840 q 215 729 215 782 l 215 174 q 250 92 215 122 q 356 63 285 63 q 459 92 425 63 q 493 174 493 121 l 493 729 m 232 969 l 196 1006 l 332 1163 l 376 1163 l 513 1006 l 476 969 l 354 1056 l 232 969 m 231 1319 l 306 1394 l 476 1224 l 440 1188 l 283 1267 l 231 1319 z "},"Ổ":{"ha":708,"x_min":118,"x_max":590,"o":"m 590 174 q 533 31 590 83 q 356 -21 475 -21 q 177 31 236 -21 q 118 174 118 83 l 118 729 q 176 872 118 819 q 353 924 233 924 q 531 872 472 924 q 590 729 590 819 l 590 174 m 493 729 q 458 811 493 782 q 353 840 424 840 q 249 811 283 840 q 215 729 215 782 l 215 174 q 250 92 215 122 q 356 63 285 63 q 459 92 425 63 q 493 174 493 121 l 493 729 m 232 969 l 196 1006 l 332 1163 l 376 1163 l 513 1006 l 476 969 l 354 1056 l 232 969 m 353 1233 q 411 1326 411 1283 l 411 1343 q 354 1386 411 1386 q 296 1343 296 1386 l 296 1301 l 229 1301 l 229 1340 q 259 1417 229 1389 q 354 1446 289 1446 q 449 1417 419 1446 q 478 1340 478 1389 l 478 1326 q 465 1269 478 1300 q 421 1211 453 1239 l 393 1188 l 353 1233 z "},"Ỗ":{"ha":708,"x_min":118,"x_max":590,"o":"m 590 174 q 533 31 590 83 q 356 -21 475 -21 q 177 31 236 -21 q 118 174 118 83 l 118 729 q 176 872 118 819 q 353 924 233 924 q 531 872 472 924 q 590 729 590 819 l 590 174 m 493 729 q 458 811 493 782 q 353 840 424 840 q 249 811 283 840 q 215 729 215 782 l 215 174 q 250 92 215 122 q 356 63 285 63 q 459 92 425 63 q 493 174 493 121 l 493 729 m 232 969 l 196 1006 l 332 1163 l 376 1163 l 513 1006 l 476 969 l 354 1056 l 232 969 m 461 1233 q 414 1272 447 1272 q 374 1259 392 1272 q 335 1233 356 1246 q 282 1219 314 1219 q 220 1247 246 1219 q 190 1322 194 1275 l 247 1342 q 294 1303 261 1303 q 335 1316 318 1303 q 374 1342 353 1329 q 426 1356 396 1356 q 488 1328 463 1356 q 518 1253 514 1301 l 461 1233 z "},"Ȍ":{"ha":708,"x_min":118,"x_max":590,"o":"m 590 174 q 533 31 590 83 q 356 -21 475 -21 q 177 31 236 -21 q 118 174 118 83 l 118 729 q 176 872 118 819 q 353 924 233 924 q 531 872 472 924 q 590 729 590 819 l 590 174 m 493 729 q 458 811 493 782 q 353 840 424 840 q 249 811 283 840 q 215 729 215 782 l 215 174 q 250 92 215 122 q 356 63 285 63 q 459 92 425 63 q 493 174 493 121 l 493 729 m 394 1058 l 353 1111 l 433 1176 l 576 996 l 543 969 l 394 1058 m 172 1058 l 131 1111 l 211 1176 l 354 996 l 321 969 l 172 1058 z "},"Ö":{"ha":708,"x_min":118,"x_max":590,"o":"m 590 174 q 533 31 590 83 q 356 -21 475 -21 q 177 31 236 -21 q 118 174 118 83 l 118 729 q 176 872 118 819 q 353 924 233 924 q 531 872 472 924 q 590 729 590 819 l 590 174 m 493 729 q 458 811 493 782 q 353 840 424 840 q 249 811 283 840 q 215 729 215 782 l 215 174 q 250 92 215 122 q 356 63 285 63 q 459 92 425 63 q 493 174 493 121 l 493 729 m 208 993 l 208 1146 l 306 1146 l 306 993 l 208 993 m 403 993 l 403 1146 l 500 1146 l 500 993 l 403 993 z "},"Ȫ":{"ha":708,"x_min":118,"x_max":590,"o":"m 590 174 q 533 31 590 83 q 356 -21 475 -21 q 177 31 236 -21 q 118 174 118 83 l 118 729 q 176 872 118 819 q 353 924 233 924 q 531 872 472 924 q 590 729 590 819 l 590 174 m 493 729 q 458 811 493 782 q 353 840 424 840 q 249 811 283 840 q 215 729 215 782 l 215 174 q 250 92 215 122 q 356 63 285 63 q 459 92 425 63 q 493 174 493 121 l 493 729 m 208 993 l 208 1146 l 306 1146 l 306 993 l 208 993 m 403 993 l 403 1146 l 500 1146 l 500 993 l 403 993 m 204 1354 l 504 1354 l 504 1271 l 204 1271 l 204 1354 z "},"Ȱ":{"ha":708,"x_min":118,"x_max":590,"o":"m 590 174 q 533 31 590 83 q 356 -21 475 -21 q 177 31 236 -21 q 118 174 118 83 l 118 729 q 176 872 118 819 q 353 924 233 924 q 531 872 472 924 q 590 729 590 819 l 590 174 m 493 729 q 458 811 493 782 q 353 840 424 840 q 249 811 283 840 q 215 729 215 782 l 215 174 q 250 92 215 122 q 356 63 285 63 q 459 92 425 63 q 493 174 493 121 l 493 729 m 299 993 l 299 1146 l 410 1146 l 410 993 l 299 993 m 204 1354 l 504 1354 l 504 1271 l 204 1271 l 204 1354 z "},"Ọ":{"ha":708,"x_min":118,"x_max":590,"o":"m 590 174 q 533 31 590 83 q 356 -21 475 -21 q 177 31 236 -21 q 118 174 118 83 l 118 729 q 176 872 118 819 q 353 924 233 924 q 531 872 472 924 q 590 729 590 819 l 590 174 m 493 729 q 458 811 493 782 q 353 840 424 840 q 249 811 283 840 q 215 729 215 782 l 215 174 q 250 92 215 122 q 356 63 285 63 q 459 92 425 63 q 493 174 493 121 l 493 729 m 299 -229 l 299 -76 l 410 -76 l 410 -229 l 299 -229 z "},"Ò":{"ha":708,"x_min":118,"x_max":590,"o":"m 590 174 q 533 31 590 83 q 356 -21 475 -21 q 177 31 236 -21 q 118 174 118 83 l 118 729 q 176 872 118 819 q 353 924 233 924 q 531 872 472 924 q 590 729 590 819 l 590 174 m 493 729 q 458 811 493 782 q 353 840 424 840 q 249 811 283 840 q 215 729 215 782 l 215 174 q 250 92 215 122 q 356 63 285 63 q 459 92 425 63 q 493 174 493 121 l 493 729 m 231 1101 l 306 1176 l 476 1006 l 440 969 l 283 1049 l 231 1101 z "},"Ỏ":{"ha":708,"x_min":118,"x_max":590,"o":"m 590 174 q 533 31 590 83 q 356 -21 475 -21 q 177 31 236 -21 q 118 174 118 83 l 118 729 q 176 872 118 819 q 353 924 233 924 q 531 872 472 924 q 590 729 590 819 l 590 174 m 493 729 q 458 811 493 782 q 353 840 424 840 q 249 811 283 840 q 215 729 215 782 l 215 174 q 250 92 215 122 q 356 63 285 63 q 459 92 425 63 q 493 174 493 121 l 493 729 m 353 1015 q 411 1108 411 1065 l 411 1125 q 354 1168 411 1168 q 296 1125 296 1168 l 296 1083 l 229 1083 l 229 1122 q 259 1199 229 1171 q 354 1228 289 1228 q 449 1199 419 1228 q 478 1122 478 1171 l 478 1108 q 465 1051 478 1082 q 421 993 453 1021 l 393 969 l 353 1015 z "},"Ơ":{"ha":708,"x_min":118,"x_max":669,"o":"m 590 174 q 533 31 590 83 q 356 -21 475 -21 q 177 31 236 -21 q 118 174 118 83 l 118 729 q 176 872 118 819 q 353 924 233 924 q 531 872 472 924 q 590 729 590 819 l 590 174 m 493 729 q 458 811 493 782 q 353 840 424 840 q 249 811 283 840 q 215 729 215 782 l 215 174 q 250 92 215 122 q 356 63 285 63 q 459 92 425 63 q 493 174 493 121 l 493 729 m 533 903 q 579 913 565 903 q 593 946 593 924 l 593 1015 l 669 1015 l 669 938 q 636 861 669 889 q 533 833 603 833 l 471 833 l 471 903 l 533 903 z "},"Ớ":{"ha":708,"x_min":118,"x_max":669,"o":"m 590 174 q 533 31 590 83 q 356 -21 475 -21 q 177 31 236 -21 q 118 174 118 83 l 118 729 q 176 872 118 819 q 353 924 233 924 q 531 872 472 924 q 590 729 590 819 l 590 174 m 493 729 q 458 811 493 782 q 353 840 424 840 q 249 811 283 840 q 215 729 215 782 l 215 174 q 250 92 215 122 q 356 63 285 63 q 459 92 425 63 q 493 174 493 121 l 493 729 m 533 903 q 579 913 565 903 q 593 946 593 924 l 593 1015 l 669 1015 l 669 938 q 636 861 669 889 q 533 833 603 833 l 471 833 l 471 903 l 533 903 m 424 1049 l 267 969 l 231 1006 l 401 1176 l 476 1101 l 424 1049 z "},"Ợ":{"ha":708,"x_min":118,"x_max":669,"o":"m 590 174 q 533 31 590 83 q 356 -21 475 -21 q 177 31 236 -21 q 118 174 118 83 l 118 729 q 176 872 118 819 q 353 924 233 924 q 531 872 472 924 q 590 729 590 819 l 590 174 m 493 729 q 458 811 493 782 q 353 840 424 840 q 249 811 283 840 q 215 729 215 782 l 215 174 q 250 92 215 122 q 356 63 285 63 q 459 92 425 63 q 493 174 493 121 l 493 729 m 533 903 q 579 913 565 903 q 593 946 593 924 l 593 1015 l 669 1015 l 669 938 q 636 861 669 889 q 533 833 603 833 l 471 833 l 471 903 l 533 903 m 299 -229 l 299 -76 l 410 -76 l 410 -229 l 299 -229 z "},"Ờ":{"ha":708,"x_min":118,"x_max":669,"o":"m 590 174 q 533 31 590 83 q 356 -21 475 -21 q 177 31 236 -21 q 118 174 118 83 l 118 729 q 176 872 118 819 q 353 924 233 924 q 531 872 472 924 q 590 729 590 819 l 590 174 m 493 729 q 458 811 493 782 q 353 840 424 840 q 249 811 283 840 q 215 729 215 782 l 215 174 q 250 92 215 122 q 356 63 285 63 q 459 92 425 63 q 493 174 493 121 l 493 729 m 533 903 q 579 913 565 903 q 593 946 593 924 l 593 1015 l 669 1015 l 669 938 q 636 861 669 889 q 533 833 603 833 l 471 833 l 471 903 l 533 903 m 231 1101 l 306 1176 l 476 1006 l 440 969 l 283 1049 l 231 1101 z "},"Ở":{"ha":708,"x_min":118,"x_max":669,"o":"m 590 174 q 533 31 590 83 q 356 -21 475 -21 q 177 31 236 -21 q 118 174 118 83 l 118 729 q 176 872 118 819 q 353 924 233 924 q 531 872 472 924 q 590 729 590 819 l 590 174 m 493 729 q 458 811 493 782 q 353 840 424 840 q 249 811 283 840 q 215 729 215 782 l 215 174 q 250 92 215 122 q 356 63 285 63 q 459 92 425 63 q 493 174 493 121 l 493 729 m 533 903 q 579 913 565 903 q 593 946 593 924 l 593 1015 l 669 1015 l 669 938 q 636 861 669 889 q 533 833 603 833 l 471 833 l 471 903 l 533 903 m 353 1015 q 411 1108 411 1065 l 411 1125 q 354 1168 411 1168 q 296 1125 296 1168 l 296 1083 l 229 1083 l 229 1122 q 259 1199 229 1171 q 354 1228 289 1228 q 449 1199 419 1228 q 478 1122 478 1171 l 478 1108 q 465 1051 478 1082 q 421 993 453 1021 l 393 969 l 353 1015 z "},"Ỡ":{"ha":708,"x_min":118,"x_max":669,"o":"m 590 174 q 533 31 590 83 q 356 -21 475 -21 q 177 31 236 -21 q 118 174 118 83 l 118 729 q 176 872 118 819 q 353 924 233 924 q 531 872 472 924 q 590 729 590 819 l 590 174 m 493 729 q 458 811 493 782 q 353 840 424 840 q 249 811 283 840 q 215 729 215 782 l 215 174 q 250 92 215 122 q 356 63 285 63 q 459 92 425 63 q 493 174 493 121 l 493 729 m 533 903 q 579 913 565 903 q 593 946 593 924 l 593 1015 l 669 1015 l 669 938 q 636 861 669 889 q 533 833 603 833 l 471 833 l 471 903 l 533 903 m 461 1015 q 414 1054 447 1054 q 374 1041 392 1054 q 335 1015 356 1028 q 282 1001 314 1001 q 220 1029 246 1001 q 190 1104 194 1057 l 247 1124 q 294 1085 261 1085 q 335 1098 318 1085 q 374 1124 353 1111 q 426 1138 396 1138 q 488 1110 463 1138 q 518 1035 514 1083 l 461 1015 z "},"Ő":{"ha":708,"x_min":118,"x_max":590,"o":"m 590 174 q 533 31 590 83 q 356 -21 475 -21 q 177 31 236 -21 q 118 174 118 83 l 118 729 q 176 872 118 819 q 353 924 233 924 q 531 872 472 924 q 590 729 590 819 l 590 174 m 493 729 q 458 811 493 782 q 353 840 424 840 q 249 811 283 840 q 215 729 215 782 l 215 174 q 250 92 215 122 q 356 63 285 63 q 459 92 425 63 q 493 174 493 121 l 493 729 m 322 1058 l 174 969 l 140 996 l 283 1176 l 364 1111 l 322 1058 m 544 1058 l 396 969 l 363 996 l 506 1176 l 586 1111 l 544 1058 z "},"Ȏ":{"ha":708,"x_min":118,"x_max":590,"o":"m 590 174 q 533 31 590 83 q 356 -21 475 -21 q 177 31 236 -21 q 118 174 118 83 l 118 729 q 176 872 118 819 q 353 924 233 924 q 531 872 472 924 q 590 729 590 819 l 590 174 m 493 729 q 458 811 493 782 q 353 840 424 840 q 249 811 283 840 q 215 729 215 782 l 215 174 q 250 92 215 122 q 356 63 285 63 q 459 92 425 63 q 493 174 493 121 l 493 729 m 414 1021 q 401 1053 414 1043 q 354 1064 388 1064 q 308 1053 322 1064 q 294 1021 294 1043 l 294 993 l 218 993 l 218 1029 q 251 1106 218 1078 q 354 1133 285 1133 q 458 1106 426 1133 q 490 1029 490 1078 l 490 993 l 414 993 l 414 1021 z "},"Ō":{"ha":708,"x_min":118,"x_max":590,"o":"m 590 174 q 533 31 590 83 q 356 -21 475 -21 q 177 31 236 -21 q 118 174 118 83 l 118 729 q 176 872 118 819 q 353 924 233 924 q 531 872 472 924 q 590 729 590 819 l 590 174 m 493 729 q 458 811 493 782 q 353 840 424 840 q 249 811 283 840 q 215 729 215 782 l 215 174 q 250 92 215 122 q 356 63 285 63 q 459 92 425 63 q 493 174 493 121 l 493 729 m 204 1111 l 504 1111 l 504 1028 l 204 1028 l 204 1111 z "},"Ǫ":{"ha":708,"x_min":118,"x_max":590,"o":"m 590 174 q 533 31 590 83 q 356 -21 475 -21 q 177 31 236 -21 q 118 174 118 83 l 118 729 q 176 872 118 819 q 353 924 233 924 q 531 872 472 924 q 590 729 590 819 l 590 174 m 493 729 q 458 811 493 782 q 353 840 424 840 q 249 811 283 840 q 215 729 215 782 l 215 174 q 250 92 215 122 q 356 63 285 63 q 459 92 425 63 q 493 174 493 121 l 493 729 m 461 0 l 374 -71 q 306 -172 306 -126 l 306 -231 q 363 -274 306 -274 q 421 -231 421 -274 l 421 -189 l 488 -189 l 488 -228 q 458 -304 488 -275 q 363 -333 428 -333 q 269 -304 299 -333 q 239 -228 239 -275 l 239 -172 q 250 -116 239 -144 q 296 -57 261 -87 l 421 50 l 461 0 z "},"Ø":{"ha":708,"x_min":118,"x_max":590,"o":"m 590 174 q 533 31 590 83 q 356 -21 475 -21 q 177 31 236 -21 q 118 174 118 83 l 118 729 q 176 872 118 819 q 353 924 233 924 q 531 872 472 924 q 590 729 590 819 l 590 174 m 493 729 q 458 811 493 782 q 353 840 424 840 q 249 811 283 840 q 215 729 215 782 l 215 174 q 250 92 215 122 q 356 63 285 63 q 459 92 425 63 q 493 174 493 121 l 493 729 m 201 -83 l 444 986 l 507 986 l 264 -83 l 201 -83 z "},"Ǿ":{"ha":708,"x_min":118,"x_max":590,"o":"m 590 174 q 533 31 590 83 q 356 -21 475 -21 q 177 31 236 -21 q 118 174 118 83 l 118 729 q 176 872 118 819 q 353 924 233 924 q 531 872 472 924 q 590 729 590 819 l 590 174 m 493 729 q 458 811 493 782 q 353 840 424 840 q 249 811 283 840 q 215 729 215 782 l 215 174 q 250 92 215 122 q 356 63 285 63 q 459 92 425 63 q 493 174 493 121 l 493 729 m 201 -83 l 444 986 l 507 986 l 264 -83 l 201 -83 m 424 1049 l 267 969 l 231 1006 l 401 1176 l 476 1101 l 424 1049 z "},"Õ":{"ha":708,"x_min":118,"x_max":590,"o":"m 590 174 q 533 31 590 83 q 356 -21 475 -21 q 177 31 236 -21 q 118 174 118 83 l 118 729 q 176 872 118 819 q 353 924 233 924 q 531 872 472 924 q 590 729 590 819 l 590 174 m 493 729 q 458 811 493 782 q 353 840 424 840 q 249 811 283 840 q 215 729 215 782 l 215 174 q 250 92 215 122 q 356 63 285 63 q 459 92 425 63 q 493 174 493 121 l 493 729 m 461 1015 q 414 1054 447 1054 q 374 1041 392 1054 q 335 1015 356 1028 q 282 1001 314 1001 q 220 1029 246 1001 q 190 1104 194 1057 l 247 1124 q 294 1085 261 1085 q 335 1098 318 1085 q 374 1124 353 1111 q 426 1138 396 1138 q 488 1110 463 1138 q 518 1035 514 1083 l 461 1015 z "},"Ȭ":{"ha":708,"x_min":118,"x_max":590,"o":"m 590 174 q 533 31 590 83 q 356 -21 475 -21 q 177 31 236 -21 q 118 174 118 83 l 118 729 q 176 872 118 819 q 353 924 233 924 q 531 872 472 924 q 590 729 590 819 l 590 174 m 493 729 q 458 811 493 782 q 353 840 424 840 q 249 811 283 840 q 215 729 215 782 l 215 174 q 250 92 215 122 q 356 63 285 63 q 459 92 425 63 q 493 174 493 121 l 493 729 m 461 1015 q 414 1054 447 1054 q 374 1041 392 1054 q 335 1015 356 1028 q 282 1001 314 1001 q 220 1029 246 1001 q 190 1104 194 1057 l 247 1124 q 294 1085 261 1085 q 335 1098 318 1085 q 374 1124 353 1111 q 426 1138 396 1138 q 488 1110 463 1138 q 518 1035 514 1083 l 461 1015 m 204 1346 l 504 1346 l 504 1263 l 204 1263 l 204 1346 z "},"Œ":{"ha":972,"x_min":118,"x_max":903,"o":"m 590 500 l 833 500 l 833 417 l 590 417 l 590 174 q 571 83 590 122 l 903 83 l 903 0 l 481 0 q 356 -21 431 -21 q 177 31 236 -21 q 118 174 118 83 l 118 729 q 176 872 118 819 q 353 924 233 924 q 479 903 428 924 l 889 903 l 889 819 l 571 819 q 590 729 590 778 l 590 500 m 493 729 q 458 811 493 782 q 353 840 424 840 q 249 811 283 840 q 215 729 215 782 l 215 174 q 250 92 215 122 q 356 63 285 63 q 459 92 425 63 q 493 174 493 121 l 493 729 z "},"P":{"ha":653,"x_min":139,"x_max":569,"o":"m 139 0 l 139 903 l 349 903 q 515 851 460 903 q 569 708 569 799 l 569 472 q 515 330 569 382 q 349 278 461 278 l 236 278 l 236 0 l 139 0 m 472 708 q 441 790 472 760 q 349 819 410 819 l 236 819 l 236 361 l 349 361 q 442 391 411 361 q 472 472 472 421 l 472 708 z "},"Þ":{"ha":653,"x_min":139,"x_max":569,"o":"m 139 0 l 139 903 l 236 903 l 236 764 l 349 764 q 515 712 460 764 q 569 569 569 660 l 569 333 q 515 191 569 243 q 349 139 461 139 l 236 139 l 236 0 l 139 0 m 472 569 q 441 651 472 621 q 349 681 410 681 l 236 681 l 236 222 l 349 222 q 442 252 411 222 q 472 333 472 282 l 472 569 z "},"Q":{"ha":708,"x_min":118,"x_max":590,"o":"m 590 174 q 544 43 590 93 q 403 -18 497 -7 l 444 -197 l 361 -197 l 319 -19 q 168 39 218 -11 q 118 174 118 89 l 118 729 q 176 872 118 819 q 353 924 233 924 q 531 872 472 924 q 590 729 590 819 l 590 174 m 493 729 q 458 811 493 782 q 353 840 424 840 q 249 811 283 840 q 215 729 215 782 l 215 174 q 250 92 215 122 q 356 63 285 63 q 459 92 425 63 q 493 174 493 121 l 493 729 z "},"R":{"ha":674,"x_min":139,"x_max":618,"o":"m 139 0 l 139 903 l 349 903 q 515 851 460 903 q 569 708 569 799 l 569 514 q 539 399 569 446 q 447 333 508 353 l 618 0 l 511 0 l 349 319 l 236 319 l 236 0 l 139 0 m 472 708 q 441 790 472 760 q 349 819 410 819 l 236 819 l 236 403 l 349 403 q 442 433 411 403 q 472 514 472 463 l 472 708 z "},"Ŕ":{"ha":674,"x_min":139,"x_max":618,"o":"m 139 0 l 139 903 l 349 903 q 515 851 460 903 q 569 708 569 799 l 569 514 q 539 399 569 446 q 447 333 508 353 l 618 0 l 511 0 l 349 319 l 236 319 l 236 0 l 139 0 m 472 708 q 441 790 472 760 q 349 819 410 819 l 236 819 l 236 403 l 349 403 q 442 433 411 403 q 472 514 472 463 l 472 708 m 407 1049 l 250 969 l 214 1006 l 385 1176 l 460 1101 l 407 1049 z "},"Ř":{"ha":674,"x_min":139,"x_max":618,"o":"m 139 0 l 139 903 l 349 903 q 515 851 460 903 q 569 708 569 799 l 569 514 q 539 399 569 446 q 447 333 508 353 l 618 0 l 511 0 l 349 319 l 236 319 l 236 0 l 139 0 m 472 708 q 441 790 472 760 q 349 819 410 819 l 236 819 l 236 403 l 349 403 q 442 433 411 403 q 472 514 472 463 l 472 708 m 460 1163 l 496 1126 l 360 969 l 315 969 l 179 1126 l 215 1163 l 338 1076 l 460 1163 z "},"Ŗ":{"ha":674,"x_min":139,"x_max":618,"o":"m 139 0 l 139 903 l 349 903 q 515 851 460 903 q 569 708 569 799 l 569 514 q 539 399 569 446 q 447 333 508 353 l 618 0 l 511 0 l 349 319 l 236 319 l 236 0 l 139 0 m 472 708 q 441 790 472 760 q 349 819 410 819 l 236 819 l 236 403 l 349 403 q 442 433 411 403 q 472 514 472 463 l 472 708 m 360 -356 l 315 -347 l 343 -215 l 310 -203 l 310 -76 l 421 -76 l 421 -194 l 360 -356 z "},"Ȑ":{"ha":674,"x_min":114,"x_max":618,"o":"m 139 0 l 139 903 l 349 903 q 515 851 460 903 q 569 708 569 799 l 569 514 q 539 399 569 446 q 447 333 508 353 l 618 0 l 511 0 l 349 319 l 236 319 l 236 0 l 139 0 m 472 708 q 441 790 472 760 q 349 819 410 819 l 236 819 l 236 403 l 349 403 q 442 433 411 403 q 472 514 472 463 l 472 708 m 378 1058 l 336 1111 l 417 1176 l 560 996 l 526 969 l 378 1058 m 156 1058 l 114 1111 l 194 1176 l 338 996 l 304 969 l 156 1058 z "},"Ȓ":{"ha":674,"x_min":139,"x_max":618,"o":"m 139 0 l 139 903 l 349 903 q 515 851 460 903 q 569 708 569 799 l 569 514 q 539 399 569 446 q 447 333 508 353 l 618 0 l 511 0 l 349 319 l 236 319 l 236 0 l 139 0 m 472 708 q 441 790 472 760 q 349 819 410 819 l 236 819 l 236 403 l 349 403 q 442 433 411 403 q 472 514 472 463 l 472 708 m 397 1021 q 384 1053 397 1043 q 338 1064 371 1064 q 292 1053 306 1064 q 278 1021 278 1043 l 278 993 l 201 993 l 201 1029 q 235 1106 201 1078 q 338 1133 268 1133 q 442 1106 410 1133 q 474 1029 474 1078 l 474 993 l 397 993 l 397 1021 z "},"S":{"ha":692,"x_min":111,"x_max":581,"o":"m 510 363 q 566 276 551 318 q 581 174 581 235 q 525 31 581 83 q 346 -21 469 -21 q 167 31 224 -21 q 111 174 111 83 l 111 292 l 208 292 l 208 168 q 242 92 208 121 q 346 63 276 63 q 449 92 415 63 q 483 168 483 121 q 474 240 483 211 q 431 303 465 269 l 186 542 q 127 628 143 586 q 111 729 111 669 q 168 872 111 819 q 343 924 225 924 q 513 872 460 924 q 567 729 567 819 l 567 611 l 469 611 l 469 735 q 438 812 469 783 q 339 840 406 840 q 240 812 272 840 q 208 735 208 783 q 217 663 208 692 q 261 601 226 633 l 510 363 z "},"Ś":{"ha":692,"x_min":111,"x_max":581,"o":"m 510 363 q 566 276 551 318 q 581 174 581 235 q 525 31 581 83 q 346 -21 469 -21 q 167 31 224 -21 q 111 174 111 83 l 111 292 l 208 292 l 208 168 q 242 92 208 121 q 346 63 276 63 q 449 92 415 63 q 483 168 483 121 q 474 240 483 211 q 431 303 465 269 l 186 542 q 127 628 143 586 q 111 729 111 669 q 168 872 111 819 q 343 924 225 924 q 513 872 460 924 q 567 729 567 819 l 567 611 l 469 611 l 469 735 q 438 812 469 783 q 339 840 406 840 q 240 812 272 840 q 208 735 208 783 q 217 663 208 692 q 261 601 226 633 l 510 363 m 415 1049 l 258 969 l 222 1006 l 393 1176 l 468 1101 l 415 1049 z "},"Š":{"ha":692,"x_min":111,"x_max":581,"o":"m 510 363 q 566 276 551 318 q 581 174 581 235 q 525 31 581 83 q 346 -21 469 -21 q 167 31 224 -21 q 111 174 111 83 l 111 292 l 208 292 l 208 168 q 242 92 208 121 q 346 63 276 63 q 449 92 415 63 q 483 168 483 121 q 474 240 483 211 q 431 303 465 269 l 186 542 q 127 628 143 586 q 111 729 111 669 q 168 872 111 819 q 343 924 225 924 q 513 872 460 924 q 567 729 567 819 l 567 611 l 469 611 l 469 735 q 438 812 469 783 q 339 840 406 840 q 240 812 272 840 q 208 735 208 783 q 217 663 208 692 q 261 601 226 633 l 510 363 m 468 1163 l 504 1126 l 368 969 l 324 969 l 188 1126 l 224 1163 l 346 1076 l 468 1163 z "},"Ş":{"ha":692,"x_min":111,"x_max":581,"o":"m 510 363 q 566 276 551 318 q 581 174 581 235 q 525 31 581 83 q 346 -21 469 -21 q 167 31 224 -21 q 111 174 111 83 l 111 292 l 208 292 l 208 168 q 242 92 208 121 q 346 63 276 63 q 449 92 415 63 q 483 168 483 121 q 474 240 483 211 q 431 303 465 269 l 186 542 q 127 628 143 586 q 111 729 111 669 q 168 872 111 819 q 343 924 225 924 q 513 872 460 924 q 567 729 567 819 l 567 611 l 469 611 l 469 735 q 438 812 469 783 q 339 840 406 840 q 240 812 272 840 q 208 735 208 783 q 217 663 208 692 q 261 601 226 633 l 510 363 m 382 3 l 364 -86 l 371 -86 q 458 -117 429 -86 q 488 -196 488 -147 l 488 -228 q 458 -304 488 -275 q 364 -333 429 -333 q 269 -304 299 -333 q 239 -228 239 -275 l 239 -217 l 306 -217 l 306 -231 q 364 -274 306 -274 q 421 -231 421 -274 l 421 -196 q 408 -162 421 -178 q 371 -146 394 -146 l 288 -146 l 317 3 l 382 3 z "},"Ŝ":{"ha":692,"x_min":111,"x_max":581,"o":"m 510 363 q 566 276 551 318 q 581 174 581 235 q 525 31 581 83 q 346 -21 469 -21 q 167 31 224 -21 q 111 174 111 83 l 111 292 l 208 292 l 208 168 q 242 92 208 121 q 346 63 276 63 q 449 92 415 63 q 483 168 483 121 q 474 240 483 211 q 431 303 465 269 l 186 542 q 127 628 143 586 q 111 729 111 669 q 168 872 111 819 q 343 924 225 924 q 513 872 460 924 q 567 729 567 819 l 567 611 l 469 611 l 469 735 q 438 812 469 783 q 339 840 406 840 q 240 812 272 840 q 208 735 208 783 q 217 663 208 692 q 261 601 226 633 l 510 363 m 224 969 l 188 1006 l 324 1163 l 368 1163 l 504 1006 l 468 969 l 346 1056 l 224 969 z "},"Ș":{"ha":692,"x_min":111,"x_max":581,"o":"m 510 363 q 566 276 551 318 q 581 174 581 235 q 525 31 581 83 q 346 -21 469 -21 q 167 31 224 -21 q 111 174 111 83 l 111 292 l 208 292 l 208 168 q 242 92 208 121 q 346 63 276 63 q 449 92 415 63 q 483 168 483 121 q 474 240 483 211 q 431 303 465 269 l 186 542 q 127 628 143 586 q 111 729 111 669 q 168 872 111 819 q 343 924 225 924 q 513 872 460 924 q 567 729 567 819 l 567 611 l 469 611 l 469 735 q 438 812 469 783 q 339 840 406 840 q 240 812 272 840 q 208 735 208 783 q 217 663 208 692 q 261 601 226 633 l 510 363 m 340 -356 l 296 -347 l 324 -215 l 290 -203 l 290 -76 l 401 -76 l 401 -194 l 340 -356 z "},"ẞ":{"ha":726,"x_min":139,"x_max":608,"o":"m 306 83 l 374 83 q 477 113 443 83 q 511 189 511 142 l 511 299 q 480 378 511 339 q 388 417 449 417 l 344 417 l 344 486 l 374 486 q 467 524 436 486 q 497 604 497 563 l 497 735 q 465 812 497 783 q 367 840 433 840 q 268 812 300 840 q 236 735 236 783 l 236 0 l 139 0 l 139 729 q 192 872 139 819 q 363 924 246 924 q 538 872 482 924 q 594 729 594 819 l 594 604 q 496 453 594 486 q 608 299 608 422 l 608 194 q 553 52 608 104 q 374 0 497 0 l 306 0 l 306 83 z "},"T":{"ha":542,"x_min":42,"x_max":500,"o":"m 500 819 l 319 819 l 319 0 l 222 0 l 222 819 l 42 819 l 42 903 l 500 903 l 500 819 z "},"Ŧ":{"ha":542,"x_min":42,"x_max":500,"o":"m 500 819 l 319 819 l 319 0 l 222 0 l 222 819 l 42 819 l 42 903 l 500 903 l 500 819 m 90 486 l 451 486 l 451 417 l 90 417 l 90 486 z "},"Ť":{"ha":542,"x_min":42,"x_max":500,"o":"m 500 819 l 319 819 l 319 0 l 222 0 l 222 819 l 42 819 l 42 903 l 500 903 l 500 819 m 393 1163 l 429 1126 l 293 969 l 249 969 l 113 1126 l 149 1163 l 271 1076 l 393 1163 z "},"Ţ":{"ha":542,"x_min":42,"x_max":500,"o":"m 500 819 l 319 819 l 319 0 l 222 0 l 222 819 l 42 819 l 42 903 l 500 903 l 500 819 m 307 3 l 289 -86 l 296 -86 q 383 -117 354 -86 q 413 -196 413 -147 l 413 -228 q 383 -304 413 -275 q 289 -333 354 -333 q 194 -304 224 -333 q 164 -228 164 -275 l 164 -217 l 231 -217 l 231 -231 q 289 -274 231 -274 q 346 -231 346 -274 l 346 -196 q 333 -162 346 -178 q 296 -146 319 -146 l 213 -146 l 242 3 l 307 3 z "},"Ț":{"ha":542,"x_min":42,"x_max":500,"o":"m 500 819 l 319 819 l 319 0 l 222 0 l 222 819 l 42 819 l 42 903 l 500 903 l 500 819 m 265 -356 l 221 -347 l 249 -215 l 215 -203 l 215 -76 l 326 -76 l 326 -194 l 265 -356 z "},"U":{"ha":722,"x_min":125,"x_max":597,"o":"m 500 903 l 597 903 l 597 174 q 540 31 597 83 q 363 -21 482 -21 q 184 31 243 -21 q 125 174 125 83 l 125 903 l 222 903 l 222 174 q 257 92 222 122 q 363 63 292 63 q 466 92 432 63 q 500 174 500 122 l 500 903 z "},"Ú":{"ha":722,"x_min":125,"x_max":597,"o":"m 500 903 l 597 903 l 597 174 q 540 31 597 83 q 363 -21 482 -21 q 184 31 243 -21 q 125 174 125 83 l 125 903 l 222 903 l 222 174 q 257 92 222 122 q 363 63 292 63 q 466 92 432 63 q 500 174 500 122 l 500 903 m 431 1049 l 274 969 l 238 1006 l 408 1176 l 483 1101 l 431 1049 z "},"Ŭ":{"ha":722,"x_min":125,"x_max":597,"o":"m 500 903 l 597 903 l 597 174 q 540 31 597 83 q 363 -21 482 -21 q 184 31 243 -21 q 125 174 125 83 l 125 903 l 222 903 l 222 174 q 257 92 222 122 q 363 63 292 63 q 466 92 432 63 q 500 174 500 122 l 500 903 m 301 1106 q 315 1073 301 1083 q 361 1063 328 1063 q 407 1073 393 1063 q 421 1106 421 1083 l 421 1133 l 497 1133 l 497 1097 q 464 1021 497 1049 q 361 993 431 993 q 257 1021 289 993 q 225 1097 225 1049 l 225 1133 l 301 1133 l 301 1106 z "},"Û":{"ha":722,"x_min":125,"x_max":597,"o":"m 500 903 l 597 903 l 597 174 q 540 31 597 83 q 363 -21 482 -21 q 184 31 243 -21 q 125 174 125 83 l 125 903 l 222 903 l 222 174 q 257 92 222 122 q 363 63 292 63 q 466 92 432 63 q 500 174 500 122 l 500 903 m 239 969 l 203 1006 l 339 1163 l 383 1163 l 519 1006 l 483 969 l 361 1056 l 239 969 z "},"Ȕ":{"ha":722,"x_min":125,"x_max":597,"o":"m 500 903 l 597 903 l 597 174 q 540 31 597 83 q 363 -21 482 -21 q 184 31 243 -21 q 125 174 125 83 l 125 903 l 222 903 l 222 174 q 257 92 222 122 q 363 63 292 63 q 466 92 432 63 q 500 174 500 122 l 500 903 m 401 1058 l 360 1111 l 440 1176 l 583 996 l 550 969 l 401 1058 m 179 1058 l 138 1111 l 218 1176 l 361 996 l 328 969 l 179 1058 z "},"Ü":{"ha":722,"x_min":125,"x_max":597,"o":"m 500 903 l 597 903 l 597 174 q 540 31 597 83 q 363 -21 482 -21 q 184 31 243 -21 q 125 174 125 83 l 125 903 l 222 903 l 222 174 q 257 92 222 122 q 363 63 292 63 q 466 92 432 63 q 500 174 500 122 l 500 903 m 215 993 l 215 1146 l 313 1146 l 313 993 l 215 993 m 410 993 l 410 1146 l 507 1146 l 507 993 l 410 993 z "},"Ụ":{"ha":722,"x_min":125,"x_max":597,"o":"m 500 903 l 597 903 l 597 174 q 540 31 597 83 q 363 -21 482 -21 q 184 31 243 -21 q 125 174 125 83 l 125 903 l 222 903 l 222 174 q 257 92 222 122 q 363 63 292 63 q 466 92 432 63 q 500 174 500 122 l 500 903 m 306 -229 l 306 -76 l 417 -76 l 417 -229 l 306 -229 z "},"Ù":{"ha":722,"x_min":125,"x_max":597,"o":"m 500 903 l 597 903 l 597 174 q 540 31 597 83 q 363 -21 482 -21 q 184 31 243 -21 q 125 174 125 83 l 125 903 l 222 903 l 222 174 q 257 92 222 122 q 363 63 292 63 q 466 92 432 63 q 500 174 500 122 l 500 903 m 238 1101 l 313 1176 l 483 1006 l 447 969 l 290 1049 l 238 1101 z "},"Ủ":{"ha":722,"x_min":125,"x_max":597,"o":"m 500 903 l 597 903 l 597 174 q 540 31 597 83 q 363 -21 482 -21 q 184 31 243 -21 q 125 174 125 83 l 125 903 l 222 903 l 222 174 q 257 92 222 122 q 363 63 292 63 q 466 92 432 63 q 500 174 500 122 l 500 903 m 360 1015 q 418 1108 418 1065 l 418 1125 q 361 1168 418 1168 q 303 1125 303 1168 l 303 1083 l 236 1083 l 236 1122 q 266 1199 236 1171 q 361 1228 296 1228 q 456 1199 426 1228 q 485 1122 485 1171 l 485 1108 q 472 1051 485 1082 q 428 993 460 1021 l 400 969 l 360 1015 z "},"Ư":{"ha":722,"x_min":125,"x_max":740,"o":"m 500 903 l 597 903 l 597 174 q 540 31 597 83 q 363 -21 482 -21 q 184 31 243 -21 q 125 174 125 83 l 125 903 l 222 903 l 222 174 q 257 92 222 122 q 363 63 292 63 q 466 92 432 63 q 500 174 500 122 l 500 903 m 604 903 q 650 913 636 903 q 664 946 664 924 l 664 1015 l 740 1015 l 740 938 q 707 861 740 889 q 604 833 674 833 l 542 833 l 542 903 l 604 903 z "},"Ứ":{"ha":722,"x_min":125,"x_max":740,"o":"m 500 903 l 597 903 l 597 174 q 540 31 597 83 q 363 -21 482 -21 q 184 31 243 -21 q 125 174 125 83 l 125 903 l 222 903 l 222 174 q 257 92 222 122 q 363 63 292 63 q 466 92 432 63 q 500 174 500 122 l 500 903 m 604 903 q 650 913 636 903 q 664 946 664 924 l 664 1015 l 740 1015 l 740 938 q 707 861 740 889 q 604 833 674 833 l 542 833 l 542 903 l 604 903 m 431 1049 l 274 969 l 238 1006 l 408 1176 l 483 1101 l 431 1049 z "},"Ự":{"ha":722,"x_min":125,"x_max":740,"o":"m 500 903 l 597 903 l 597 174 q 540 31 597 83 q 363 -21 482 -21 q 184 31 243 -21 q 125 174 125 83 l 125 903 l 222 903 l 222 174 q 257 92 222 122 q 363 63 292 63 q 466 92 432 63 q 500 174 500 122 l 500 903 m 604 903 q 650 913 636 903 q 664 946 664 924 l 664 1015 l 740 1015 l 740 938 q 707 861 740 889 q 604 833 674 833 l 542 833 l 542 903 l 604 903 m 306 -229 l 306 -76 l 417 -76 l 417 -229 l 306 -229 z "},"Ừ":{"ha":722,"x_min":125,"x_max":740,"o":"m 500 903 l 597 903 l 597 174 q 540 31 597 83 q 363 -21 482 -21 q 184 31 243 -21 q 125 174 125 83 l 125 903 l 222 903 l 222 174 q 257 92 222 122 q 363 63 292 63 q 466 92 432 63 q 500 174 500 122 l 500 903 m 604 903 q 650 913 636 903 q 664 946 664 924 l 664 1015 l 740 1015 l 740 938 q 707 861 740 889 q 604 833 674 833 l 542 833 l 542 903 l 604 903 m 238 1101 l 313 1176 l 483 1006 l 447 969 l 290 1049 l 238 1101 z "},"Ử":{"ha":722,"x_min":125,"x_max":740,"o":"m 500 903 l 597 903 l 597 174 q 540 31 597 83 q 363 -21 482 -21 q 184 31 243 -21 q 125 174 125 83 l 125 903 l 222 903 l 222 174 q 257 92 222 122 q 363 63 292 63 q 466 92 432 63 q 500 174 500 122 l 500 903 m 604 903 q 650 913 636 903 q 664 946 664 924 l 664 1015 l 740 1015 l 740 938 q 707 861 740 889 q 604 833 674 833 l 542 833 l 542 903 l 604 903 m 360 1015 q 418 1108 418 1065 l 418 1125 q 361 1168 418 1168 q 303 1125 303 1168 l 303 1083 l 236 1083 l 236 1122 q 266 1199 236 1171 q 361 1228 296 1228 q 456 1199 426 1228 q 485 1122 485 1171 l 485 1108 q 472 1051 485 1082 q 428 993 460 1021 l 400 969 l 360 1015 z "},"Ữ":{"ha":722,"x_min":125,"x_max":740,"o":"m 500 903 l 597 903 l 597 174 q 540 31 597 83 q 363 -21 482 -21 q 184 31 243 -21 q 125 174 125 83 l 125 903 l 222 903 l 222 174 q 257 92 222 122 q 363 63 292 63 q 466 92 432 63 q 500 174 500 122 l 500 903 m 604 903 q 650 913 636 903 q 664 946 664 924 l 664 1015 l 740 1015 l 740 938 q 707 861 740 889 q 604 833 674 833 l 542 833 l 542 903 l 604 903 m 468 1015 q 421 1054 454 1054 q 381 1041 399 1054 q 342 1015 363 1028 q 289 1001 321 1001 q 227 1029 253 1001 q 197 1104 201 1057 l 254 1124 q 301 1085 268 1085 q 342 1098 325 1085 q 381 1124 360 1111 q 433 1138 403 1138 q 495 1110 469 1138 q 525 1035 521 1083 l 468 1015 z "},"Ű":{"ha":722,"x_min":125,"x_max":597,"o":"m 500 903 l 597 903 l 597 174 q 540 31 597 83 q 363 -21 482 -21 q 184 31 243 -21 q 125 174 125 83 l 125 903 l 222 903 l 222 174 q 257 92 222 122 q 363 63 292 63 q 466 92 432 63 q 500 174 500 122 l 500 903 m 329 1058 l 181 969 l 147 996 l 290 1176 l 371 1111 l 329 1058 m 551 1058 l 403 969 l 369 996 l 513 1176 l 593 1111 l 551 1058 z "},"Ȗ":{"ha":722,"x_min":125,"x_max":597,"o":"m 500 903 l 597 903 l 597 174 q 540 31 597 83 q 363 -21 482 -21 q 184 31 243 -21 q 125 174 125 83 l 125 903 l 222 903 l 222 174 q 257 92 222 122 q 363 63 292 63 q 466 92 432 63 q 500 174 500 122 l 500 903 m 421 1021 q 408 1053 421 1043 q 361 1064 394 1064 q 315 1053 329 1064 q 301 1021 301 1043 l 301 993 l 225 993 l 225 1029 q 258 1106 225 1078 q 361 1133 292 1133 q 465 1106 433 1133 q 497 1029 497 1078 l 497 993 l 421 993 l 421 1021 z "},"Ū":{"ha":722,"x_min":125,"x_max":597,"o":"m 500 903 l 597 903 l 597 174 q 540 31 597 83 q 363 -21 482 -21 q 184 31 243 -21 q 125 174 125 83 l 125 903 l 222 903 l 222 174 q 257 92 222 122 q 363 63 292 63 q 466 92 432 63 q 500 174 500 122 l 500 903 m 211 1111 l 511 1111 l 511 1028 l 211 1028 l 211 1111 z "},"Ų":{"ha":722,"x_min":125,"x_max":597,"o":"m 500 903 l 597 903 l 597 174 q 540 31 597 83 q 363 -21 482 -21 q 184 31 243 -21 q 125 174 125 83 l 125 903 l 222 903 l 222 174 q 257 92 222 122 q 363 63 292 63 q 466 92 432 63 q 500 174 500 122 l 500 903 m 461 0 l 374 -71 q 306 -172 306 -126 l 306 -231 q 363 -274 306 -274 q 421 -231 421 -274 l 421 -189 l 488 -189 l 488 -228 q 458 -304 488 -275 q 363 -333 428 -333 q 269 -304 299 -333 q 239 -228 239 -275 l 239 -172 q 250 -116 239 -144 q 296 -57 261 -87 l 421 50 l 461 0 z "},"Ů":{"ha":722,"x_min":125,"x_max":597,"o":"m 500 903 l 597 903 l 597 174 q 540 31 597 83 q 363 -21 482 -21 q 184 31 243 -21 q 125 174 125 83 l 125 903 l 222 903 l 222 174 q 257 92 222 122 q 363 63 292 63 q 466 92 432 63 q 500 174 500 122 l 500 903 m 479 1056 q 451 979 479 1007 q 361 951 424 951 q 270 979 297 951 q 243 1056 243 1007 l 243 1083 q 270 1160 243 1132 q 361 1188 297 1188 q 451 1160 424 1188 q 479 1083 479 1132 l 479 1056 m 313 1056 q 361 1013 313 1013 q 410 1056 410 1013 l 410 1083 q 361 1126 410 1126 q 313 1083 313 1126 l 313 1056 z "},"Ũ":{"ha":722,"x_min":125,"x_max":597,"o":"m 500 903 l 597 903 l 597 174 q 540 31 597 83 q 363 -21 482 -21 q 184 31 243 -21 q 125 174 125 83 l 125 903 l 222 903 l 222 174 q 257 92 222 122 q 363 63 292 63 q 466 92 432 63 q 500 174 500 122 l 500 903 m 468 1015 q 421 1054 454 1054 q 381 1041 399 1054 q 342 1015 363 1028 q 289 1001 321 1001 q 227 1029 253 1001 q 197 1104 201 1057 l 254 1124 q 301 1085 268 1085 q 342 1098 325 1085 q 381 1124 360 1111 q 433 1138 403 1138 q 495 1110 469 1138 q 525 1035 521 1083 l 468 1015 z "},"V":{"ha":665,"x_min":56,"x_max":610,"o":"m 260 0 l 56 903 l 153 903 l 332 107 l 513 903 l 610 903 l 406 0 l 260 0 z "},"W":{"ha":949,"x_min":63,"x_max":886,"o":"m 197 0 l 63 903 l 160 903 l 274 139 l 428 903 l 519 903 l 675 139 l 789 903 l 886 903 l 751 0 l 621 0 l 474 722 l 328 0 l 197 0 z "},"Ẃ":{"ha":949,"x_min":63,"x_max":886,"o":"m 197 0 l 63 903 l 160 903 l 274 139 l 428 903 l 519 903 l 675 139 l 789 903 l 886 903 l 751 0 l 621 0 l 474 722 l 328 0 l 197 0 m 544 1049 l 388 969 l 351 1006 l 522 1176 l 597 1101 l 544 1049 z "},"Ŵ":{"ha":949,"x_min":63,"x_max":886,"o":"m 197 0 l 63 903 l 160 903 l 274 139 l 428 903 l 519 903 l 675 139 l 789 903 l 886 903 l 751 0 l 621 0 l 474 722 l 328 0 l 197 0 m 353 969 l 317 1006 l 453 1163 l 497 1163 l 633 1006 l 597 969 l 475 1056 l 353 969 z "},"Ẅ":{"ha":949,"x_min":63,"x_max":886,"o":"m 197 0 l 63 903 l 160 903 l 274 139 l 428 903 l 519 903 l 675 139 l 789 903 l 886 903 l 751 0 l 621 0 l 474 722 l 328 0 l 197 0 m 329 993 l 329 1146 l 426 1146 l 426 993 l 329 993 m 524 993 l 524 1146 l 621 1146 l 621 993 l 524 993 z "},"Ẁ":{"ha":949,"x_min":63,"x_max":886,"o":"m 197 0 l 63 903 l 160 903 l 274 139 l 428 903 l 519 903 l 675 139 l 789 903 l 886 903 l 751 0 l 621 0 l 474 722 l 328 0 l 197 0 m 351 1101 l 426 1176 l 597 1006 l 561 969 l 404 1049 l 351 1101 z "},"X":{"ha":628,"x_min":56,"x_max":572,"o":"m 471 0 l 314 351 l 157 0 l 56 0 l 264 465 l 69 903 l 171 903 l 319 567 l 471 903 l 572 903 l 371 453 l 572 0 l 471 0 z "},"Y":{"ha":625,"x_min":35,"x_max":590,"o":"m 264 0 l 264 324 l 35 903 l 138 903 l 313 438 l 488 903 l 590 903 l 361 322 l 361 0 l 264 0 z "},"Ý":{"ha":625,"x_min":35,"x_max":590,"o":"m 264 0 l 264 324 l 35 903 l 138 903 l 313 438 l 488 903 l 590 903 l 361 322 l 361 0 l 264 0 m 382 1049 l 225 969 l 189 1006 l 360 1176 l 435 1101 l 382 1049 z "},"Ŷ":{"ha":625,"x_min":35,"x_max":590,"o":"m 264 0 l 264 324 l 35 903 l 138 903 l 313 438 l 488 903 l 590 903 l 361 322 l 361 0 l 264 0 m 190 969 l 154 1006 l 290 1163 l 335 1163 l 471 1006 l 435 969 l 313 1056 l 190 969 z "},"Ÿ":{"ha":625,"x_min":35,"x_max":590,"o":"m 264 0 l 264 324 l 35 903 l 138 903 l 313 438 l 488 903 l 590 903 l 361 322 l 361 0 l 264 0 m 167 993 l 167 1146 l 264 1146 l 264 993 l 167 993 m 361 993 l 361 1146 l 458 1146 l 458 993 l 361 993 z "},"Ỵ":{"ha":625,"x_min":35,"x_max":590,"o":"m 264 0 l 264 324 l 35 903 l 138 903 l 313 438 l 488 903 l 590 903 l 361 322 l 361 0 l 264 0 m 257 -229 l 257 -76 l 368 -76 l 368 -229 l 257 -229 z "},"Ỳ":{"ha":625,"x_min":35,"x_max":590,"o":"m 264 0 l 264 324 l 35 903 l 138 903 l 313 438 l 488 903 l 590 903 l 361 322 l 361 0 l 264 0 m 189 1101 l 264 1176 l 435 1006 l 399 969 l 242 1049 l 189 1101 z "},"Ỷ":{"ha":625,"x_min":35,"x_max":590,"o":"m 264 0 l 264 324 l 35 903 l 138 903 l 313 438 l 488 903 l 590 903 l 361 322 l 361 0 l 264 0 m 311 1015 q 369 1108 369 1065 l 369 1125 q 313 1168 369 1168 q 254 1125 254 1168 l 254 1083 l 188 1083 l 188 1122 q 217 1199 188 1171 q 313 1228 247 1228 q 407 1199 378 1228 q 436 1122 436 1171 l 436 1108 q 424 1051 436 1082 q 379 993 411 1021 l 351 969 l 311 1015 z "},"Ȳ":{"ha":625,"x_min":35,"x_max":590,"o":"m 264 0 l 264 324 l 35 903 l 138 903 l 313 438 l 488 903 l 590 903 l 361 322 l 361 0 l 264 0 m 163 1111 l 463 1111 l 463 1028 l 163 1028 l 163 1111 z "},"Ỹ":{"ha":625,"x_min":35,"x_max":590,"o":"m 264 0 l 264 324 l 35 903 l 138 903 l 313 438 l 488 903 l 590 903 l 361 322 l 361 0 l 264 0 m 419 1015 q 372 1054 406 1054 q 332 1041 350 1054 q 293 1015 314 1028 q 240 1001 272 1001 q 178 1029 204 1001 q 149 1104 153 1057 l 206 1124 q 253 1085 219 1085 q 294 1098 276 1085 q 333 1124 311 1111 q 385 1138 354 1138 q 447 1110 421 1138 q 476 1035 472 1083 l 419 1015 z "},"Z":{"ha":579,"x_min":49,"x_max":524,"o":"m 69 903 l 524 903 l 524 819 l 150 83 l 517 83 l 517 0 l 49 0 l 49 83 l 422 819 l 69 819 l 69 903 z "},"Ź":{"ha":579,"x_min":49,"x_max":524,"o":"m 69 903 l 524 903 l 524 819 l 150 83 l 517 83 l 517 0 l 49 0 l 49 83 l 422 819 l 69 819 l 69 903 m 360 1049 l 203 969 l 167 1006 l 338 1176 l 413 1101 l 360 1049 z "},"Ž":{"ha":579,"x_min":49,"x_max":524,"o":"m 69 903 l 524 903 l 524 819 l 150 83 l 517 83 l 517 0 l 49 0 l 49 83 l 422 819 l 69 819 l 69 903 m 413 1163 l 449 1126 l 313 969 l 268 969 l 132 1126 l 168 1163 l 290 1076 l 413 1163 z "},"Ż":{"ha":579,"x_min":49,"x_max":524,"o":"m 69 903 l 524 903 l 524 819 l 150 83 l 517 83 l 517 0 l 49 0 l 49 83 l 422 819 l 69 819 l 69 903 m 235 993 l 235 1146 l 346 1146 l 346 993 l 235 993 z "},"a":{"ha":694,"x_min":111,"x_max":569,"o":"m 528 0 l 492 89 q 417 10 464 40 q 311 -21 369 -21 q 193 5 238 -21 q 130 75 149 31 q 111 174 111 119 l 111 313 q 130 412 111 368 q 193 481 149 456 q 311 507 238 507 l 472 507 l 472 735 q 441 812 472 783 q 346 840 410 840 q 253 812 283 840 q 222 735 222 783 l 222 653 l 125 653 l 125 729 q 179 872 125 821 q 346 924 233 924 q 514 872 458 924 q 569 729 569 821 l 569 0 l 528 0 m 472 424 l 311 424 q 228 392 249 424 q 208 313 208 360 l 208 174 q 228 94 208 126 q 311 63 249 63 q 388 85 353 63 q 447 138 424 107 q 472 197 471 169 l 472 424 z "},"á":{"ha":694,"x_min":111,"x_max":569,"o":"m 528 0 l 492 89 q 417 10 464 40 q 311 -21 369 -21 q 193 5 238 -21 q 130 75 149 31 q 111 174 111 119 l 111 313 q 130 412 111 368 q 193 481 149 456 q 311 507 238 507 l 472 507 l 472 735 q 441 812 472 783 q 346 840 410 840 q 253 812 283 840 q 222 735 222 783 l 222 653 l 125 653 l 125 729 q 179 872 125 821 q 346 924 233 924 q 514 872 458 924 q 569 729 569 821 l 569 0 l 528 0 m 472 424 l 311 424 q 228 392 249 424 q 208 313 208 360 l 208 174 q 228 94 208 126 q 311 63 249 63 q 388 85 353 63 q 447 138 424 107 q 472 197 471 169 l 472 424 m 417 1049 l 260 969 l 224 1006 l 394 1176 l 469 1101 l 417 1049 z "},"ă":{"ha":694,"x_min":111,"x_max":569,"o":"m 528 0 l 492 89 q 417 10 464 40 q 311 -21 369 -21 q 193 5 238 -21 q 130 75 149 31 q 111 174 111 119 l 111 313 q 130 412 111 368 q 193 481 149 456 q 311 507 238 507 l 472 507 l 472 735 q 441 812 472 783 q 346 840 410 840 q 253 812 283 840 q 222 735 222 783 l 222 653 l 125 653 l 125 729 q 179 872 125 821 q 346 924 233 924 q 514 872 458 924 q 569 729 569 821 l 569 0 l 528 0 m 472 424 l 311 424 q 228 392 249 424 q 208 313 208 360 l 208 174 q 228 94 208 126 q 311 63 249 63 q 388 85 353 63 q 447 138 424 107 q 472 197 471 169 l 472 424 m 288 1106 q 301 1073 288 1083 q 347 1063 314 1063 q 393 1073 379 1063 q 407 1106 407 1083 l 407 1133 l 483 1133 l 483 1097 q 450 1021 483 1049 q 347 993 417 993 q 243 1021 275 993 q 211 1097 211 1049 l 211 1133 l 288 1133 l 288 1106 z "},"ắ":{"ha":694,"x_min":111,"x_max":569,"o":"m 528 0 l 492 89 q 417 10 464 40 q 311 -21 369 -21 q 193 5 238 -21 q 130 75 149 31 q 111 174 111 119 l 111 313 q 130 412 111 368 q 193 481 149 456 q 311 507 238 507 l 472 507 l 472 735 q 441 812 472 783 q 346 840 410 840 q 253 812 283 840 q 222 735 222 783 l 222 653 l 125 653 l 125 729 q 179 872 125 821 q 346 924 233 924 q 514 872 458 924 q 569 729 569 821 l 569 0 l 528 0 m 472 424 l 311 424 q 228 392 249 424 q 208 313 208 360 l 208 174 q 228 94 208 126 q 311 63 249 63 q 388 85 353 63 q 447 138 424 107 q 472 197 471 169 l 472 424 m 288 1106 q 301 1073 288 1083 q 347 1063 314 1063 q 393 1073 379 1063 q 407 1106 407 1083 l 407 1133 l 483 1133 l 483 1097 q 450 1021 483 1049 q 347 993 417 993 q 243 1021 275 993 q 211 1097 211 1049 l 211 1133 l 288 1133 l 288 1106 m 417 1251 l 260 1172 l 224 1208 l 394 1379 l 469 1304 l 417 1251 z "},"ặ":{"ha":694,"x_min":111,"x_max":569,"o":"m 528 0 l 492 89 q 417 10 464 40 q 311 -21 369 -21 q 193 5 238 -21 q 130 75 149 31 q 111 174 111 119 l 111 313 q 130 412 111 368 q 193 481 149 456 q 311 507 238 507 l 472 507 l 472 735 q 441 812 472 783 q 346 840 410 840 q 253 812 283 840 q 222 735 222 783 l 222 653 l 125 653 l 125 729 q 179 872 125 821 q 346 924 233 924 q 514 872 458 924 q 569 729 569 821 l 569 0 l 528 0 m 472 424 l 311 424 q 228 392 249 424 q 208 313 208 360 l 208 174 q 228 94 208 126 q 311 63 249 63 q 388 85 353 63 q 447 138 424 107 q 472 197 471 169 l 472 424 m 288 1106 q 301 1073 288 1083 q 347 1063 314 1063 q 393 1073 379 1063 q 407 1106 407 1083 l 407 1133 l 483 1133 l 483 1097 q 450 1021 483 1049 q 347 993 417 993 q 243 1021 275 993 q 211 1097 211 1049 l 211 1133 l 288 1133 l 288 1106 m 292 -229 l 292 -76 l 403 -76 l 403 -229 l 292 -229 z "},"ằ":{"ha":694,"x_min":111,"x_max":569,"o":"m 528 0 l 492 89 q 417 10 464 40 q 311 -21 369 -21 q 193 5 238 -21 q 130 75 149 31 q 111 174 111 119 l 111 313 q 130 412 111 368 q 193 481 149 456 q 311 507 238 507 l 472 507 l 472 735 q 441 812 472 783 q 346 840 410 840 q 253 812 283 840 q 222 735 222 783 l 222 653 l 125 653 l 125 729 q 179 872 125 821 q 346 924 233 924 q 514 872 458 924 q 569 729 569 821 l 569 0 l 528 0 m 472 424 l 311 424 q 228 392 249 424 q 208 313 208 360 l 208 174 q 228 94 208 126 q 311 63 249 63 q 388 85 353 63 q 447 138 424 107 q 472 197 471 169 l 472 424 m 288 1106 q 301 1073 288 1083 q 347 1063 314 1063 q 393 1073 379 1063 q 407 1106 407 1083 l 407 1133 l 483 1133 l 483 1097 q 450 1021 483 1049 q 347 993 417 993 q 243 1021 275 993 q 211 1097 211 1049 l 211 1133 l 288 1133 l 288 1106 m 224 1304 l 299 1379 l 469 1208 l 433 1172 l 276 1251 l 224 1304 z "},"ẳ":{"ha":694,"x_min":111,"x_max":569,"o":"m 528 0 l 492 89 q 417 10 464 40 q 311 -21 369 -21 q 193 5 238 -21 q 130 75 149 31 q 111 174 111 119 l 111 313 q 130 412 111 368 q 193 481 149 456 q 311 507 238 507 l 472 507 l 472 735 q 441 812 472 783 q 346 840 410 840 q 253 812 283 840 q 222 735 222 783 l 222 653 l 125 653 l 125 729 q 179 872 125 821 q 346 924 233 924 q 514 872 458 924 q 569 729 569 821 l 569 0 l 528 0 m 472 424 l 311 424 q 228 392 249 424 q 208 313 208 360 l 208 174 q 228 94 208 126 q 311 63 249 63 q 388 85 353 63 q 447 138 424 107 q 472 197 471 169 l 472 424 m 288 1106 q 301 1073 288 1083 q 347 1063 314 1063 q 393 1073 379 1063 q 407 1106 407 1083 l 407 1133 l 483 1133 l 483 1097 q 450 1021 483 1049 q 347 993 417 993 q 243 1021 275 993 q 211 1097 211 1049 l 211 1133 l 288 1133 l 288 1106 m 346 1218 q 404 1311 404 1268 l 404 1328 q 347 1371 404 1371 q 289 1328 289 1371 l 289 1286 l 222 1286 l 222 1325 q 252 1402 222 1374 q 347 1431 282 1431 q 442 1402 413 1431 q 471 1325 471 1374 l 471 1311 q 458 1254 471 1285 q 414 1196 446 1224 l 386 1172 l 346 1218 z "},"ẵ":{"ha":694,"x_min":111,"x_max":569,"o":"m 528 0 l 492 89 q 417 10 464 40 q 311 -21 369 -21 q 193 5 238 -21 q 130 75 149 31 q 111 174 111 119 l 111 313 q 130 412 111 368 q 193 481 149 456 q 311 507 238 507 l 472 507 l 472 735 q 441 812 472 783 q 346 840 410 840 q 253 812 283 840 q 222 735 222 783 l 222 653 l 125 653 l 125 729 q 179 872 125 821 q 346 924 233 924 q 514 872 458 924 q 569 729 569 821 l 569 0 l 528 0 m 472 424 l 311 424 q 228 392 249 424 q 208 313 208 360 l 208 174 q 228 94 208 126 q 311 63 249 63 q 388 85 353 63 q 447 138 424 107 q 472 197 471 169 l 472 424 m 288 1106 q 301 1073 288 1083 q 347 1063 314 1063 q 393 1073 379 1063 q 407 1106 407 1083 l 407 1133 l 483 1133 l 483 1097 q 450 1021 483 1049 q 347 993 417 993 q 243 1021 275 993 q 211 1097 211 1049 l 211 1133 l 288 1133 l 288 1106 m 454 1218 q 407 1257 440 1257 q 367 1244 385 1257 q 328 1217 349 1231 q 275 1204 307 1204 q 213 1232 239 1204 q 183 1307 188 1260 l 240 1326 q 288 1288 254 1288 q 328 1301 311 1288 q 367 1327 346 1314 q 419 1340 389 1340 q 481 1313 456 1340 q 511 1238 507 1286 l 454 1218 z "},"â":{"ha":694,"x_min":111,"x_max":569,"o":"m 528 0 l 492 89 q 417 10 464 40 q 311 -21 369 -21 q 193 5 238 -21 q 130 75 149 31 q 111 174 111 119 l 111 313 q 130 412 111 368 q 193 481 149 456 q 311 507 238 507 l 472 507 l 472 735 q 441 812 472 783 q 346 840 410 840 q 253 812 283 840 q 222 735 222 783 l 222 653 l 125 653 l 125 729 q 179 872 125 821 q 346 924 233 924 q 514 872 458 924 q 569 729 569 821 l 569 0 l 528 0 m 472 424 l 311 424 q 228 392 249 424 q 208 313 208 360 l 208 174 q 228 94 208 126 q 311 63 249 63 q 388 85 353 63 q 447 138 424 107 q 472 197 471 169 l 472 424 m 225 969 l 189 1006 l 325 1163 l 369 1163 l 506 1006 l 469 969 l 347 1056 l 225 969 z "},"ấ":{"ha":694,"x_min":111,"x_max":569,"o":"m 528 0 l 492 89 q 417 10 464 40 q 311 -21 369 -21 q 193 5 238 -21 q 130 75 149 31 q 111 174 111 119 l 111 313 q 130 412 111 368 q 193 481 149 456 q 311 507 238 507 l 472 507 l 472 735 q 441 812 472 783 q 346 840 410 840 q 253 812 283 840 q 222 735 222 783 l 222 653 l 125 653 l 125 729 q 179 872 125 821 q 346 924 233 924 q 514 872 458 924 q 569 729 569 821 l 569 0 l 528 0 m 472 424 l 311 424 q 228 392 249 424 q 208 313 208 360 l 208 174 q 228 94 208 126 q 311 63 249 63 q 388 85 353 63 q 447 138 424 107 q 472 197 471 169 l 472 424 m 225 969 l 189 1006 l 325 1163 l 369 1163 l 506 1006 l 469 969 l 347 1056 l 225 969 m 417 1267 l 260 1188 l 224 1224 l 394 1394 l 469 1319 l 417 1267 z "},"ậ":{"ha":694,"x_min":111,"x_max":569,"o":"m 528 0 l 492 89 q 417 10 464 40 q 311 -21 369 -21 q 193 5 238 -21 q 130 75 149 31 q 111 174 111 119 l 111 313 q 130 412 111 368 q 193 481 149 456 q 311 507 238 507 l 472 507 l 472 735 q 441 812 472 783 q 346 840 410 840 q 253 812 283 840 q 222 735 222 783 l 222 653 l 125 653 l 125 729 q 179 872 125 821 q 346 924 233 924 q 514 872 458 924 q 569 729 569 821 l 569 0 l 528 0 m 472 424 l 311 424 q 228 392 249 424 q 208 313 208 360 l 208 174 q 228 94 208 126 q 311 63 249 63 q 388 85 353 63 q 447 138 424 107 q 472 197 471 169 l 472 424 m 225 969 l 189 1006 l 325 1163 l 369 1163 l 506 1006 l 469 969 l 347 1056 l 225 969 m 292 -229 l 292 -76 l 403 -76 l 403 -229 l 292 -229 z "},"ầ":{"ha":694,"x_min":111,"x_max":569,"o":"m 528 0 l 492 89 q 417 10 464 40 q 311 -21 369 -21 q 193 5 238 -21 q 130 75 149 31 q 111 174 111 119 l 111 313 q 130 412 111 368 q 193 481 149 456 q 311 507 238 507 l 472 507 l 472 735 q 441 812 472 783 q 346 840 410 840 q 253 812 283 840 q 222 735 222 783 l 222 653 l 125 653 l 125 729 q 179 872 125 821 q 346 924 233 924 q 514 872 458 924 q 569 729 569 821 l 569 0 l 528 0 m 472 424 l 311 424 q 228 392 249 424 q 208 313 208 360 l 208 174 q 228 94 208 126 q 311 63 249 63 q 388 85 353 63 q 447 138 424 107 q 472 197 471 169 l 472 424 m 225 969 l 189 1006 l 325 1163 l 369 1163 l 506 1006 l 469 969 l 347 1056 l 225 969 m 224 1319 l 299 1394 l 469 1224 l 433 1188 l 276 1267 l 224 1319 z "},"ẩ":{"ha":694,"x_min":111,"x_max":569,"o":"m 528 0 l 492 89 q 417 10 464 40 q 311 -21 369 -21 q 193 5 238 -21 q 130 75 149 31 q 111 174 111 119 l 111 313 q 130 412 111 368 q 193 481 149 456 q 311 507 238 507 l 472 507 l 472 735 q 441 812 472 783 q 346 840 410 840 q 253 812 283 840 q 222 735 222 783 l 222 653 l 125 653 l 125 729 q 179 872 125 821 q 346 924 233 924 q 514 872 458 924 q 569 729 569 821 l 569 0 l 528 0 m 472 424 l 311 424 q 228 392 249 424 q 208 313 208 360 l 208 174 q 228 94 208 126 q 311 63 249 63 q 388 85 353 63 q 447 138 424 107 q 472 197 471 169 l 472 424 m 225 969 l 189 1006 l 325 1163 l 369 1163 l 506 1006 l 469 969 l 347 1056 l 225 969 m 346 1233 q 404 1326 404 1283 l 404 1343 q 347 1386 404 1386 q 289 1343 289 1386 l 289 1301 l 222 1301 l 222 1340 q 252 1417 222 1389 q 347 1446 282 1446 q 442 1417 413 1446 q 471 1340 471 1389 l 471 1326 q 458 1269 471 1300 q 414 1211 446 1239 l 386 1188 l 346 1233 z "},"ẫ":{"ha":694,"x_min":111,"x_max":569,"o":"m 528 0 l 492 89 q 417 10 464 40 q 311 -21 369 -21 q 193 5 238 -21 q 130 75 149 31 q 111 174 111 119 l 111 313 q 130 412 111 368 q 193 481 149 456 q 311 507 238 507 l 472 507 l 472 735 q 441 812 472 783 q 346 840 410 840 q 253 812 283 840 q 222 735 222 783 l 222 653 l 125 653 l 125 729 q 179 872 125 821 q 346 924 233 924 q 514 872 458 924 q 569 729 569 821 l 569 0 l 528 0 m 472 424 l 311 424 q 228 392 249 424 q 208 313 208 360 l 208 174 q 228 94 208 126 q 311 63 249 63 q 388 85 353 63 q 447 138 424 107 q 472 197 471 169 l 472 424 m 225 969 l 189 1006 l 325 1163 l 369 1163 l 506 1006 l 469 969 l 347 1056 l 225 969 m 454 1233 q 407 1272 440 1272 q 367 1259 385 1272 q 328 1233 349 1246 q 275 1219 307 1219 q 213 1247 239 1219 q 183 1322 188 1275 l 240 1342 q 288 1303 254 1303 q 328 1316 311 1303 q 367 1342 346 1329 q 419 1356 389 1356 q 481 1328 456 1356 q 511 1253 507 1301 l 454 1233 z "},"ȁ":{"ha":694,"x_min":111,"x_max":569,"o":"m 528 0 l 492 89 q 417 10 464 40 q 311 -21 369 -21 q 193 5 238 -21 q 130 75 149 31 q 111 174 111 119 l 111 313 q 130 412 111 368 q 193 481 149 456 q 311 507 238 507 l 472 507 l 472 735 q 441 812 472 783 q 346 840 410 840 q 253 812 283 840 q 222 735 222 783 l 222 653 l 125 653 l 125 729 q 179 872 125 821 q 346 924 233 924 q 514 872 458 924 q 569 729 569 821 l 569 0 l 528 0 m 472 424 l 311 424 q 228 392 249 424 q 208 313 208 360 l 208 174 q 228 94 208 126 q 311 63 249 63 q 388 85 353 63 q 447 138 424 107 q 472 197 471 169 l 472 424 m 388 1058 l 346 1111 l 426 1176 l 569 996 l 536 969 l 388 1058 m 165 1058 l 124 1111 l 204 1176 l 347 996 l 314 969 l 165 1058 z "},"ä":{"ha":694,"x_min":111,"x_max":569,"o":"m 528 0 l 492 89 q 417 10 464 40 q 311 -21 369 -21 q 193 5 238 -21 q 130 75 149 31 q 111 174 111 119 l 111 313 q 130 412 111 368 q 193 481 149 456 q 311 507 238 507 l 472 507 l 472 735 q 441 812 472 783 q 346 840 410 840 q 253 812 283 840 q 222 735 222 783 l 222 653 l 125 653 l 125 729 q 179 872 125 821 q 346 924 233 924 q 514 872 458 924 q 569 729 569 821 l 569 0 l 528 0 m 472 424 l 311 424 q 228 392 249 424 q 208 313 208 360 l 208 174 q 228 94 208 126 q 311 63 249 63 q 388 85 353 63 q 447 138 424 107 q 472 197 471 169 l 472 424 m 201 993 l 201 1146 l 299 1146 l 299 993 l 201 993 m 396 993 l 396 1146 l 493 1146 l 493 993 l 396 993 z "},"ạ":{"ha":694,"x_min":111,"x_max":569,"o":"m 528 0 l 492 89 q 417 10 464 40 q 311 -21 369 -21 q 193 5 238 -21 q 130 75 149 31 q 111 174 111 119 l 111 313 q 130 412 111 368 q 193 481 149 456 q 311 507 238 507 l 472 507 l 472 735 q 441 812 472 783 q 346 840 410 840 q 253 812 283 840 q 222 735 222 783 l 222 653 l 125 653 l 125 729 q 179 872 125 821 q 346 924 233 924 q 514 872 458 924 q 569 729 569 821 l 569 0 l 528 0 m 472 424 l 311 424 q 228 392 249 424 q 208 313 208 360 l 208 174 q 228 94 208 126 q 311 63 249 63 q 388 85 353 63 q 447 138 424 107 q 472 197 471 169 l 472 424 m 292 -229 l 292 -76 l 403 -76 l 403 -229 l 292 -229 z "},"à":{"ha":694,"x_min":111,"x_max":569,"o":"m 528 0 l 492 89 q 417 10 464 40 q 311 -21 369 -21 q 193 5 238 -21 q 130 75 149 31 q 111 174 111 119 l 111 313 q 130 412 111 368 q 193 481 149 456 q 311 507 238 507 l 472 507 l 472 735 q 441 812 472 783 q 346 840 410 840 q 253 812 283 840 q 222 735 222 783 l 222 653 l 125 653 l 125 729 q 179 872 125 821 q 346 924 233 924 q 514 872 458 924 q 569 729 569 821 l 569 0 l 528 0 m 472 424 l 311 424 q 228 392 249 424 q 208 313 208 360 l 208 174 q 228 94 208 126 q 311 63 249 63 q 388 85 353 63 q 447 138 424 107 q 472 197 471 169 l 472 424 m 224 1101 l 299 1176 l 469 1006 l 433 969 l 276 1049 l 224 1101 z "},"ả":{"ha":694,"x_min":111,"x_max":569,"o":"m 528 0 l 492 89 q 417 10 464 40 q 311 -21 369 -21 q 193 5 238 -21 q 130 75 149 31 q 111 174 111 119 l 111 313 q 130 412 111 368 q 193 481 149 456 q 311 507 238 507 l 472 507 l 472 735 q 441 812 472 783 q 346 840 410 840 q 253 812 283 840 q 222 735 222 783 l 222 653 l 125 653 l 125 729 q 179 872 125 821 q 346 924 233 924 q 514 872 458 924 q 569 729 569 821 l 569 0 l 528 0 m 472 424 l 311 424 q 228 392 249 424 q 208 313 208 360 l 208 174 q 228 94 208 126 q 311 63 249 63 q 388 85 353 63 q 447 138 424 107 q 472 197 471 169 l 472 424 m 346 1015 q 404 1108 404 1065 l 404 1125 q 347 1168 404 1168 q 289 1125 289 1168 l 289 1083 l 222 1083 l 222 1122 q 252 1199 222 1171 q 347 1228 282 1228 q 442 1199 413 1228 q 471 1122 471 1171 l 471 1108 q 458 1051 471 1082 q 414 993 446 1021 l 386 969 l 346 1015 z "},"ȃ":{"ha":694,"x_min":111,"x_max":569,"o":"m 528 0 l 492 89 q 417 10 464 40 q 311 -21 369 -21 q 193 5 238 -21 q 130 75 149 31 q 111 174 111 119 l 111 313 q 130 412 111 368 q 193 481 149 456 q 311 507 238 507 l 472 507 l 472 735 q 441 812 472 783 q 346 840 410 840 q 253 812 283 840 q 222 735 222 783 l 222 653 l 125 653 l 125 729 q 179 872 125 821 q 346 924 233 924 q 514 872 458 924 q 569 729 569 821 l 569 0 l 528 0 m 472 424 l 311 424 q 228 392 249 424 q 208 313 208 360 l 208 174 q 228 94 208 126 q 311 63 249 63 q 388 85 353 63 q 447 138 424 107 q 472 197 471 169 l 472 424 m 407 1021 q 394 1053 407 1043 q 347 1064 381 1064 q 301 1053 315 1064 q 288 1021 288 1043 l 288 993 l 211 993 l 211 1029 q 244 1106 211 1078 q 347 1133 278 1133 q 451 1106 419 1133 q 483 1029 483 1078 l 483 993 l 407 993 l 407 1021 z "},"ā":{"ha":694,"x_min":111,"x_max":569,"o":"m 528 0 l 492 89 q 417 10 464 40 q 311 -21 369 -21 q 193 5 238 -21 q 130 75 149 31 q 111 174 111 119 l 111 313 q 130 412 111 368 q 193 481 149 456 q 311 507 238 507 l 472 507 l 472 735 q 441 812 472 783 q 346 840 410 840 q 253 812 283 840 q 222 735 222 783 l 222 653 l 125 653 l 125 729 q 179 872 125 821 q 346 924 233 924 q 514 872 458 924 q 569 729 569 821 l 569 0 l 528 0 m 472 424 l 311 424 q 228 392 249 424 q 208 313 208 360 l 208 174 q 228 94 208 126 q 311 63 249 63 q 388 85 353 63 q 447 138 424 107 q 472 197 471 169 l 472 424 m 197 1111 l 497 1111 l 497 1028 l 197 1028 l 197 1111 z "},"ą":{"ha":694,"x_min":111,"x_max":596,"o":"m 528 0 l 492 89 q 417 10 464 40 q 311 -21 369 -21 q 193 5 238 -21 q 130 75 149 31 q 111 174 111 119 l 111 313 q 130 412 111 368 q 193 481 149 456 q 311 507 238 507 l 472 507 l 472 735 q 441 812 472 783 q 346 840 410 840 q 253 812 283 840 q 222 735 222 783 l 222 653 l 125 653 l 125 729 q 179 872 125 821 q 346 924 233 924 q 514 872 458 924 q 569 729 569 821 l 569 0 l 528 0 m 472 424 l 311 424 q 228 392 249 424 q 208 313 208 360 l 208 174 q 228 94 208 126 q 311 63 249 63 q 388 85 353 63 q 447 138 424 107 q 472 197 471 169 l 472 424 m 569 0 l 482 -71 q 414 -172 414 -126 l 414 -231 q 471 -274 414 -274 q 529 -231 529 -274 l 529 -189 l 596 -189 l 596 -228 q 566 -304 596 -275 q 471 -333 536 -333 q 377 -304 407 -333 q 347 -228 347 -275 l 347 -172 q 358 -116 347 -144 q 404 -57 369 -87 l 529 50 l 569 0 z "},"å":{"ha":694,"x_min":111,"x_max":569,"o":"m 528 0 l 492 89 q 417 10 464 40 q 311 -21 369 -21 q 193 5 238 -21 q 130 75 149 31 q 111 174 111 119 l 111 313 q 130 412 111 368 q 193 481 149 456 q 311 507 238 507 l 472 507 l 472 735 q 441 812 472 783 q 346 840 410 840 q 253 812 283 840 q 222 735 222 783 l 222 653 l 125 653 l 125 729 q 179 872 125 821 q 346 924 233 924 q 514 872 458 924 q 569 729 569 821 l 569 0 l 528 0 m 472 424 l 311 424 q 228 392 249 424 q 208 313 208 360 l 208 174 q 228 94 208 126 q 311 63 249 63 q 388 85 353 63 q 447 138 424 107 q 472 197 471 169 l 472 424 m 465 1056 q 438 979 465 1007 q 347 951 410 951 q 256 979 283 951 q 229 1056 229 1007 l 229 1083 q 256 1160 229 1132 q 347 1188 283 1188 q 438 1160 410 1188 q 465 1083 465 1132 l 465 1056 m 299 1056 q 347 1013 299 1013 q 396 1056 396 1013 l 396 1083 q 347 1126 396 1126 q 299 1083 299 1126 l 299 1056 z "},"ǻ":{"ha":694,"x_min":111,"x_max":569,"o":"m 528 0 l 492 89 q 417 10 464 40 q 311 -21 369 -21 q 193 5 238 -21 q 130 75 149 31 q 111 174 111 119 l 111 313 q 130 412 111 368 q 193 481 149 456 q 311 507 238 507 l 472 507 l 472 735 q 441 812 472 783 q 346 840 410 840 q 253 812 283 840 q 222 735 222 783 l 222 653 l 125 653 l 125 729 q 179 872 125 821 q 346 924 233 924 q 514 872 458 924 q 569 729 569 821 l 569 0 l 528 0 m 472 424 l 311 424 q 228 392 249 424 q 208 313 208 360 l 208 174 q 228 94 208 126 q 311 63 249 63 q 388 85 353 63 q 447 138 424 107 q 472 197 471 169 l 472 424 m 465 1056 q 438 979 465 1007 q 347 951 410 951 q 256 979 283 951 q 229 1056 229 1007 l 229 1083 q 256 1160 229 1132 q 347 1188 283 1188 q 438 1160 410 1188 q 465 1083 465 1132 l 465 1056 m 299 1056 q 347 1013 299 1013 q 396 1056 396 1013 l 396 1083 q 347 1126 396 1126 q 299 1083 299 1126 l 299 1056 m 417 1278 l 260 1199 l 224 1235 l 394 1406 l 469 1331 l 417 1278 z "},"ã":{"ha":694,"x_min":111,"x_max":569,"o":"m 528 0 l 492 89 q 417 10 464 40 q 311 -21 369 -21 q 193 5 238 -21 q 130 75 149 31 q 111 174 111 119 l 111 313 q 130 412 111 368 q 193 481 149 456 q 311 507 238 507 l 472 507 l 472 735 q 441 812 472 783 q 346 840 410 840 q 253 812 283 840 q 222 735 222 783 l 222 653 l 125 653 l 125 729 q 179 872 125 821 q 346 924 233 924 q 514 872 458 924 q 569 729 569 821 l 569 0 l 528 0 m 472 424 l 311 424 q 228 392 249 424 q 208 313 208 360 l 208 174 q 228 94 208 126 q 311 63 249 63 q 388 85 353 63 q 447 138 424 107 q 472 197 471 169 l 472 424 m 454 1015 q 407 1054 440 1054 q 367 1041 385 1054 q 328 1015 349 1028 q 275 1001 307 1001 q 213 1029 239 1001 q 183 1104 188 1057 l 240 1124 q 288 1085 254 1085 q 328 1098 311 1085 q 367 1124 346 1111 q 419 1138 389 1138 q 481 1110 456 1138 q 511 1035 507 1083 l 454 1015 z "},"æ":{"ha":1049,"x_min":111,"x_max":931,"o":"m 833 250 l 931 250 l 931 174 q 875 31 931 83 q 703 -21 819 -21 q 565 7 618 -21 q 489 85 513 35 q 414 8 460 38 q 311 -21 368 -21 q 193 5 238 -21 q 130 75 149 31 q 111 174 111 119 l 111 313 q 130 412 111 368 q 193 481 149 456 q 311 507 238 507 l 472 507 l 472 738 q 440 813 472 785 q 346 840 408 840 q 253 812 283 840 q 222 735 222 783 l 222 653 l 125 653 l 125 729 q 179 872 125 819 q 346 924 233 924 q 521 865 463 924 q 593 908 549 893 q 700 924 638 924 q 874 872 817 924 q 931 729 931 819 l 931 424 l 569 424 l 569 174 q 602 92 569 122 q 703 63 635 63 q 801 92 769 63 q 833 174 833 122 l 833 250 m 569 507 l 833 507 l 833 729 q 801 811 833 782 q 700 840 768 840 q 603 813 636 840 q 569 738 569 786 l 569 507 m 472 424 l 311 424 q 228 392 249 424 q 208 313 208 360 l 208 174 q 228 94 208 126 q 311 63 249 63 q 390 85 354 63 q 449 141 426 108 q 472 201 472 174 l 472 424 z "},"ǽ":{"ha":1049,"x_min":111,"x_max":931,"o":"m 833 250 l 931 250 l 931 174 q 875 31 931 83 q 703 -21 819 -21 q 565 7 618 -21 q 489 85 513 35 q 414 8 460 38 q 311 -21 368 -21 q 193 5 238 -21 q 130 75 149 31 q 111 174 111 119 l 111 313 q 130 412 111 368 q 193 481 149 456 q 311 507 238 507 l 472 507 l 472 738 q 440 813 472 785 q 346 840 408 840 q 253 812 283 840 q 222 735 222 783 l 222 653 l 125 653 l 125 729 q 179 872 125 819 q 346 924 233 924 q 521 865 463 924 q 593 908 549 893 q 700 924 638 924 q 874 872 817 924 q 931 729 931 819 l 931 424 l 569 424 l 569 174 q 602 92 569 122 q 703 63 635 63 q 801 92 769 63 q 833 174 833 122 l 833 250 m 569 507 l 833 507 l 833 729 q 801 811 833 782 q 700 840 768 840 q 603 813 636 840 q 569 738 569 786 l 569 507 m 472 424 l 311 424 q 228 392 249 424 q 208 313 208 360 l 208 174 q 228 94 208 126 q 311 63 249 63 q 390 85 354 63 q 449 141 426 108 q 472 201 472 174 l 472 424 m 594 1049 l 438 969 l 401 1006 l 572 1176 l 647 1101 l 594 1049 z "},"b":{"ha":701,"x_min":139,"x_max":583,"o":"m 349 903 q 515 851 460 903 q 569 708 569 799 l 569 625 q 471 474 569 507 q 583 319 583 443 l 583 194 q 529 52 583 104 q 363 0 475 0 l 139 0 l 139 903 l 349 903 m 472 708 q 441 790 472 760 q 349 819 410 819 l 236 819 l 236 507 l 349 507 q 442 540 411 507 q 472 625 472 574 l 472 708 m 486 319 q 455 404 486 371 q 363 438 424 438 l 236 438 l 236 83 l 363 83 q 456 113 425 83 q 486 194 486 143 l 486 319 z "},"c":{"ha":681,"x_min":118,"x_max":576,"o":"m 479 250 l 576 250 l 576 174 q 521 31 576 83 q 349 -21 465 -21 q 175 31 232 -21 q 118 174 118 83 l 118 729 q 174 872 118 819 q 346 924 229 924 q 519 872 463 924 q 576 729 576 819 l 576 597 l 479 597 l 479 729 q 447 811 479 782 q 346 840 414 840 q 247 811 279 840 q 215 729 215 782 l 215 174 q 248 92 215 122 q 349 63 281 63 q 447 92 415 63 q 479 174 479 122 l 479 250 z "},"ć":{"ha":681,"x_min":118,"x_max":576,"o":"m 479 250 l 576 250 l 576 174 q 521 31 576 83 q 349 -21 465 -21 q 175 31 232 -21 q 118 174 118 83 l 118 729 q 174 872 118 819 q 346 924 229 924 q 519 872 463 924 q 576 729 576 819 l 576 597 l 479 597 l 479 729 q 447 811 479 782 q 346 840 414 840 q 247 811 279 840 q 215 729 215 782 l 215 174 q 248 92 215 122 q 349 63 281 63 q 447 92 415 63 q 479 174 479 122 l 479 250 m 410 1049 l 253 969 l 217 1006 l 388 1176 l 463 1101 l 410 1049 z "},"č":{"ha":681,"x_min":118,"x_max":576,"o":"m 479 250 l 576 250 l 576 174 q 521 31 576 83 q 349 -21 465 -21 q 175 31 232 -21 q 118 174 118 83 l 118 729 q 174 872 118 819 q 346 924 229 924 q 519 872 463 924 q 576 729 576 819 l 576 597 l 479 597 l 479 729 q 447 811 479 782 q 346 840 414 840 q 247 811 279 840 q 215 729 215 782 l 215 174 q 248 92 215 122 q 349 63 281 63 q 447 92 415 63 q 479 174 479 122 l 479 250 m 463 1163 l 499 1126 l 363 969 l 318 969 l 182 1126 l 218 1163 l 340 1076 l 463 1163 z "},"ç":{"ha":681,"x_min":118,"x_max":576,"o":"m 479 250 l 576 250 l 576 174 q 521 31 576 83 q 349 -21 465 -21 q 175 31 232 -21 q 118 174 118 83 l 118 729 q 174 872 118 819 q 346 924 229 924 q 519 872 463 924 q 576 729 576 819 l 576 597 l 479 597 l 479 729 q 447 811 479 782 q 346 840 414 840 q 247 811 279 840 q 215 729 215 782 l 215 174 q 248 92 215 122 q 349 63 281 63 q 447 92 415 63 q 479 174 479 122 l 479 250 m 376 3 l 358 -86 l 365 -86 q 453 -117 424 -86 q 482 -196 482 -147 l 482 -228 q 453 -304 482 -275 q 358 -333 424 -333 q 263 -304 293 -333 q 233 -228 233 -275 l 233 -217 l 300 -217 l 300 -231 q 358 -274 300 -274 q 415 -231 415 -274 l 415 -196 q 402 -162 415 -178 q 365 -146 389 -146 l 282 -146 l 311 3 l 376 3 z "},"ĉ":{"ha":681,"x_min":118,"x_max":576,"o":"m 479 250 l 576 250 l 576 174 q 521 31 576 83 q 349 -21 465 -21 q 175 31 232 -21 q 118 174 118 83 l 118 729 q 174 872 118 819 q 346 924 229 924 q 519 872 463 924 q 576 729 576 819 l 576 597 l 479 597 l 479 729 q 447 811 479 782 q 346 840 414 840 q 247 811 279 840 q 215 729 215 782 l 215 174 q 248 92 215 122 q 349 63 281 63 q 447 92 415 63 q 479 174 479 122 l 479 250 m 218 969 l 182 1006 l 318 1163 l 363 1163 l 499 1006 l 463 969 l 340 1056 l 218 969 z "},"ċ":{"ha":681,"x_min":118,"x_max":576,"o":"m 479 250 l 576 250 l 576 174 q 521 31 576 83 q 349 -21 465 -21 q 175 31 232 -21 q 118 174 118 83 l 118 729 q 174 872 118 819 q 346 924 229 924 q 519 872 463 924 q 576 729 576 819 l 576 597 l 479 597 l 479 729 q 447 811 479 782 q 346 840 414 840 q 247 811 279 840 q 215 729 215 782 l 215 174 q 248 92 215 122 q 349 63 281 63 q 447 92 415 63 q 479 174 479 122 l 479 250 m 285 993 l 285 1146 l 396 1146 l 396 993 l 285 993 z "},"d":{"ha":701,"x_min":139,"x_max":583,"o":"m 139 0 l 139 903 l 363 903 q 528 851 474 903 q 583 708 583 799 l 583 194 q 529 52 583 104 q 363 0 475 0 l 139 0 m 486 708 q 455 790 486 760 q 363 819 424 819 l 236 819 l 236 83 l 363 83 q 456 113 425 83 q 486 194 486 143 l 486 708 z "},"ð":{"ha":701,"x_min":56,"x_max":583,"o":"m 139 0 l 139 903 l 363 903 q 528 851 474 903 q 583 708 583 799 l 583 194 q 529 52 583 104 q 363 0 475 0 l 139 0 m 486 708 q 455 790 486 760 q 363 819 424 819 l 236 819 l 236 83 l 363 83 q 456 113 425 83 q 486 194 486 143 l 486 708 m 56 486 l 417 486 l 417 417 l 56 417 l 56 486 z "},"ď":{"ha":701,"x_min":139,"x_max":583,"o":"m 139 0 l 139 903 l 363 903 q 528 851 474 903 q 583 708 583 799 l 583 194 q 529 52 583 104 q 363 0 475 0 l 139 0 m 486 708 q 455 790 486 760 q 363 819 424 819 l 236 819 l 236 83 l 363 83 q 456 113 425 83 q 486 194 486 143 l 486 708 m 474 1163 l 510 1126 l 374 969 l 329 969 l 193 1126 l 229 1163 l 351 1076 l 474 1163 z "},"đ":{"ha":701,"x_min":56,"x_max":583,"o":"m 139 0 l 139 903 l 363 903 q 528 851 474 903 q 583 708 583 799 l 583 194 q 529 52 583 104 q 363 0 475 0 l 139 0 m 486 708 q 455 790 486 760 q 363 819 424 819 l 236 819 l 236 83 l 363 83 q 456 113 425 83 q 486 194 486 143 l 486 708 m 56 486 l 417 486 l 417 417 l 56 417 l 56 486 z "},"ǆ":{"ha":1281,"x_min":139,"x_max":1225,"o":"m 139 0 l 139 903 l 363 903 q 528 851 474 903 q 583 708 583 799 l 583 194 q 529 52 583 104 q 363 0 475 0 l 139 0 m 486 708 q 455 790 486 760 q 363 819 424 819 l 236 819 l 236 83 l 363 83 q 456 113 425 83 q 486 194 486 143 l 486 708 m 771 903 l 1225 903 l 1225 819 l 851 83 l 1218 83 l 1218 0 l 750 0 l 750 83 l 1124 819 l 771 819 l 771 903 m 1114 1163 l 1150 1126 l 1014 969 l 969 969 l 833 1126 l 869 1163 l 992 1076 l 1114 1163 z "},"e":{"ha":694,"x_min":118,"x_max":576,"o":"m 479 250 l 576 250 l 576 174 q 521 31 576 83 q 349 -21 465 -21 q 175 31 232 -21 q 118 174 118 83 l 118 729 q 174 872 118 819 q 346 924 229 924 q 519 872 463 924 q 576 729 576 819 l 576 424 l 215 424 l 215 174 q 248 92 215 122 q 349 63 281 63 q 447 92 415 63 q 479 174 479 122 l 479 250 m 215 507 l 479 507 l 479 729 q 447 811 479 782 q 346 840 414 840 q 247 811 279 840 q 215 729 215 782 l 215 507 z "},"é":{"ha":694,"x_min":118,"x_max":576,"o":"m 479 250 l 576 250 l 576 174 q 521 31 576 83 q 349 -21 465 -21 q 175 31 232 -21 q 118 174 118 83 l 118 729 q 174 872 118 819 q 346 924 229 924 q 519 872 463 924 q 576 729 576 819 l 576 424 l 215 424 l 215 174 q 248 92 215 122 q 349 63 281 63 q 447 92 415 63 q 479 174 479 122 l 479 250 m 215 507 l 479 507 l 479 729 q 447 811 479 782 q 346 840 414 840 q 247 811 279 840 q 215 729 215 782 l 215 507 m 417 1049 l 260 969 l 224 1006 l 394 1176 l 469 1101 l 417 1049 z "},"ĕ":{"ha":694,"x_min":118,"x_max":576,"o":"m 479 250 l 576 250 l 576 174 q 521 31 576 83 q 349 -21 465 -21 q 175 31 232 -21 q 118 174 118 83 l 118 729 q 174 872 118 819 q 346 924 229 924 q 519 872 463 924 q 576 729 576 819 l 576 424 l 215 424 l 215 174 q 248 92 215 122 q 349 63 281 63 q 447 92 415 63 q 479 174 479 122 l 479 250 m 215 507 l 479 507 l 479 729 q 447 811 479 782 q 346 840 414 840 q 247 811 279 840 q 215 729 215 782 l 215 507 m 288 1106 q 301 1073 288 1083 q 347 1063 314 1063 q 393 1073 379 1063 q 407 1106 407 1083 l 407 1133 l 483 1133 l 483 1097 q 450 1021 483 1049 q 347 993 417 993 q 243 1021 275 993 q 211 1097 211 1049 l 211 1133 l 288 1133 l 288 1106 z "},"ě":{"ha":694,"x_min":118,"x_max":576,"o":"m 479 250 l 576 250 l 576 174 q 521 31 576 83 q 349 -21 465 -21 q 175 31 232 -21 q 118 174 118 83 l 118 729 q 174 872 118 819 q 346 924 229 924 q 519 872 463 924 q 576 729 576 819 l 576 424 l 215 424 l 215 174 q 248 92 215 122 q 349 63 281 63 q 447 92 415 63 q 479 174 479 122 l 479 250 m 215 507 l 479 507 l 479 729 q 447 811 479 782 q 346 840 414 840 q 247 811 279 840 q 215 729 215 782 l 215 507 m 469 1163 l 506 1126 l 369 969 l 325 969 l 189 1126 l 225 1163 l 347 1076 l 469 1163 z "},"ê":{"ha":694,"x_min":118,"x_max":576,"o":"m 479 250 l 576 250 l 576 174 q 521 31 576 83 q 349 -21 465 -21 q 175 31 232 -21 q 118 174 118 83 l 118 729 q 174 872 118 819 q 346 924 229 924 q 519 872 463 924 q 576 729 576 819 l 576 424 l 215 424 l 215 174 q 248 92 215 122 q 349 63 281 63 q 447 92 415 63 q 479 174 479 122 l 479 250 m 215 507 l 479 507 l 479 729 q 447 811 479 782 q 346 840 414 840 q 247 811 279 840 q 215 729 215 782 l 215 507 m 225 969 l 189 1006 l 325 1163 l 369 1163 l 506 1006 l 469 969 l 347 1056 l 225 969 z "},"ế":{"ha":694,"x_min":118,"x_max":576,"o":"m 479 250 l 576 250 l 576 174 q 521 31 576 83 q 349 -21 465 -21 q 175 31 232 -21 q 118 174 118 83 l 118 729 q 174 872 118 819 q 346 924 229 924 q 519 872 463 924 q 576 729 576 819 l 576 424 l 215 424 l 215 174 q 248 92 215 122 q 349 63 281 63 q 447 92 415 63 q 479 174 479 122 l 479 250 m 215 507 l 479 507 l 479 729 q 447 811 479 782 q 346 840 414 840 q 247 811 279 840 q 215 729 215 782 l 215 507 m 225 969 l 189 1006 l 325 1163 l 369 1163 l 506 1006 l 469 969 l 347 1056 l 225 969 m 417 1267 l 260 1188 l 224 1224 l 394 1394 l 469 1319 l 417 1267 z "},"ệ":{"ha":694,"x_min":118,"x_max":576,"o":"m 479 250 l 576 250 l 576 174 q 521 31 576 83 q 349 -21 465 -21 q 175 31 232 -21 q 118 174 118 83 l 118 729 q 174 872 118 819 q 346 924 229 924 q 519 872 463 924 q 576 729 576 819 l 576 424 l 215 424 l 215 174 q 248 92 215 122 q 349 63 281 63 q 447 92 415 63 q 479 174 479 122 l 479 250 m 215 507 l 479 507 l 479 729 q 447 811 479 782 q 346 840 414 840 q 247 811 279 840 q 215 729 215 782 l 215 507 m 225 969 l 189 1006 l 325 1163 l 369 1163 l 506 1006 l 469 969 l 347 1056 l 225 969 m 292 -229 l 292 -76 l 403 -76 l 403 -229 l 292 -229 z "},"ề":{"ha":694,"x_min":118,"x_max":576,"o":"m 479 250 l 576 250 l 576 174 q 521 31 576 83 q 349 -21 465 -21 q 175 31 232 -21 q 118 174 118 83 l 118 729 q 174 872 118 819 q 346 924 229 924 q 519 872 463 924 q 576 729 576 819 l 576 424 l 215 424 l 215 174 q 248 92 215 122 q 349 63 281 63 q 447 92 415 63 q 479 174 479 122 l 479 250 m 215 507 l 479 507 l 479 729 q 447 811 479 782 q 346 840 414 840 q 247 811 279 840 q 215 729 215 782 l 215 507 m 225 969 l 189 1006 l 325 1163 l 369 1163 l 506 1006 l 469 969 l 347 1056 l 225 969 m 224 1319 l 299 1394 l 469 1224 l 433 1188 l 276 1267 l 224 1319 z "},"ể":{"ha":694,"x_min":118,"x_max":576,"o":"m 479 250 l 576 250 l 576 174 q 521 31 576 83 q 349 -21 465 -21 q 175 31 232 -21 q 118 174 118 83 l 118 729 q 174 872 118 819 q 346 924 229 924 q 519 872 463 924 q 576 729 576 819 l 576 424 l 215 424 l 215 174 q 248 92 215 122 q 349 63 281 63 q 447 92 415 63 q 479 174 479 122 l 479 250 m 215 507 l 479 507 l 479 729 q 447 811 479 782 q 346 840 414 840 q 247 811 279 840 q 215 729 215 782 l 215 507 m 225 969 l 189 1006 l 325 1163 l 369 1163 l 506 1006 l 469 969 l 347 1056 l 225 969 m 346 1233 q 404 1326 404 1283 l 404 1343 q 347 1386 404 1386 q 289 1343 289 1386 l 289 1301 l 222 1301 l 222 1340 q 252 1417 222 1389 q 347 1446 282 1446 q 442 1417 413 1446 q 471 1340 471 1389 l 471 1326 q 458 1269 471 1300 q 414 1211 446 1239 l 386 1188 l 346 1233 z "},"ễ":{"ha":694,"x_min":118,"x_max":576,"o":"m 479 250 l 576 250 l 576 174 q 521 31 576 83 q 349 -21 465 -21 q 175 31 232 -21 q 118 174 118 83 l 118 729 q 174 872 118 819 q 346 924 229 924 q 519 872 463 924 q 576 729 576 819 l 576 424 l 215 424 l 215 174 q 248 92 215 122 q 349 63 281 63 q 447 92 415 63 q 479 174 479 122 l 479 250 m 215 507 l 479 507 l 479 729 q 447 811 479 782 q 346 840 414 840 q 247 811 279 840 q 215 729 215 782 l 215 507 m 225 969 l 189 1006 l 325 1163 l 369 1163 l 506 1006 l 469 969 l 347 1056 l 225 969 m 454 1233 q 407 1272 440 1272 q 367 1259 385 1272 q 328 1233 349 1246 q 275 1219 307 1219 q 213 1247 239 1219 q 183 1322 188 1275 l 240 1342 q 288 1303 254 1303 q 328 1316 311 1303 q 367 1342 346 1329 q 419 1356 389 1356 q 481 1328 456 1356 q 511 1253 507 1301 l 454 1233 z "},"ȅ":{"ha":694,"x_min":118,"x_max":576,"o":"m 479 250 l 576 250 l 576 174 q 521 31 576 83 q 349 -21 465 -21 q 175 31 232 -21 q 118 174 118 83 l 118 729 q 174 872 118 819 q 346 924 229 924 q 519 872 463 924 q 576 729 576 819 l 576 424 l 215 424 l 215 174 q 248 92 215 122 q 349 63 281 63 q 447 92 415 63 q 479 174 479 122 l 479 250 m 215 507 l 479 507 l 479 729 q 447 811 479 782 q 346 840 414 840 q 247 811 279 840 q 215 729 215 782 l 215 507 m 388 1058 l 346 1111 l 426 1176 l 569 996 l 536 969 l 388 1058 m 165 1058 l 124 1111 l 204 1176 l 347 996 l 314 969 l 165 1058 z "},"ë":{"ha":694,"x_min":118,"x_max":576,"o":"m 479 250 l 576 250 l 576 174 q 521 31 576 83 q 349 -21 465 -21 q 175 31 232 -21 q 118 174 118 83 l 118 729 q 174 872 118 819 q 346 924 229 924 q 519 872 463 924 q 576 729 576 819 l 576 424 l 215 424 l 215 174 q 248 92 215 122 q 349 63 281 63 q 447 92 415 63 q 479 174 479 122 l 479 250 m 215 507 l 479 507 l 479 729 q 447 811 479 782 q 346 840 414 840 q 247 811 279 840 q 215 729 215 782 l 215 507 m 201 993 l 201 1146 l 299 1146 l 299 993 l 201 993 m 396 993 l 396 1146 l 493 1146 l 493 993 l 396 993 z "},"ė":{"ha":694,"x_min":118,"x_max":576,"o":"m 479 250 l 576 250 l 576 174 q 521 31 576 83 q 349 -21 465 -21 q 175 31 232 -21 q 118 174 118 83 l 118 729 q 174 872 118 819 q 346 924 229 924 q 519 872 463 924 q 576 729 576 819 l 576 424 l 215 424 l 215 174 q 248 92 215 122 q 349 63 281 63 q 447 92 415 63 q 479 174 479 122 l 479 250 m 215 507 l 479 507 l 479 729 q 447 811 479 782 q 346 840 414 840 q 247 811 279 840 q 215 729 215 782 l 215 507 m 292 993 l 292 1146 l 403 1146 l 403 993 l 292 993 z "},"ẹ":{"ha":694,"x_min":118,"x_max":576,"o":"m 479 250 l 576 250 l 576 174 q 521 31 576 83 q 349 -21 465 -21 q 175 31 232 -21 q 118 174 118 83 l 118 729 q 174 872 118 819 q 346 924 229 924 q 519 872 463 924 q 576 729 576 819 l 576 424 l 215 424 l 215 174 q 248 92 215 122 q 349 63 281 63 q 447 92 415 63 q 479 174 479 122 l 479 250 m 215 507 l 479 507 l 479 729 q 447 811 479 782 q 346 840 414 840 q 247 811 279 840 q 215 729 215 782 l 215 507 m 292 -229 l 292 -76 l 403 -76 l 403 -229 l 292 -229 z "},"è":{"ha":694,"x_min":118,"x_max":576,"o":"m 479 250 l 576 250 l 576 174 q 521 31 576 83 q 349 -21 465 -21 q 175 31 232 -21 q 118 174 118 83 l 118 729 q 174 872 118 819 q 346 924 229 924 q 519 872 463 924 q 576 729 576 819 l 576 424 l 215 424 l 215 174 q 248 92 215 122 q 349 63 281 63 q 447 92 415 63 q 479 174 479 122 l 479 250 m 215 507 l 479 507 l 479 729 q 447 811 479 782 q 346 840 414 840 q 247 811 279 840 q 215 729 215 782 l 215 507 m 224 1101 l 299 1176 l 469 1006 l 433 969 l 276 1049 l 224 1101 z "},"ẻ":{"ha":694,"x_min":118,"x_max":576,"o":"m 479 250 l 576 250 l 576 174 q 521 31 576 83 q 349 -21 465 -21 q 175 31 232 -21 q 118 174 118 83 l 118 729 q 174 872 118 819 q 346 924 229 924 q 519 872 463 924 q 576 729 576 819 l 576 424 l 215 424 l 215 174 q 248 92 215 122 q 349 63 281 63 q 447 92 415 63 q 479 174 479 122 l 479 250 m 215 507 l 479 507 l 479 729 q 447 811 479 782 q 346 840 414 840 q 247 811 279 840 q 215 729 215 782 l 215 507 m 346 1015 q 404 1108 404 1065 l 404 1125 q 347 1168 404 1168 q 289 1125 289 1168 l 289 1083 l 222 1083 l 222 1122 q 252 1199 222 1171 q 347 1228 282 1228 q 442 1199 413 1228 q 471 1122 471 1171 l 471 1108 q 458 1051 471 1082 q 414 993 446 1021 l 386 969 l 346 1015 z "},"ȇ":{"ha":694,"x_min":118,"x_max":576,"o":"m 479 250 l 576 250 l 576 174 q 521 31 576 83 q 349 -21 465 -21 q 175 31 232 -21 q 118 174 118 83 l 118 729 q 174 872 118 819 q 346 924 229 924 q 519 872 463 924 q 576 729 576 819 l 576 424 l 215 424 l 215 174 q 248 92 215 122 q 349 63 281 63 q 447 92 415 63 q 479 174 479 122 l 479 250 m 215 507 l 479 507 l 479 729 q 447 811 479 782 q 346 840 414 840 q 247 811 279 840 q 215 729 215 782 l 215 507 m 407 1021 q 394 1053 407 1043 q 347 1064 381 1064 q 301 1053 315 1064 q 288 1021 288 1043 l 288 993 l 211 993 l 211 1029 q 244 1106 211 1078 q 347 1133 278 1133 q 451 1106 419 1133 q 483 1029 483 1078 l 483 993 l 407 993 l 407 1021 z "},"ē":{"ha":694,"x_min":118,"x_max":576,"o":"m 479 250 l 576 250 l 576 174 q 521 31 576 83 q 349 -21 465 -21 q 175 31 232 -21 q 118 174 118 83 l 118 729 q 174 872 118 819 q 346 924 229 924 q 519 872 463 924 q 576 729 576 819 l 576 424 l 215 424 l 215 174 q 248 92 215 122 q 349 63 281 63 q 447 92 415 63 q 479 174 479 122 l 479 250 m 215 507 l 479 507 l 479 729 q 447 811 479 782 q 346 840 414 840 q 247 811 279 840 q 215 729 215 782 l 215 507 m 197 1111 l 497 1111 l 497 1028 l 197 1028 l 197 1111 z "},"ę":{"ha":694,"x_min":118,"x_max":576,"o":"m 479 250 l 576 250 l 576 174 q 521 31 576 83 q 349 -21 465 -21 q 175 31 232 -21 q 118 174 118 83 l 118 729 q 174 872 118 819 q 346 924 229 924 q 519 872 463 924 q 576 729 576 819 l 576 424 l 215 424 l 215 174 q 248 92 215 122 q 349 63 281 63 q 447 92 415 63 q 479 174 479 122 l 479 250 m 215 507 l 479 507 l 479 729 q 447 811 479 782 q 346 840 414 840 q 247 811 279 840 q 215 729 215 782 l 215 507 m 446 0 l 358 -71 q 290 -172 290 -126 l 290 -231 q 347 -274 290 -274 q 406 -231 406 -274 l 406 -189 l 472 -189 l 472 -228 q 442 -304 472 -275 q 347 -333 413 -333 q 253 -304 283 -333 q 224 -228 224 -275 l 224 -172 q 235 -116 224 -144 q 281 -57 246 -87 l 406 50 l 446 0 z "},"ẽ":{"ha":694,"x_min":118,"x_max":576,"o":"m 479 250 l 576 250 l 576 174 q 521 31 576 83 q 349 -21 465 -21 q 175 31 232 -21 q 118 174 118 83 l 118 729 q 174 872 118 819 q 346 924 229 924 q 519 872 463 924 q 576 729 576 819 l 576 424 l 215 424 l 215 174 q 248 92 215 122 q 349 63 281 63 q 447 92 415 63 q 479 174 479 122 l 479 250 m 215 507 l 479 507 l 479 729 q 447 811 479 782 q 346 840 414 840 q 247 811 279 840 q 215 729 215 782 l 215 507 m 454 1015 q 407 1054 440 1054 q 367 1041 385 1054 q 328 1015 349 1028 q 275 1001 307 1001 q 213 1029 239 1001 q 183 1104 188 1057 l 240 1124 q 288 1085 254 1085 q 328 1098 311 1085 q 367 1124 346 1111 q 419 1138 389 1138 q 481 1110 456 1138 q 511 1035 507 1083 l 454 1015 z "},"ə":{"ha":694,"x_min":118,"x_max":576,"o":"m 215 653 l 118 653 l 118 729 q 174 872 118 819 q 346 924 229 924 q 519 872 463 924 q 576 729 576 819 l 576 174 q 521 31 576 83 q 349 -21 465 -21 q 175 31 232 -21 q 118 174 118 83 l 118 479 l 479 479 l 479 729 q 447 811 479 782 q 346 840 414 840 q 247 811 279 840 q 215 729 215 782 l 215 653 m 479 396 l 215 396 l 215 174 q 248 92 215 122 q 349 63 281 63 q 447 92 415 63 q 479 174 479 122 l 479 396 z "},"f":{"ha":576,"x_min":139,"x_max":521,"o":"m 139 0 l 139 903 l 521 903 l 521 819 l 236 819 l 236 500 l 465 500 l 465 417 l 236 417 l 236 0 l 139 0 z "},"g":{"ha":694,"x_min":118,"x_max":576,"o":"m 324 458 l 576 458 l 576 174 q 521 31 576 83 q 349 -21 465 -21 q 175 31 232 -21 q 118 174 118 83 l 118 729 q 174 872 118 819 q 346 924 229 924 q 519 872 463 924 q 576 729 576 819 l 576 653 l 479 653 l 479 729 q 447 811 479 782 q 346 840 414 840 q 247 811 279 840 q 215 729 215 782 l 215 174 q 248 92 215 122 q 349 63 281 63 q 447 92 415 63 q 479 174 479 122 l 479 375 l 324 375 l 324 458 z "},"ğ":{"ha":694,"x_min":118,"x_max":576,"o":"m 324 458 l 576 458 l 576 174 q 521 31 576 83 q 349 -21 465 -21 q 175 31 232 -21 q 118 174 118 83 l 118 729 q 174 872 118 819 q 346 924 229 924 q 519 872 463 924 q 576 729 576 819 l 576 653 l 479 653 l 479 729 q 447 811 479 782 q 346 840 414 840 q 247 811 279 840 q 215 729 215 782 l 215 174 q 248 92 215 122 q 349 63 281 63 q 447 92 415 63 q 479 174 479 122 l 479 375 l 324 375 l 324 458 m 288 1106 q 301 1073 288 1083 q 347 1063 314 1063 q 393 1073 379 1063 q 407 1106 407 1083 l 407 1133 l 483 1133 l 483 1097 q 450 1021 483 1049 q 347 993 417 993 q 243 1021 275 993 q 211 1097 211 1049 l 211 1133 l 288 1133 l 288 1106 z "},"ǧ":{"ha":694,"x_min":118,"x_max":576,"o":"m 324 458 l 576 458 l 576 174 q 521 31 576 83 q 349 -21 465 -21 q 175 31 232 -21 q 118 174 118 83 l 118 729 q 174 872 118 819 q 346 924 229 924 q 519 872 463 924 q 576 729 576 819 l 576 653 l 479 653 l 479 729 q 447 811 479 782 q 346 840 414 840 q 247 811 279 840 q 215 729 215 782 l 215 174 q 248 92 215 122 q 349 63 281 63 q 447 92 415 63 q 479 174 479 122 l 479 375 l 324 375 l 324 458 m 469 1163 l 506 1126 l 369 969 l 325 969 l 189 1126 l 225 1163 l 347 1076 l 469 1163 z "},"ĝ":{"ha":694,"x_min":118,"x_max":576,"o":"m 324 458 l 576 458 l 576 174 q 521 31 576 83 q 349 -21 465 -21 q 175 31 232 -21 q 118 174 118 83 l 118 729 q 174 872 118 819 q 346 924 229 924 q 519 872 463 924 q 576 729 576 819 l 576 653 l 479 653 l 479 729 q 447 811 479 782 q 346 840 414 840 q 247 811 279 840 q 215 729 215 782 l 215 174 q 248 92 215 122 q 349 63 281 63 q 447 92 415 63 q 479 174 479 122 l 479 375 l 324 375 l 324 458 m 225 969 l 189 1006 l 325 1163 l 369 1163 l 506 1006 l 469 969 l 347 1056 l 225 969 z "},"ģ":{"ha":694,"x_min":118,"x_max":576,"o":"m 324 458 l 576 458 l 576 174 q 521 31 576 83 q 349 -21 465 -21 q 175 31 232 -21 q 118 174 118 83 l 118 729 q 174 872 118 819 q 346 924 229 924 q 519 872 463 924 q 576 729 576 819 l 576 653 l 479 653 l 479 729 q 447 811 479 782 q 346 840 414 840 q 247 811 279 840 q 215 729 215 782 l 215 174 q 248 92 215 122 q 349 63 281 63 q 447 92 415 63 q 479 174 479 122 l 479 375 l 324 375 l 324 458 m 353 1258 l 397 1250 l 369 1118 l 403 1106 l 403 979 l 292 979 l 292 1097 l 353 1258 z "},"ġ":{"ha":694,"x_min":118,"x_max":576,"o":"m 324 458 l 576 458 l 576 174 q 521 31 576 83 q 349 -21 465 -21 q 175 31 232 -21 q 118 174 118 83 l 118 729 q 174 872 118 819 q 346 924 229 924 q 519 872 463 924 q 576 729 576 819 l 576 653 l 479 653 l 479 729 q 447 811 479 782 q 346 840 414 840 q 247 811 279 840 q 215 729 215 782 l 215 174 q 248 92 215 122 q 349 63 281 63 q 447 92 415 63 q 479 174 479 122 l 479 375 l 324 375 l 324 458 m 292 993 l 292 1146 l 403 1146 l 403 993 l 292 993 z "},"h":{"ha":746,"x_min":139,"x_max":607,"o":"m 139 0 l 139 903 l 236 903 l 236 500 l 510 500 l 510 903 l 607 903 l 607 0 l 510 0 l 510 417 l 236 417 l 236 0 l 139 0 z "},"ħ":{"ha":746,"x_min":54,"x_max":693,"o":"m 139 0 l 139 903 l 236 903 l 236 500 l 510 500 l 510 903 l 607 903 l 607 0 l 510 0 l 510 417 l 236 417 l 236 0 l 139 0 m 54 733 l 693 733 l 693 664 l 54 664 l 54 733 z "},"ĥ":{"ha":746,"x_min":139,"x_max":607,"o":"m 139 0 l 139 903 l 236 903 l 236 500 l 510 500 l 510 903 l 607 903 l 607 0 l 510 0 l 510 417 l 236 417 l 236 0 l 139 0 m 251 969 l 215 1006 l 351 1163 l 396 1163 l 532 1006 l 496 969 l 374 1056 l 251 969 z "},"i":{"ha":375,"x_min":139,"x_max":236,"o":"m 139 0 l 139 903 l 236 903 l 236 0 l 139 0 z "},"ı":{"ha":375,"x_min":139,"x_max":236,"o":"m 139 0 l 139 903 l 236 903 l 236 0 l 139 0 z "},"í":{"ha":375,"x_min":64,"x_max":310,"o":"m 139 0 l 139 903 l 236 903 l 236 0 l 139 0 m 257 1049 l 100 969 l 64 1006 l 235 1176 l 310 1101 l 257 1049 z "},"ĭ":{"ha":375,"x_min":51,"x_max":324,"o":"m 139 0 l 139 903 l 236 903 l 236 0 l 139 0 m 128 1106 q 141 1073 128 1083 q 188 1063 154 1063 q 233 1073 219 1063 q 247 1106 247 1083 l 247 1133 l 324 1133 l 324 1097 q 290 1021 324 1049 q 188 993 257 993 q 83 1021 115 993 q 51 1097 51 1049 l 51 1133 l 128 1133 l 128 1106 z "},"î":{"ha":375,"x_min":29,"x_max":346,"o":"m 139 0 l 139 903 l 236 903 l 236 0 l 139 0 m 65 969 l 29 1006 l 165 1163 l 210 1163 l 346 1006 l 310 969 l 188 1056 l 65 969 z "},"ȉ":{"ha":375,"x_min":-36,"x_max":410,"o":"m 139 0 l 139 903 l 236 903 l 236 0 l 139 0 m 228 1058 l 186 1111 l 267 1176 l 410 996 l 376 969 l 228 1058 m 6 1058 l -36 1111 l 44 1176 l 188 996 l 154 969 l 6 1058 z "},"ï":{"ha":375,"x_min":42,"x_max":333,"o":"m 139 0 l 139 903 l 236 903 l 236 0 l 139 0 m 42 993 l 42 1146 l 139 1146 l 139 993 l 42 993 m 236 993 l 236 1146 l 333 1146 l 333 993 l 236 993 z "},"ị":{"ha":375,"x_min":132,"x_max":243,"o":"m 139 0 l 139 903 l 236 903 l 236 0 l 139 0 m 132 -229 l 132 -76 l 243 -76 l 243 -229 l 132 -229 z "},"ì":{"ha":375,"x_min":64,"x_max":310,"o":"m 139 0 l 139 903 l 236 903 l 236 0 l 139 0 m 64 1101 l 139 1176 l 310 1006 l 274 969 l 117 1049 l 64 1101 z "},"ỉ":{"ha":375,"x_min":63,"x_max":311,"o":"m 139 0 l 139 903 l 236 903 l 236 0 l 139 0 m 186 1015 q 244 1108 244 1065 l 244 1125 q 188 1168 244 1168 q 129 1125 129 1168 l 129 1083 l 63 1083 l 63 1122 q 92 1199 63 1171 q 188 1228 122 1228 q 282 1199 253 1228 q 311 1122 311 1171 l 311 1108 q 299 1051 311 1082 q 254 993 286 1021 l 226 969 l 186 1015 z "},"ȋ":{"ha":375,"x_min":51,"x_max":324,"o":"m 139 0 l 139 903 l 236 903 l 236 0 l 139 0 m 247 1021 q 234 1053 247 1043 q 188 1064 221 1064 q 142 1053 156 1064 q 128 1021 128 1043 l 128 993 l 51 993 l 51 1029 q 85 1106 51 1078 q 188 1133 118 1133 q 292 1106 260 1133 q 324 1029 324 1078 l 324 993 l 247 993 l 247 1021 z "},"ĳ":{"ha":903,"x_min":139,"x_max":778,"o":"m 139 0 l 139 903 l 236 903 l 236 0 l 139 0 m 778 903 l 778 160 q 726 24 778 69 q 589 -21 675 -21 q 453 24 503 -21 q 403 160 403 69 l 403 250 l 500 250 l 500 154 q 524 85 500 107 q 589 63 547 63 q 656 85 632 63 q 681 154 681 107 l 681 903 l 778 903 z "},"ī":{"ha":375,"x_min":38,"x_max":338,"o":"m 139 0 l 139 903 l 236 903 l 236 0 l 139 0 m 38 1111 l 338 1111 l 338 1028 l 38 1028 l 38 1111 z "},"į":{"ha":375,"x_min":14,"x_max":263,"o":"m 139 0 l 139 903 l 236 903 l 236 0 l 139 0 m 236 0 l 149 -71 q 81 -172 81 -126 l 81 -231 q 138 -274 81 -274 q 196 -231 196 -274 l 196 -189 l 263 -189 l 263 -228 q 233 -304 263 -275 q 138 -333 203 -333 q 44 -304 74 -333 q 14 -228 14 -275 l 14 -172 q 25 -116 14 -144 q 71 -57 36 -87 l 196 50 l 236 0 z "},"ĩ":{"ha":375,"x_min":24,"x_max":351,"o":"m 139 0 l 139 903 l 236 903 l 236 0 l 139 0 m 294 1015 q 247 1054 281 1054 q 207 1041 225 1054 q 168 1015 189 1028 q 115 1001 147 1001 q 53 1029 79 1001 q 24 1104 28 1057 l 81 1124 q 128 1085 94 1085 q 169 1098 151 1085 q 208 1124 186 1111 q 260 1138 229 1138 q 322 1110 296 1138 q 351 1035 347 1083 l 294 1015 z "},"j":{"ha":528,"x_min":28,"x_max":403,"o":"m 403 903 l 403 160 q 351 24 403 69 q 214 -21 300 -21 q 78 24 128 -21 q 28 160 28 69 l 28 250 l 125 250 l 125 154 q 149 85 125 107 q 214 63 172 63 q 281 85 257 63 q 306 154 306 107 l 306 903 l 403 903 z "},"ȷ":{"ha":528,"x_min":28,"x_max":403,"o":"m 403 903 l 403 160 q 351 24 403 69 q 214 -21 300 -21 q 78 24 128 -21 q 28 160 28 69 l 28 250 l 125 250 l 125 154 q 149 85 125 107 q 214 63 172 63 q 281 85 257 63 q 306 154 306 107 l 306 903 l 403 903 z "},"ĵ":{"ha":528,"x_min":28,"x_max":513,"o":"m 403 903 l 403 160 q 351 24 403 69 q 214 -21 300 -21 q 78 24 128 -21 q 28 160 28 69 l 28 250 l 125 250 l 125 154 q 149 85 125 107 q 214 63 172 63 q 281 85 257 63 q 306 154 306 107 l 306 903 l 403 903 m 232 969 l 196 1006 l 332 1163 l 376 1163 l 513 1006 l 476 969 l 354 1056 l 232 969 z "},"k":{"ha":632,"x_min":140,"x_max":604,"o":"m 140 0 l 140 903 l 238 903 l 238 519 l 479 903 l 588 903 l 342 514 l 604 0 l 497 0 l 283 421 l 238 347 l 238 0 l 140 0 z "},"ķ":{"ha":632,"x_min":140,"x_max":604,"o":"m 140 0 l 140 903 l 238 903 l 238 519 l 479 903 l 588 903 l 342 514 l 604 0 l 497 0 l 283 421 l 238 347 l 238 0 l 140 0 m 339 -356 l 294 -347 l 322 -215 l 289 -203 l 289 -76 l 400 -76 l 400 -194 l 339 -356 z "},"ĸ":{"ha":632,"x_min":140,"x_max":604,"o":"m 140 0 l 140 903 l 238 903 l 238 519 l 479 903 l 588 903 l 342 514 l 604 0 l 497 0 l 283 421 l 238 347 l 238 0 l 140 0 z "},"l":{"ha":518,"x_min":139,"x_max":490,"o":"m 139 903 l 236 903 l 236 83 l 490 83 l 490 0 l 139 0 l 139 903 z "},"ĺ":{"ha":518,"x_min":64,"x_max":490,"o":"m 139 903 l 236 903 l 236 83 l 490 83 l 490 0 l 139 0 l 139 903 m 257 1049 l 100 969 l 64 1006 l 235 1176 l 310 1101 l 257 1049 z "},"ľ":{"ha":518,"x_min":139,"x_max":490,"o":"m 139 903 l 236 903 l 236 83 l 490 83 l 490 0 l 139 0 l 139 903 m 478 1014 l 471 939 l 401 778 l 351 782 l 372 1022 l 478 1014 z "},"ļ":{"ha":518,"x_min":139,"x_max":490,"o":"m 139 903 l 236 903 l 236 83 l 490 83 l 490 0 l 139 0 l 139 903 m 319 -356 l 275 -347 l 303 -215 l 269 -203 l 269 -76 l 381 -76 l 381 -194 l 319 -356 z "},"ŀ":{"ha":518,"x_min":139,"x_max":518,"o":"m 139 903 l 236 903 l 236 83 l 490 83 l 490 0 l 139 0 l 139 903 m 393 375 l 393 528 l 518 528 l 518 375 l 393 375 z "},"ǉ":{"ha":1046,"x_min":139,"x_max":921,"o":"m 139 903 l 236 903 l 236 83 l 490 83 l 490 0 l 139 0 l 139 903 m 921 903 l 921 160 q 869 24 921 69 q 732 -21 818 -21 q 596 24 646 -21 q 546 160 546 69 l 546 250 l 643 250 l 643 154 q 667 85 643 107 q 732 63 690 63 q 799 85 775 63 q 824 154 824 107 l 824 903 l 921 903 z "},"ł":{"ha":518,"x_min":47,"x_max":490,"o":"m 139 903 l 236 903 l 236 83 l 490 83 l 490 0 l 139 0 l 139 903 m 47 394 l 393 571 l 425 508 l 79 332 l 47 394 z "},"m":{"ha":1069,"x_min":139,"x_max":944,"o":"m 139 0 l 139 903 l 181 903 l 215 814 q 290 893 243 863 q 394 924 338 924 q 513 896 469 924 q 574 822 556 868 q 648 895 603 867 q 749 924 693 924 q 865 898 822 924 q 926 828 907 872 q 944 729 944 785 l 944 0 l 847 0 l 847 729 q 828 808 847 776 q 747 840 808 840 q 671 817 707 840 q 613 762 635 794 q 590 701 590 729 l 590 0 l 493 0 l 493 729 q 474 808 493 776 q 393 840 454 840 q 317 818 353 840 q 258 765 281 796 q 236 706 236 733 l 236 0 l 139 0 z "},"n":{"ha":729,"x_min":139,"x_max":604,"o":"m 139 0 l 139 903 l 181 903 l 215 813 q 292 892 244 861 q 400 924 340 924 q 521 898 476 924 q 585 828 565 872 q 604 729 604 785 l 604 0 l 507 0 l 507 729 q 487 808 507 776 q 401 840 467 840 q 320 817 358 840 q 259 762 282 794 q 236 701 236 729 l 236 0 l 139 0 z "},"ń":{"ha":729,"x_min":139,"x_max":604,"o":"m 139 0 l 139 903 l 181 903 l 215 813 q 292 892 244 861 q 400 924 340 924 q 521 898 476 924 q 585 828 565 872 q 604 729 604 785 l 604 0 l 507 0 l 507 729 q 487 808 507 776 q 401 840 467 840 q 320 817 358 840 q 259 762 282 794 q 236 701 236 729 l 236 0 l 139 0 m 435 1049 l 278 969 l 242 1006 l 413 1176 l 488 1101 l 435 1049 z "},"ŉ":{"ha":729,"x_min":-54,"x_max":604,"o":"m 139 0 l 139 903 l 181 903 l 215 813 q 292 892 244 861 q 400 924 340 924 q 521 898 476 924 q 585 828 565 872 q 604 729 604 785 l 604 0 l 507 0 l 507 729 q 487 808 507 776 q 401 840 467 840 q 320 817 358 840 q 259 762 282 794 q 236 701 236 729 l 236 0 l 139 0 m 68 1007 l 65 896 l -4 651 l -54 657 l -43 1011 l 68 1007 z "},"ň":{"ha":729,"x_min":139,"x_max":604,"o":"m 139 0 l 139 903 l 181 903 l 215 813 q 292 892 244 861 q 400 924 340 924 q 521 898 476 924 q 585 828 565 872 q 604 729 604 785 l 604 0 l 507 0 l 507 729 q 487 808 507 776 q 401 840 467 840 q 320 817 358 840 q 259 762 282 794 q 236 701 236 729 l 236 0 l 139 0 m 488 1163 l 524 1126 l 388 969 l 343 969 l 207 1126 l 243 1163 l 365 1076 l 488 1163 z "},"ņ":{"ha":729,"x_min":139,"x_max":604,"o":"m 139 0 l 139 903 l 181 903 l 215 813 q 292 892 244 861 q 400 924 340 924 q 521 898 476 924 q 585 828 565 872 q 604 729 604 785 l 604 0 l 507 0 l 507 729 q 487 808 507 776 q 401 840 467 840 q 320 817 358 840 q 259 762 282 794 q 236 701 236 729 l 236 0 l 139 0 m 360 -356 l 315 -347 l 343 -215 l 310 -203 l 310 -76 l 421 -76 l 421 -194 l 360 -356 z "},"ǌ":{"ha":1257,"x_min":139,"x_max":1132,"o":"m 139 0 l 139 903 l 181 903 l 215 813 q 292 892 244 861 q 400 924 340 924 q 521 898 476 924 q 585 828 565 872 q 604 729 604 785 l 604 0 l 507 0 l 507 729 q 487 808 507 776 q 401 840 467 840 q 320 817 358 840 q 259 762 282 794 q 236 701 236 729 l 236 0 l 139 0 m 1132 903 l 1132 160 q 1081 24 1132 69 q 943 -21 1029 -21 q 807 24 857 -21 q 757 160 757 69 l 757 250 l 854 250 l 854 154 q 878 85 854 107 q 943 63 901 63 q 1010 85 986 63 q 1035 154 1035 107 l 1035 903 l 1132 903 z "},"ñ":{"ha":729,"x_min":139,"x_max":604,"o":"m 139 0 l 139 903 l 181 903 l 215 813 q 292 892 244 861 q 400 924 340 924 q 521 898 476 924 q 585 828 565 872 q 604 729 604 785 l 604 0 l 507 0 l 507 729 q 487 808 507 776 q 401 840 467 840 q 320 817 358 840 q 259 762 282 794 q 236 701 236 729 l 236 0 l 139 0 m 472 1015 q 425 1054 458 1054 q 385 1041 403 1054 q 346 1015 367 1028 q 293 1001 325 1001 q 231 1029 257 1001 q 201 1104 206 1057 l 258 1124 q 306 1085 272 1085 q 347 1098 329 1085 q 385 1124 364 1111 q 438 1138 407 1138 q 499 1110 474 1138 q 529 1035 525 1083 l 472 1015 z "},"ŋ":{"ha":729,"x_min":139,"x_max":604,"o":"m 139 0 l 139 903 l 181 903 l 215 813 q 292 892 244 861 q 400 924 340 924 q 521 898 476 924 q 585 828 565 872 q 604 729 604 785 l 604 -187 q 553 -323 604 -278 q 415 -368 501 -368 q 279 -323 329 -368 q 229 -187 229 -278 l 229 -153 l 326 -153 l 326 -193 q 350 -262 326 -240 q 415 -285 374 -285 q 483 -262 458 -285 q 507 -193 507 -240 l 507 729 q 487 808 507 776 q 401 840 467 840 q 320 817 358 840 q 259 762 282 794 q 236 701 236 729 l 236 0 l 139 0 z "},"o":{"ha":708,"x_min":118,"x_max":590,"o":"m 590 174 q 533 31 590 83 q 356 -21 475 -21 q 177 31 236 -21 q 118 174 118 83 l 118 729 q 176 872 118 819 q 353 924 233 924 q 531 872 472 924 q 590 729 590 819 l 590 174 m 493 729 q 458 811 493 782 q 353 840 424 840 q 249 811 283 840 q 215 729 215 782 l 215 174 q 250 92 215 122 q 356 63 285 63 q 459 92 425 63 q 493 174 493 122 l 493 729 z "},"ó":{"ha":708,"x_min":118,"x_max":590,"o":"m 590 174 q 533 31 590 83 q 356 -21 475 -21 q 177 31 236 -21 q 118 174 118 83 l 118 729 q 176 872 118 819 q 353 924 233 924 q 531 872 472 924 q 590 729 590 819 l 590 174 m 493 729 q 458 811 493 782 q 353 840 424 840 q 249 811 283 840 q 215 729 215 782 l 215 174 q 250 92 215 122 q 356 63 285 63 q 459 92 425 63 q 493 174 493 122 l 493 729 m 424 1049 l 267 969 l 231 1006 l 401 1176 l 476 1101 l 424 1049 z "},"ŏ":{"ha":708,"x_min":118,"x_max":590,"o":"m 590 174 q 533 31 590 83 q 356 -21 475 -21 q 177 31 236 -21 q 118 174 118 83 l 118 729 q 176 872 118 819 q 353 924 233 924 q 531 872 472 924 q 590 729 590 819 l 590 174 m 493 729 q 458 811 493 782 q 353 840 424 840 q 249 811 283 840 q 215 729 215 782 l 215 174 q 250 92 215 122 q 356 63 285 63 q 459 92 425 63 q 493 174 493 122 l 493 729 m 294 1106 q 308 1073 294 1083 q 354 1063 321 1063 q 400 1073 386 1063 q 414 1106 414 1083 l 414 1133 l 490 1133 l 490 1097 q 457 1021 490 1049 q 354 993 424 993 q 250 1021 282 993 q 218 1097 218 1049 l 218 1133 l 294 1133 l 294 1106 z "},"ô":{"ha":708,"x_min":118,"x_max":590,"o":"m 590 174 q 533 31 590 83 q 356 -21 475 -21 q 177 31 236 -21 q 118 174 118 83 l 118 729 q 176 872 118 819 q 353 924 233 924 q 531 872 472 924 q 590 729 590 819 l 590 174 m 493 729 q 458 811 493 782 q 353 840 424 840 q 249 811 283 840 q 215 729 215 782 l 215 174 q 250 92 215 122 q 356 63 285 63 q 459 92 425 63 q 493 174 493 122 l 493 729 m 232 969 l 196 1006 l 332 1163 l 376 1163 l 513 1006 l 476 969 l 354 1056 l 232 969 z "},"ố":{"ha":708,"x_min":118,"x_max":590,"o":"m 590 174 q 533 31 590 83 q 356 -21 475 -21 q 177 31 236 -21 q 118 174 118 83 l 118 729 q 176 872 118 819 q 353 924 233 924 q 531 872 472 924 q 590 729 590 819 l 590 174 m 493 729 q 458 811 493 782 q 353 840 424 840 q 249 811 283 840 q 215 729 215 782 l 215 174 q 250 92 215 122 q 356 63 285 63 q 459 92 425 63 q 493 174 493 122 l 493 729 m 232 969 l 196 1006 l 332 1163 l 376 1163 l 513 1006 l 476 969 l 354 1056 l 232 969 m 424 1267 l 267 1188 l 231 1224 l 401 1394 l 476 1319 l 424 1267 z "},"ộ":{"ha":708,"x_min":118,"x_max":590,"o":"m 590 174 q 533 31 590 83 q 356 -21 475 -21 q 177 31 236 -21 q 118 174 118 83 l 118 729 q 176 872 118 819 q 353 924 233 924 q 531 872 472 924 q 590 729 590 819 l 590 174 m 493 729 q 458 811 493 782 q 353 840 424 840 q 249 811 283 840 q 215 729 215 782 l 215 174 q 250 92 215 122 q 356 63 285 63 q 459 92 425 63 q 493 174 493 122 l 493 729 m 232 969 l 196 1006 l 332 1163 l 376 1163 l 513 1006 l 476 969 l 354 1056 l 232 969 m 299 -229 l 299 -76 l 410 -76 l 410 -229 l 299 -229 z "},"ồ":{"ha":708,"x_min":118,"x_max":590,"o":"m 590 174 q 533 31 590 83 q 356 -21 475 -21 q 177 31 236 -21 q 118 174 118 83 l 118 729 q 176 872 118 819 q 353 924 233 924 q 531 872 472 924 q 590 729 590 819 l 590 174 m 493 729 q 458 811 493 782 q 353 840 424 840 q 249 811 283 840 q 215 729 215 782 l 215 174 q 250 92 215 122 q 356 63 285 63 q 459 92 425 63 q 493 174 493 122 l 493 729 m 232 969 l 196 1006 l 332 1163 l 376 1163 l 513 1006 l 476 969 l 354 1056 l 232 969 m 231 1319 l 306 1394 l 476 1224 l 440 1188 l 283 1267 l 231 1319 z "},"ổ":{"ha":708,"x_min":118,"x_max":590,"o":"m 590 174 q 533 31 590 83 q 356 -21 475 -21 q 177 31 236 -21 q 118 174 118 83 l 118 729 q 176 872 118 819 q 353 924 233 924 q 531 872 472 924 q 590 729 590 819 l 590 174 m 493 729 q 458 811 493 782 q 353 840 424 840 q 249 811 283 840 q 215 729 215 782 l 215 174 q 250 92 215 122 q 356 63 285 63 q 459 92 425 63 q 493 174 493 122 l 493 729 m 232 969 l 196 1006 l 332 1163 l 376 1163 l 513 1006 l 476 969 l 354 1056 l 232 969 m 353 1233 q 411 1326 411 1283 l 411 1343 q 354 1386 411 1386 q 296 1343 296 1386 l 296 1301 l 229 1301 l 229 1340 q 259 1417 229 1389 q 354 1446 289 1446 q 449 1417 419 1446 q 478 1340 478 1389 l 478 1326 q 465 1269 478 1300 q 421 1211 453 1239 l 393 1188 l 353 1233 z "},"ỗ":{"ha":708,"x_min":118,"x_max":590,"o":"m 590 174 q 533 31 590 83 q 356 -21 475 -21 q 177 31 236 -21 q 118 174 118 83 l 118 729 q 176 872 118 819 q 353 924 233 924 q 531 872 472 924 q 590 729 590 819 l 590 174 m 493 729 q 458 811 493 782 q 353 840 424 840 q 249 811 283 840 q 215 729 215 782 l 215 174 q 250 92 215 122 q 356 63 285 63 q 459 92 425 63 q 493 174 493 122 l 493 729 m 232 969 l 196 1006 l 332 1163 l 376 1163 l 513 1006 l 476 969 l 354 1056 l 232 969 m 461 1233 q 414 1272 447 1272 q 374 1259 392 1272 q 335 1233 356 1246 q 282 1219 314 1219 q 220 1247 246 1219 q 190 1322 194 1275 l 247 1342 q 294 1303 261 1303 q 335 1316 318 1303 q 374 1342 353 1329 q 426 1356 396 1356 q 488 1328 463 1356 q 518 1253 514 1301 l 461 1233 z "},"ȍ":{"ha":708,"x_min":118,"x_max":590,"o":"m 590 174 q 533 31 590 83 q 356 -21 475 -21 q 177 31 236 -21 q 118 174 118 83 l 118 729 q 176 872 118 819 q 353 924 233 924 q 531 872 472 924 q 590 729 590 819 l 590 174 m 493 729 q 458 811 493 782 q 353 840 424 840 q 249 811 283 840 q 215 729 215 782 l 215 174 q 250 92 215 122 q 356 63 285 63 q 459 92 425 63 q 493 174 493 122 l 493 729 m 394 1058 l 353 1111 l 433 1176 l 576 996 l 543 969 l 394 1058 m 172 1058 l 131 1111 l 211 1176 l 354 996 l 321 969 l 172 1058 z "},"ö":{"ha":708,"x_min":118,"x_max":590,"o":"m 590 174 q 533 31 590 83 q 356 -21 475 -21 q 177 31 236 -21 q 118 174 118 83 l 118 729 q 176 872 118 819 q 353 924 233 924 q 531 872 472 924 q 590 729 590 819 l 590 174 m 493 729 q 458 811 493 782 q 353 840 424 840 q 249 811 283 840 q 215 729 215 782 l 215 174 q 250 92 215 122 q 356 63 285 63 q 459 92 425 63 q 493 174 493 122 l 493 729 m 208 993 l 208 1146 l 306 1146 l 306 993 l 208 993 m 403 993 l 403 1146 l 500 1146 l 500 993 l 403 993 z "},"ȫ":{"ha":708,"x_min":118,"x_max":590,"o":"m 590 174 q 533 31 590 83 q 356 -21 475 -21 q 177 31 236 -21 q 118 174 118 83 l 118 729 q 176 872 118 819 q 353 924 233 924 q 531 872 472 924 q 590 729 590 819 l 590 174 m 493 729 q 458 811 493 782 q 353 840 424 840 q 249 811 283 840 q 215 729 215 782 l 215 174 q 250 92 215 122 q 356 63 285 63 q 459 92 425 63 q 493 174 493 122 l 493 729 m 208 993 l 208 1146 l 306 1146 l 306 993 l 208 993 m 403 993 l 403 1146 l 500 1146 l 500 993 l 403 993 m 204 1354 l 504 1354 l 504 1271 l 204 1271 l 204 1354 z "},"ȱ":{"ha":708,"x_min":118,"x_max":590,"o":"m 590 174 q 533 31 590 83 q 356 -21 475 -21 q 177 31 236 -21 q 118 174 118 83 l 118 729 q 176 872 118 819 q 353 924 233 924 q 531 872 472 924 q 590 729 590 819 l 590 174 m 493 729 q 458 811 493 782 q 353 840 424 840 q 249 811 283 840 q 215 729 215 782 l 215 174 q 250 92 215 122 q 356 63 285 63 q 459 92 425 63 q 493 174 493 122 l 493 729 m 299 993 l 299 1146 l 410 1146 l 410 993 l 299 993 m 204 1354 l 504 1354 l 504 1271 l 204 1271 l 204 1354 z "},"ọ":{"ha":708,"x_min":118,"x_max":590,"o":"m 590 174 q 533 31 590 83 q 356 -21 475 -21 q 177 31 236 -21 q 118 174 118 83 l 118 729 q 176 872 118 819 q 353 924 233 924 q 531 872 472 924 q 590 729 590 819 l 590 174 m 493 729 q 458 811 493 782 q 353 840 424 840 q 249 811 283 840 q 215 729 215 782 l 215 174 q 250 92 215 122 q 356 63 285 63 q 459 92 425 63 q 493 174 493 122 l 493 729 m 299 -229 l 299 -76 l 410 -76 l 410 -229 l 299 -229 z "},"ò":{"ha":708,"x_min":118,"x_max":590,"o":"m 590 174 q 533 31 590 83 q 356 -21 475 -21 q 177 31 236 -21 q 118 174 118 83 l 118 729 q 176 872 118 819 q 353 924 233 924 q 531 872 472 924 q 590 729 590 819 l 590 174 m 493 729 q 458 811 493 782 q 353 840 424 840 q 249 811 283 840 q 215 729 215 782 l 215 174 q 250 92 215 122 q 356 63 285 63 q 459 92 425 63 q 493 174 493 122 l 493 729 m 231 1101 l 306 1176 l 476 1006 l 440 969 l 283 1049 l 231 1101 z "},"ỏ":{"ha":708,"x_min":118,"x_max":590,"o":"m 590 174 q 533 31 590 83 q 356 -21 475 -21 q 177 31 236 -21 q 118 174 118 83 l 118 729 q 176 872 118 819 q 353 924 233 924 q 531 872 472 924 q 590 729 590 819 l 590 174 m 493 729 q 458 811 493 782 q 353 840 424 840 q 249 811 283 840 q 215 729 215 782 l 215 174 q 250 92 215 122 q 356 63 285 63 q 459 92 425 63 q 493 174 493 122 l 493 729 m 353 1015 q 411 1108 411 1065 l 411 1125 q 354 1168 411 1168 q 296 1125 296 1168 l 296 1083 l 229 1083 l 229 1122 q 259 1199 229 1171 q 354 1228 289 1228 q 449 1199 419 1228 q 478 1122 478 1171 l 478 1108 q 465 1051 478 1082 q 421 993 453 1021 l 393 969 l 353 1015 z "},"ơ":{"ha":708,"x_min":118,"x_max":669,"o":"m 590 174 q 533 31 590 83 q 356 -21 475 -21 q 177 31 236 -21 q 118 174 118 83 l 118 729 q 176 872 118 819 q 353 924 233 924 q 531 872 472 924 q 590 729 590 819 l 590 174 m 493 729 q 458 811 493 782 q 353 840 424 840 q 249 811 283 840 q 215 729 215 782 l 215 174 q 250 92 215 122 q 356 63 285 63 q 459 92 425 63 q 493 174 493 122 l 493 729 m 533 903 q 579 913 565 903 q 593 946 593 924 l 593 1015 l 669 1015 l 669 938 q 636 861 669 889 q 533 833 603 833 l 471 833 l 471 903 l 533 903 z "},"ớ":{"ha":708,"x_min":118,"x_max":669,"o":"m 590 174 q 533 31 590 83 q 356 -21 475 -21 q 177 31 236 -21 q 118 174 118 83 l 118 729 q 176 872 118 819 q 353 924 233 924 q 531 872 472 924 q 590 729 590 819 l 590 174 m 493 729 q 458 811 493 782 q 353 840 424 840 q 249 811 283 840 q 215 729 215 782 l 215 174 q 250 92 215 122 q 356 63 285 63 q 459 92 425 63 q 493 174 493 122 l 493 729 m 533 903 q 579 913 565 903 q 593 946 593 924 l 593 1015 l 669 1015 l 669 938 q 636 861 669 889 q 533 833 603 833 l 471 833 l 471 903 l 533 903 m 424 1049 l 267 969 l 231 1006 l 401 1176 l 476 1101 l 424 1049 z "},"ợ":{"ha":708,"x_min":118,"x_max":669,"o":"m 590 174 q 533 31 590 83 q 356 -21 475 -21 q 177 31 236 -21 q 118 174 118 83 l 118 729 q 176 872 118 819 q 353 924 233 924 q 531 872 472 924 q 590 729 590 819 l 590 174 m 493 729 q 458 811 493 782 q 353 840 424 840 q 249 811 283 840 q 215 729 215 782 l 215 174 q 250 92 215 122 q 356 63 285 63 q 459 92 425 63 q 493 174 493 122 l 493 729 m 533 903 q 579 913 565 903 q 593 946 593 924 l 593 1015 l 669 1015 l 669 938 q 636 861 669 889 q 533 833 603 833 l 471 833 l 471 903 l 533 903 m 299 -229 l 299 -76 l 410 -76 l 410 -229 l 299 -229 z "},"ờ":{"ha":708,"x_min":118,"x_max":669,"o":"m 590 174 q 533 31 590 83 q 356 -21 475 -21 q 177 31 236 -21 q 118 174 118 83 l 118 729 q 176 872 118 819 q 353 924 233 924 q 531 872 472 924 q 590 729 590 819 l 590 174 m 493 729 q 458 811 493 782 q 353 840 424 840 q 249 811 283 840 q 215 729 215 782 l 215 174 q 250 92 215 122 q 356 63 285 63 q 459 92 425 63 q 493 174 493 122 l 493 729 m 533 903 q 579 913 565 903 q 593 946 593 924 l 593 1015 l 669 1015 l 669 938 q 636 861 669 889 q 533 833 603 833 l 471 833 l 471 903 l 533 903 m 231 1101 l 306 1176 l 476 1006 l 440 969 l 283 1049 l 231 1101 z "},"ở":{"ha":708,"x_min":118,"x_max":669,"o":"m 590 174 q 533 31 590 83 q 356 -21 475 -21 q 177 31 236 -21 q 118 174 118 83 l 118 729 q 176 872 118 819 q 353 924 233 924 q 531 872 472 924 q 590 729 590 819 l 590 174 m 493 729 q 458 811 493 782 q 353 840 424 840 q 249 811 283 840 q 215 729 215 782 l 215 174 q 250 92 215 122 q 356 63 285 63 q 459 92 425 63 q 493 174 493 122 l 493 729 m 533 903 q 579 913 565 903 q 593 946 593 924 l 593 1015 l 669 1015 l 669 938 q 636 861 669 889 q 533 833 603 833 l 471 833 l 471 903 l 533 903 m 353 1015 q 411 1108 411 1065 l 411 1125 q 354 1168 411 1168 q 296 1125 296 1168 l 296 1083 l 229 1083 l 229 1122 q 259 1199 229 1171 q 354 1228 289 1228 q 449 1199 419 1228 q 478 1122 478 1171 l 478 1108 q 465 1051 478 1082 q 421 993 453 1021 l 393 969 l 353 1015 z "},"ỡ":{"ha":708,"x_min":118,"x_max":669,"o":"m 590 174 q 533 31 590 83 q 356 -21 475 -21 q 177 31 236 -21 q 118 174 118 83 l 118 729 q 176 872 118 819 q 353 924 233 924 q 531 872 472 924 q 590 729 590 819 l 590 174 m 493 729 q 458 811 493 782 q 353 840 424 840 q 249 811 283 840 q 215 729 215 782 l 215 174 q 250 92 215 122 q 356 63 285 63 q 459 92 425 63 q 493 174 493 122 l 493 729 m 533 903 q 579 913 565 903 q 593 946 593 924 l 593 1015 l 669 1015 l 669 938 q 636 861 669 889 q 533 833 603 833 l 471 833 l 471 903 l 533 903 m 461 1015 q 414 1054 447 1054 q 374 1041 392 1054 q 335 1015 356 1028 q 282 1001 314 1001 q 220 1029 246 1001 q 190 1104 194 1057 l 247 1124 q 294 1085 261 1085 q 335 1098 318 1085 q 374 1124 353 1111 q 426 1138 396 1138 q 488 1110 463 1138 q 518 1035 514 1083 l 461 1015 z "},"ő":{"ha":708,"x_min":118,"x_max":590,"o":"m 590 174 q 533 31 590 83 q 356 -21 475 -21 q 177 31 236 -21 q 118 174 118 83 l 118 729 q 176 872 118 819 q 353 924 233 924 q 531 872 472 924 q 590 729 590 819 l 590 174 m 493 729 q 458 811 493 782 q 353 840 424 840 q 249 811 283 840 q 215 729 215 782 l 215 174 q 250 92 215 122 q 356 63 285 63 q 459 92 425 63 q 493 174 493 122 l 493 729 m 322 1058 l 174 969 l 140 996 l 283 1176 l 364 1111 l 322 1058 m 544 1058 l 396 969 l 363 996 l 506 1176 l 586 1111 l 544 1058 z "},"ȏ":{"ha":708,"x_min":118,"x_max":590,"o":"m 590 174 q 533 31 590 83 q 356 -21 475 -21 q 177 31 236 -21 q 118 174 118 83 l 118 729 q 176 872 118 819 q 353 924 233 924 q 531 872 472 924 q 590 729 590 819 l 590 174 m 493 729 q 458 811 493 782 q 353 840 424 840 q 249 811 283 840 q 215 729 215 782 l 215 174 q 250 92 215 122 q 356 63 285 63 q 459 92 425 63 q 493 174 493 122 l 493 729 m 414 1021 q 401 1053 414 1043 q 354 1064 388 1064 q 308 1053 322 1064 q 294 1021 294 1043 l 294 993 l 218 993 l 218 1029 q 251 1106 218 1078 q 354 1133 285 1133 q 458 1106 426 1133 q 490 1029 490 1078 l 490 993 l 414 993 l 414 1021 z "},"ō":{"ha":708,"x_min":118,"x_max":590,"o":"m 590 174 q 533 31 590 83 q 356 -21 475 -21 q 177 31 236 -21 q 118 174 118 83 l 118 729 q 176 872 118 819 q 353 924 233 924 q 531 872 472 924 q 590 729 590 819 l 590 174 m 493 729 q 458 811 493 782 q 353 840 424 840 q 249 811 283 840 q 215 729 215 782 l 215 174 q 250 92 215 122 q 356 63 285 63 q 459 92 425 63 q 493 174 493 122 l 493 729 m 204 1111 l 504 1111 l 504 1028 l 204 1028 l 204 1111 z "},"ǫ":{"ha":708,"x_min":118,"x_max":590,"o":"m 590 174 q 533 31 590 83 q 356 -21 475 -21 q 177 31 236 -21 q 118 174 118 83 l 118 729 q 176 872 118 819 q 353 924 233 924 q 531 872 472 924 q 590 729 590 819 l 590 174 m 493 729 q 458 811 493 782 q 353 840 424 840 q 249 811 283 840 q 215 729 215 782 l 215 174 q 250 92 215 122 q 356 63 285 63 q 459 92 425 63 q 493 174 493 122 l 493 729 m 461 0 l 374 -71 q 306 -172 306 -126 l 306 -231 q 363 -274 306 -274 q 421 -231 421 -274 l 421 -189 l 488 -189 l 488 -228 q 458 -304 488 -275 q 363 -333 428 -333 q 269 -304 299 -333 q 239 -228 239 -275 l 239 -172 q 250 -116 239 -144 q 296 -57 261 -87 l 421 50 l 461 0 z "},"ø":{"ha":708,"x_min":118,"x_max":590,"o":"m 590 174 q 533 31 590 83 q 356 -21 475 -21 q 177 31 236 -21 q 118 174 118 83 l 118 729 q 176 872 118 819 q 353 924 233 924 q 531 872 472 924 q 590 729 590 819 l 590 174 m 493 729 q 458 811 493 782 q 353 840 424 840 q 249 811 283 840 q 215 729 215 782 l 215 174 q 250 92 215 122 q 356 63 285 63 q 459 92 425 63 q 493 174 493 122 l 493 729 m 201 -83 l 444 986 l 507 986 l 264 -83 l 201 -83 z "},"ǿ":{"ha":708,"x_min":118,"x_max":590,"o":"m 590 174 q 533 31 590 83 q 356 -21 475 -21 q 177 31 236 -21 q 118 174 118 83 l 118 729 q 176 872 118 819 q 353 924 233 924 q 531 872 472 924 q 590 729 590 819 l 590 174 m 493 729 q 458 811 493 782 q 353 840 424 840 q 249 811 283 840 q 215 729 215 782 l 215 174 q 250 92 215 122 q 356 63 285 63 q 459 92 425 63 q 493 174 493 122 l 493 729 m 201 -83 l 444 986 l 507 986 l 264 -83 l 201 -83 m 424 1049 l 267 969 l 231 1006 l 401 1176 l 476 1101 l 424 1049 z "},"õ":{"ha":708,"x_min":118,"x_max":590,"o":"m 590 174 q 533 31 590 83 q 356 -21 475 -21 q 177 31 236 -21 q 118 174 118 83 l 118 729 q 176 872 118 819 q 353 924 233 924 q 531 872 472 924 q 590 729 590 819 l 590 174 m 493 729 q 458 811 493 782 q 353 840 424 840 q 249 811 283 840 q 215 729 215 782 l 215 174 q 250 92 215 122 q 356 63 285 63 q 459 92 425 63 q 493 174 493 122 l 493 729 m 461 1015 q 414 1054 447 1054 q 374 1041 392 1054 q 335 1015 356 1028 q 282 1001 314 1001 q 220 1029 246 1001 q 190 1104 194 1057 l 247 1124 q 294 1085 261 1085 q 335 1098 318 1085 q 374 1124 353 1111 q 426 1138 396 1138 q 488 1110 463 1138 q 518 1035 514 1083 l 461 1015 z "},"ȭ":{"ha":708,"x_min":118,"x_max":590,"o":"m 590 174 q 533 31 590 83 q 356 -21 475 -21 q 177 31 236 -21 q 118 174 118 83 l 118 729 q 176 872 118 819 q 353 924 233 924 q 531 872 472 924 q 590 729 590 819 l 590 174 m 493 729 q 458 811 493 782 q 353 840 424 840 q 249 811 283 840 q 215 729 215 782 l 215 174 q 250 92 215 122 q 356 63 285 63 q 459 92 425 63 q 493 174 493 122 l 493 729 m 461 1015 q 414 1054 447 1054 q 374 1041 392 1054 q 335 1015 356 1028 q 282 1001 314 1001 q 220 1029 246 1001 q 190 1104 194 1057 l 247 1124 q 294 1085 261 1085 q 335 1098 318 1085 q 374 1124 353 1111 q 426 1138 396 1138 q 488 1110 463 1138 q 518 1035 514 1083 l 461 1015 m 204 1346 l 504 1346 l 504 1263 l 204 1263 l 204 1346 z "},"œ":{"ha":1069,"x_min":118,"x_max":951,"o":"m 854 250 l 951 250 l 951 174 q 896 31 951 83 q 724 -21 840 -21 q 610 -2 654 -21 q 542 51 567 17 q 472 -2 517 17 q 356 -21 426 -21 q 177 31 236 -21 q 118 174 118 83 l 118 729 q 176 872 118 819 q 353 924 233 924 q 470 905 425 924 q 540 850 515 886 q 608 905 564 886 q 721 924 651 924 q 894 872 838 924 q 951 729 951 819 l 951 424 l 590 424 l 590 174 q 623 92 590 122 q 724 63 656 63 q 822 92 790 63 q 854 174 854 122 l 854 250 m 493 729 q 458 811 493 782 q 353 840 424 840 q 249 811 283 840 q 215 729 215 782 l 215 174 q 250 92 215 122 q 356 63 285 63 q 459 92 425 63 q 493 174 493 122 l 493 729 m 590 507 l 854 507 l 854 729 q 822 811 854 782 q 721 840 789 840 q 622 811 654 840 q 590 729 590 782 l 590 507 z "},"p":{"ha":653,"x_min":139,"x_max":569,"o":"m 139 0 l 139 903 l 349 903 q 515 851 460 903 q 569 708 569 799 l 569 472 q 515 330 569 382 q 349 278 461 278 l 236 278 l 236 0 l 139 0 m 472 708 q 441 790 472 760 q 349 819 410 819 l 236 819 l 236 361 l 349 361 q 442 391 411 361 q 472 472 472 421 l 472 708 z "},"þ":{"ha":653,"x_min":139,"x_max":569,"o":"m 139 0 l 139 903 l 236 903 l 236 764 l 349 764 q 515 712 460 764 q 569 569 569 660 l 569 333 q 515 191 569 243 q 349 139 461 139 l 236 139 l 236 0 l 139 0 m 472 569 q 441 651 472 621 q 349 681 410 681 l 236 681 l 236 222 l 349 222 q 442 252 411 222 q 472 333 472 282 l 472 569 z "},"q":{"ha":708,"x_min":118,"x_max":708,"o":"m 590 174 q 507 25 590 71 l 708 -14 l 693 -87 l 356 -21 q 177 31 236 -21 q 118 174 118 83 l 118 729 q 176 872 118 819 q 353 924 233 924 q 531 872 472 924 q 590 729 590 819 l 590 174 m 493 729 q 458 811 493 782 q 353 840 424 840 q 249 811 283 840 q 215 729 215 782 l 215 174 q 250 92 215 122 q 356 63 285 63 q 459 92 425 63 q 493 174 493 122 l 493 729 z "},"r":{"ha":556,"x_min":139,"x_max":528,"o":"m 139 0 l 139 903 l 181 903 l 221 800 q 274 888 240 853 q 363 924 307 924 q 485 878 443 924 q 528 743 528 833 l 528 653 l 435 653 l 435 749 q 417 815 435 789 q 358 840 399 840 q 303 819 332 840 q 256 753 275 799 q 236 635 236 708 l 236 0 l 139 0 z "},"ŕ":{"ha":556,"x_min":139,"x_max":528,"o":"m 139 0 l 139 903 l 181 903 l 221 800 q 274 888 240 853 q 363 924 307 924 q 485 878 443 924 q 528 743 528 833 l 528 653 l 435 653 l 435 749 q 417 815 435 789 q 358 840 399 840 q 303 819 332 840 q 256 753 275 799 q 236 635 236 708 l 236 0 l 139 0 m 403 1049 l 246 969 l 210 1006 l 381 1176 l 456 1101 l 403 1049 z "},"ř":{"ha":556,"x_min":139,"x_max":528,"o":"m 139 0 l 139 903 l 181 903 l 221 800 q 274 888 240 853 q 363 924 307 924 q 485 878 443 924 q 528 743 528 833 l 528 653 l 435 653 l 435 749 q 417 815 435 789 q 358 840 399 840 q 303 819 332 840 q 256 753 275 799 q 236 635 236 708 l 236 0 l 139 0 m 456 1163 l 492 1126 l 356 969 l 311 969 l 175 1126 l 211 1163 l 333 1076 l 456 1163 z "},"ŗ":{"ha":556,"x_min":132,"x_max":528,"o":"m 139 0 l 139 903 l 181 903 l 221 800 q 274 888 240 853 q 363 924 307 924 q 485 878 443 924 q 528 743 528 833 l 528 653 l 435 653 l 435 749 q 417 815 435 789 q 358 840 399 840 q 303 819 332 840 q 256 753 275 799 q 236 635 236 708 l 236 0 l 139 0 m 182 -356 l 138 -347 l 165 -215 l 132 -203 l 132 -76 l 243 -76 l 243 -194 l 182 -356 z "},"ȑ":{"ha":556,"x_min":110,"x_max":556,"o":"m 139 0 l 139 903 l 181 903 l 221 800 q 274 888 240 853 q 363 924 307 924 q 485 878 443 924 q 528 743 528 833 l 528 653 l 435 653 l 435 749 q 417 815 435 789 q 358 840 399 840 q 303 819 332 840 q 256 753 275 799 q 236 635 236 708 l 236 0 l 139 0 m 374 1058 l 332 1111 l 413 1176 l 556 996 l 522 969 l 374 1058 m 151 1058 l 110 1111 l 190 1176 l 333 996 l 300 969 l 151 1058 z "},"ȓ":{"ha":556,"x_min":139,"x_max":528,"o":"m 139 0 l 139 903 l 181 903 l 221 800 q 274 888 240 853 q 363 924 307 924 q 485 878 443 924 q 528 743 528 833 l 528 653 l 435 653 l 435 749 q 417 815 435 789 q 358 840 399 840 q 303 819 332 840 q 256 753 275 799 q 236 635 236 708 l 236 0 l 139 0 m 393 1021 q 380 1053 393 1043 q 333 1064 367 1064 q 288 1053 301 1064 q 274 1021 274 1043 l 274 993 l 197 993 l 197 1029 q 231 1106 197 1078 q 333 1133 264 1133 q 438 1106 406 1133 q 469 1029 469 1078 l 469 993 l 393 993 l 393 1021 z "},"s":{"ha":692,"x_min":111,"x_max":581,"o":"m 510 363 q 566 276 551 318 q 581 174 581 235 q 525 31 581 83 q 346 -21 469 -21 q 167 31 224 -21 q 111 174 111 83 l 111 292 l 208 292 l 208 168 q 242 92 208 121 q 346 63 276 63 q 449 92 415 63 q 483 168 483 121 q 474 240 483 211 q 431 303 465 269 l 186 542 q 127 628 143 586 q 111 729 111 669 q 168 872 111 819 q 343 924 225 924 q 513 872 460 924 q 567 729 567 819 l 567 611 l 469 611 l 469 735 q 438 812 469 783 q 339 840 406 840 q 240 812 272 840 q 208 735 208 783 q 217 663 208 692 q 261 601 226 633 l 510 363 z "},"ś":{"ha":692,"x_min":111,"x_max":581,"o":"m 510 363 q 566 276 551 318 q 581 174 581 235 q 525 31 581 83 q 346 -21 469 -21 q 167 31 224 -21 q 111 174 111 83 l 111 292 l 208 292 l 208 168 q 242 92 208 121 q 346 63 276 63 q 449 92 415 63 q 483 168 483 121 q 474 240 483 211 q 431 303 465 269 l 186 542 q 127 628 143 586 q 111 729 111 669 q 168 872 111 819 q 343 924 225 924 q 513 872 460 924 q 567 729 567 819 l 567 611 l 469 611 l 469 735 q 438 812 469 783 q 339 840 406 840 q 240 812 272 840 q 208 735 208 783 q 217 663 208 692 q 261 601 226 633 l 510 363 m 415 1049 l 258 969 l 222 1006 l 393 1176 l 468 1101 l 415 1049 z "},"š":{"ha":692,"x_min":111,"x_max":581,"o":"m 510 363 q 566 276 551 318 q 581 174 581 235 q 525 31 581 83 q 346 -21 469 -21 q 167 31 224 -21 q 111 174 111 83 l 111 292 l 208 292 l 208 168 q 242 92 208 121 q 346 63 276 63 q 449 92 415 63 q 483 168 483 121 q 474 240 483 211 q 431 303 465 269 l 186 542 q 127 628 143 586 q 111 729 111 669 q 168 872 111 819 q 343 924 225 924 q 513 872 460 924 q 567 729 567 819 l 567 611 l 469 611 l 469 735 q 438 812 469 783 q 339 840 406 840 q 240 812 272 840 q 208 735 208 783 q 217 663 208 692 q 261 601 226 633 l 510 363 m 468 1163 l 504 1126 l 368 969 l 324 969 l 188 1126 l 224 1163 l 346 1076 l 468 1163 z "},"ş":{"ha":692,"x_min":111,"x_max":581,"o":"m 510 363 q 566 276 551 318 q 581 174 581 235 q 525 31 581 83 q 346 -21 469 -21 q 167 31 224 -21 q 111 174 111 83 l 111 292 l 208 292 l 208 168 q 242 92 208 121 q 346 63 276 63 q 449 92 415 63 q 483 168 483 121 q 474 240 483 211 q 431 303 465 269 l 186 542 q 127 628 143 586 q 111 729 111 669 q 168 872 111 819 q 343 924 225 924 q 513 872 460 924 q 567 729 567 819 l 567 611 l 469 611 l 469 735 q 438 812 469 783 q 339 840 406 840 q 240 812 272 840 q 208 735 208 783 q 217 663 208 692 q 261 601 226 633 l 510 363 m 382 3 l 364 -86 l 371 -86 q 458 -117 429 -86 q 488 -196 488 -147 l 488 -228 q 458 -304 488 -275 q 364 -333 429 -333 q 269 -304 299 -333 q 239 -228 239 -275 l 239 -217 l 306 -217 l 306 -231 q 364 -274 306 -274 q 421 -231 421 -274 l 421 -196 q 408 -162 421 -178 q 371 -146 394 -146 l 288 -146 l 317 3 l 382 3 z "},"ŝ":{"ha":692,"x_min":111,"x_max":581,"o":"m 510 363 q 566 276 551 318 q 581 174 581 235 q 525 31 581 83 q 346 -21 469 -21 q 167 31 224 -21 q 111 174 111 83 l 111 292 l 208 292 l 208 168 q 242 92 208 121 q 346 63 276 63 q 449 92 415 63 q 483 168 483 121 q 474 240 483 211 q 431 303 465 269 l 186 542 q 127 628 143 586 q 111 729 111 669 q 168 872 111 819 q 343 924 225 924 q 513 872 460 924 q 567 729 567 819 l 567 611 l 469 611 l 469 735 q 438 812 469 783 q 339 840 406 840 q 240 812 272 840 q 208 735 208 783 q 217 663 208 692 q 261 601 226 633 l 510 363 m 224 969 l 188 1006 l 324 1163 l 368 1163 l 504 1006 l 468 969 l 346 1056 l 224 969 z "},"ș":{"ha":692,"x_min":111,"x_max":581,"o":"m 510 363 q 566 276 551 318 q 581 174 581 235 q 525 31 581 83 q 346 -21 469 -21 q 167 31 224 -21 q 111 174 111 83 l 111 292 l 208 292 l 208 168 q 242 92 208 121 q 346 63 276 63 q 449 92 415 63 q 483 168 483 121 q 474 240 483 211 q 431 303 465 269 l 186 542 q 127 628 143 586 q 111 729 111 669 q 168 872 111 819 q 343 924 225 924 q 513 872 460 924 q 567 729 567 819 l 567 611 l 469 611 l 469 735 q 438 812 469 783 q 339 840 406 840 q 240 812 272 840 q 208 735 208 783 q 217 663 208 692 q 261 601 226 633 l 510 363 m 340 -356 l 296 -347 l 324 -215 l 290 -203 l 290 -76 l 401 -76 l 401 -194 l 340 -356 z "},"ß":{"ha":726,"x_min":139,"x_max":608,"o":"m 306 83 l 374 83 q 477 113 443 83 q 511 189 511 142 l 511 299 q 480 378 511 339 q 388 417 449 417 l 344 417 l 344 486 l 374 486 q 467 524 436 486 q 497 604 497 563 l 497 735 q 465 812 497 783 q 367 840 433 840 q 268 812 300 840 q 236 735 236 783 l 236 0 l 139 0 l 139 729 q 192 872 139 819 q 363 924 246 924 q 538 872 482 924 q 594 729 594 819 l 594 604 q 496 453 594 486 q 608 299 608 422 l 608 194 q 553 52 608 104 q 374 0 497 0 l 306 0 l 306 83 z "},"t":{"ha":528,"x_min":125,"x_max":472,"o":"m 431 903 l 431 819 l 222 819 l 222 154 q 242 90 222 117 q 300 63 261 63 q 356 90 338 63 q 375 154 375 117 l 375 319 l 472 319 l 472 160 q 424 24 472 69 q 300 -21 376 -21 q 174 24 224 -21 q 125 160 125 69 l 125 903 l 431 903 z "},"ŧ":{"ha":528,"x_min":-7,"x_max":472,"o":"m 431 903 l 431 819 l 222 819 l 222 154 q 242 90 222 117 q 300 63 261 63 q 356 90 338 63 q 375 154 375 117 l 375 319 l 472 319 l 472 160 q 424 24 472 69 q 300 -21 376 -21 q 174 24 224 -21 q 125 160 125 69 l 125 903 l 431 903 m -7 556 l 354 556 l 354 486 l -7 486 l -7 556 z "},"ť":{"ha":528,"x_min":125,"x_max":611,"o":"m 431 903 l 431 819 l 222 819 l 222 154 q 242 90 222 117 q 300 63 261 63 q 356 90 338 63 q 375 154 375 117 l 375 319 l 472 319 l 472 160 q 424 24 472 69 q 300 -21 376 -21 q 174 24 224 -21 q 125 160 125 69 l 125 903 l 431 903 m 611 1028 l 604 953 l 535 792 l 485 796 l 506 1036 l 611 1028 z "},"ţ":{"ha":528,"x_min":125,"x_max":472,"o":"m 431 903 l 431 819 l 222 819 l 222 154 q 242 90 222 117 q 300 63 261 63 q 356 90 338 63 q 375 154 375 117 l 375 319 l 472 319 l 472 160 q 424 24 472 69 q 300 -21 376 -21 q 174 24 224 -21 q 125 160 125 69 l 125 903 l 431 903 m 346 3 l 328 -86 l 335 -86 q 422 -117 393 -86 q 451 -196 451 -147 l 451 -228 q 422 -304 451 -275 q 328 -333 393 -333 q 233 -304 263 -333 q 203 -228 203 -275 l 203 -217 l 269 -217 l 269 -231 q 328 -274 269 -274 q 385 -231 385 -274 l 385 -196 q 372 -162 385 -178 q 335 -146 358 -146 l 251 -146 l 281 3 l 346 3 z "},"ț":{"ha":528,"x_min":125,"x_max":472,"o":"m 431 903 l 431 819 l 222 819 l 222 154 q 242 90 222 117 q 300 63 261 63 q 356 90 338 63 q 375 154 375 117 l 375 319 l 472 319 l 472 160 q 424 24 472 69 q 300 -21 376 -21 q 174 24 224 -21 q 125 160 125 69 l 125 903 l 431 903 m 304 -356 l 260 -347 l 288 -215 l 254 -203 l 254 -76 l 365 -76 l 365 -194 l 304 -356 z "},"u":{"ha":729,"x_min":125,"x_max":590,"o":"m 125 903 l 222 903 l 222 174 q 243 94 222 126 q 328 63 264 63 q 410 85 372 63 q 470 141 447 108 q 493 201 493 174 l 493 903 l 590 903 l 590 0 l 549 0 l 513 89 q 435 10 483 42 q 329 -21 388 -21 q 209 5 254 -21 q 144 75 164 31 q 125 174 125 119 l 125 903 z "},"ú":{"ha":729,"x_min":125,"x_max":590,"o":"m 125 903 l 222 903 l 222 174 q 243 94 222 126 q 328 63 264 63 q 410 85 372 63 q 470 141 447 108 q 493 201 493 174 l 493 903 l 590 903 l 590 0 l 549 0 l 513 89 q 435 10 483 42 q 329 -21 388 -21 q 209 5 254 -21 q 144 75 164 31 q 125 174 125 119 l 125 903 m 435 1049 l 278 969 l 242 1006 l 413 1176 l 488 1101 l 435 1049 z "},"ŭ":{"ha":729,"x_min":125,"x_max":590,"o":"m 125 903 l 222 903 l 222 174 q 243 94 222 126 q 328 63 264 63 q 410 85 372 63 q 470 141 447 108 q 493 201 493 174 l 493 903 l 590 903 l 590 0 l 549 0 l 513 89 q 435 10 483 42 q 329 -21 388 -21 q 209 5 254 -21 q 144 75 164 31 q 125 174 125 119 l 125 903 m 306 1106 q 319 1073 306 1083 q 365 1063 332 1063 q 411 1073 397 1063 q 425 1106 425 1083 l 425 1133 l 501 1133 l 501 1097 q 468 1021 501 1049 q 365 993 435 993 q 261 1021 293 993 q 229 1097 229 1049 l 229 1133 l 306 1133 l 306 1106 z "},"û":{"ha":729,"x_min":125,"x_max":590,"o":"m 125 903 l 222 903 l 222 174 q 243 94 222 126 q 328 63 264 63 q 410 85 372 63 q 470 141 447 108 q 493 201 493 174 l 493 903 l 590 903 l 590 0 l 549 0 l 513 89 q 435 10 483 42 q 329 -21 388 -21 q 209 5 254 -21 q 144 75 164 31 q 125 174 125 119 l 125 903 m 243 969 l 207 1006 l 343 1163 l 388 1163 l 524 1006 l 488 969 l 365 1056 l 243 969 z "},"ȕ":{"ha":729,"x_min":125,"x_max":590,"o":"m 125 903 l 222 903 l 222 174 q 243 94 222 126 q 328 63 264 63 q 410 85 372 63 q 470 141 447 108 q 493 201 493 174 l 493 903 l 590 903 l 590 0 l 549 0 l 513 89 q 435 10 483 42 q 329 -21 388 -21 q 209 5 254 -21 q 144 75 164 31 q 125 174 125 119 l 125 903 m 406 1058 l 364 1111 l 444 1176 l 588 996 l 554 969 l 406 1058 m 183 1058 l 142 1111 l 222 1176 l 365 996 l 332 969 l 183 1058 z "},"ü":{"ha":729,"x_min":125,"x_max":590,"o":"m 125 903 l 222 903 l 222 174 q 243 94 222 126 q 328 63 264 63 q 410 85 372 63 q 470 141 447 108 q 493 201 493 174 l 493 903 l 590 903 l 590 0 l 549 0 l 513 89 q 435 10 483 42 q 329 -21 388 -21 q 209 5 254 -21 q 144 75 164 31 q 125 174 125 119 l 125 903 m 219 993 l 219 1146 l 317 1146 l 317 993 l 219 993 m 414 993 l 414 1146 l 511 1146 l 511 993 l 414 993 z "},"ụ":{"ha":729,"x_min":125,"x_max":590,"o":"m 125 903 l 222 903 l 222 174 q 243 94 222 126 q 328 63 264 63 q 410 85 372 63 q 470 141 447 108 q 493 201 493 174 l 493 903 l 590 903 l 590 0 l 549 0 l 513 89 q 435 10 483 42 q 329 -21 388 -21 q 209 5 254 -21 q 144 75 164 31 q 125 174 125 119 l 125 903 m 310 -229 l 310 -76 l 421 -76 l 421 -229 l 310 -229 z "},"ù":{"ha":729,"x_min":125,"x_max":590,"o":"m 125 903 l 222 903 l 222 174 q 243 94 222 126 q 328 63 264 63 q 410 85 372 63 q 470 141 447 108 q 493 201 493 174 l 493 903 l 590 903 l 590 0 l 549 0 l 513 89 q 435 10 483 42 q 329 -21 388 -21 q 209 5 254 -21 q 144 75 164 31 q 125 174 125 119 l 125 903 m 242 1101 l 317 1176 l 488 1006 l 451 969 l 294 1049 l 242 1101 z "},"ủ":{"ha":729,"x_min":125,"x_max":590,"o":"m 125 903 l 222 903 l 222 174 q 243 94 222 126 q 328 63 264 63 q 410 85 372 63 q 470 141 447 108 q 493 201 493 174 l 493 903 l 590 903 l 590 0 l 549 0 l 513 89 q 435 10 483 42 q 329 -21 388 -21 q 209 5 254 -21 q 144 75 164 31 q 125 174 125 119 l 125 903 m 364 1015 q 422 1108 422 1065 l 422 1125 q 365 1168 422 1168 q 307 1125 307 1168 l 307 1083 l 240 1083 l 240 1122 q 270 1199 240 1171 q 365 1228 300 1228 q 460 1199 431 1228 q 489 1122 489 1171 l 489 1108 q 476 1051 489 1082 q 432 993 464 1021 l 404 969 l 364 1015 z "},"ư":{"ha":729,"x_min":125,"x_max":733,"o":"m 125 903 l 222 903 l 222 174 q 243 94 222 126 q 328 63 264 63 q 410 85 372 63 q 470 141 447 108 q 493 201 493 174 l 493 903 l 590 903 l 590 0 l 549 0 l 513 89 q 435 10 483 42 q 329 -21 388 -21 q 209 5 254 -21 q 144 75 164 31 q 125 174 125 119 l 125 903 m 597 903 q 643 913 629 903 q 657 946 657 924 l 657 1015 l 733 1015 l 733 938 q 700 861 733 889 q 597 833 667 833 l 535 833 l 535 903 l 597 903 z "},"ứ":{"ha":729,"x_min":125,"x_max":733,"o":"m 125 903 l 222 903 l 222 174 q 243 94 222 126 q 328 63 264 63 q 410 85 372 63 q 470 141 447 108 q 493 201 493 174 l 493 903 l 590 903 l 590 0 l 549 0 l 513 89 q 435 10 483 42 q 329 -21 388 -21 q 209 5 254 -21 q 144 75 164 31 q 125 174 125 119 l 125 903 m 597 903 q 643 913 629 903 q 657 946 657 924 l 657 1015 l 733 1015 l 733 938 q 700 861 733 889 q 597 833 667 833 l 535 833 l 535 903 l 597 903 m 435 1049 l 278 969 l 242 1006 l 413 1176 l 488 1101 l 435 1049 z "},"ự":{"ha":729,"x_min":125,"x_max":733,"o":"m 125 903 l 222 903 l 222 174 q 243 94 222 126 q 328 63 264 63 q 410 85 372 63 q 470 141 447 108 q 493 201 493 174 l 493 903 l 590 903 l 590 0 l 549 0 l 513 89 q 435 10 483 42 q 329 -21 388 -21 q 209 5 254 -21 q 144 75 164 31 q 125 174 125 119 l 125 903 m 597 903 q 643 913 629 903 q 657 946 657 924 l 657 1015 l 733 1015 l 733 938 q 700 861 733 889 q 597 833 667 833 l 535 833 l 535 903 l 597 903 m 310 -229 l 310 -76 l 421 -76 l 421 -229 l 310 -229 z "},"ừ":{"ha":729,"x_min":125,"x_max":733,"o":"m 125 903 l 222 903 l 222 174 q 243 94 222 126 q 328 63 264 63 q 410 85 372 63 q 470 141 447 108 q 493 201 493 174 l 493 903 l 590 903 l 590 0 l 549 0 l 513 89 q 435 10 483 42 q 329 -21 388 -21 q 209 5 254 -21 q 144 75 164 31 q 125 174 125 119 l 125 903 m 597 903 q 643 913 629 903 q 657 946 657 924 l 657 1015 l 733 1015 l 733 938 q 700 861 733 889 q 597 833 667 833 l 535 833 l 535 903 l 597 903 m 242 1101 l 317 1176 l 488 1006 l 451 969 l 294 1049 l 242 1101 z "},"ử":{"ha":729,"x_min":125,"x_max":733,"o":"m 125 903 l 222 903 l 222 174 q 243 94 222 126 q 328 63 264 63 q 410 85 372 63 q 470 141 447 108 q 493 201 493 174 l 493 903 l 590 903 l 590 0 l 549 0 l 513 89 q 435 10 483 42 q 329 -21 388 -21 q 209 5 254 -21 q 144 75 164 31 q 125 174 125 119 l 125 903 m 597 903 q 643 913 629 903 q 657 946 657 924 l 657 1015 l 733 1015 l 733 938 q 700 861 733 889 q 597 833 667 833 l 535 833 l 535 903 l 597 903 m 364 1015 q 422 1108 422 1065 l 422 1125 q 365 1168 422 1168 q 307 1125 307 1168 l 307 1083 l 240 1083 l 240 1122 q 270 1199 240 1171 q 365 1228 300 1228 q 460 1199 431 1228 q 489 1122 489 1171 l 489 1108 q 476 1051 489 1082 q 432 993 464 1021 l 404 969 l 364 1015 z "},"ữ":{"ha":729,"x_min":125,"x_max":733,"o":"m 125 903 l 222 903 l 222 174 q 243 94 222 126 q 328 63 264 63 q 410 85 372 63 q 470 141 447 108 q 493 201 493 174 l 493 903 l 590 903 l 590 0 l 549 0 l 513 89 q 435 10 483 42 q 329 -21 388 -21 q 209 5 254 -21 q 144 75 164 31 q 125 174 125 119 l 125 903 m 597 903 q 643 913 629 903 q 657 946 657 924 l 657 1015 l 733 1015 l 733 938 q 700 861 733 889 q 597 833 667 833 l 535 833 l 535 903 l 597 903 m 472 1015 q 425 1054 458 1054 q 385 1041 403 1054 q 346 1015 367 1028 q 293 1001 325 1001 q 231 1029 257 1001 q 201 1104 206 1057 l 258 1124 q 306 1085 272 1085 q 347 1098 329 1085 q 385 1124 364 1111 q 438 1138 407 1138 q 499 1110 474 1138 q 529 1035 525 1083 l 472 1015 z "},"ű":{"ha":729,"x_min":125,"x_max":597,"o":"m 125 903 l 222 903 l 222 174 q 243 94 222 126 q 328 63 264 63 q 410 85 372 63 q 470 141 447 108 q 493 201 493 174 l 493 903 l 590 903 l 590 0 l 549 0 l 513 89 q 435 10 483 42 q 329 -21 388 -21 q 209 5 254 -21 q 144 75 164 31 q 125 174 125 119 l 125 903 m 333 1058 l 185 969 l 151 996 l 294 1176 l 375 1111 l 333 1058 m 556 1058 l 407 969 l 374 996 l 517 1176 l 597 1111 l 556 1058 z "},"ȗ":{"ha":729,"x_min":125,"x_max":590,"o":"m 125 903 l 222 903 l 222 174 q 243 94 222 126 q 328 63 264 63 q 410 85 372 63 q 470 141 447 108 q 493 201 493 174 l 493 903 l 590 903 l 590 0 l 549 0 l 513 89 q 435 10 483 42 q 329 -21 388 -21 q 209 5 254 -21 q 144 75 164 31 q 125 174 125 119 l 125 903 m 425 1021 q 412 1053 425 1043 q 365 1064 399 1064 q 319 1053 333 1064 q 306 1021 306 1043 l 306 993 l 229 993 l 229 1029 q 263 1106 229 1078 q 365 1133 296 1133 q 469 1106 438 1133 q 501 1029 501 1078 l 501 993 l 425 993 l 425 1021 z "},"ū":{"ha":729,"x_min":125,"x_max":590,"o":"m 125 903 l 222 903 l 222 174 q 243 94 222 126 q 328 63 264 63 q 410 85 372 63 q 470 141 447 108 q 493 201 493 174 l 493 903 l 590 903 l 590 0 l 549 0 l 513 89 q 435 10 483 42 q 329 -21 388 -21 q 209 5 254 -21 q 144 75 164 31 q 125 174 125 119 l 125 903 m 215 1111 l 515 1111 l 515 1028 l 215 1028 l 215 1111 z "},"ų":{"ha":729,"x_min":125,"x_max":617,"o":"m 125 903 l 222 903 l 222 174 q 243 94 222 126 q 328 63 264 63 q 410 85 372 63 q 470 141 447 108 q 493 201 493 174 l 493 903 l 590 903 l 590 0 l 549 0 l 513 89 q 435 10 483 42 q 329 -21 388 -21 q 209 5 254 -21 q 144 75 164 31 q 125 174 125 119 l 125 903 m 590 0 l 503 -71 q 435 -172 435 -126 l 435 -231 q 492 -274 435 -274 q 550 -231 550 -274 l 550 -189 l 617 -189 l 617 -228 q 587 -304 617 -275 q 492 -333 557 -333 q 398 -304 428 -333 q 368 -228 368 -275 l 368 -172 q 379 -116 368 -144 q 425 -57 390 -87 l 550 50 l 590 0 z "},"ů":{"ha":729,"x_min":125,"x_max":590,"o":"m 125 903 l 222 903 l 222 174 q 243 94 222 126 q 328 63 264 63 q 410 85 372 63 q 470 141 447 108 q 493 201 493 174 l 493 903 l 590 903 l 590 0 l 549 0 l 513 89 q 435 10 483 42 q 329 -21 388 -21 q 209 5 254 -21 q 144 75 164 31 q 125 174 125 119 l 125 903 m 483 1056 q 456 979 483 1007 q 365 951 428 951 q 274 979 301 951 q 247 1056 247 1007 l 247 1083 q 274 1160 247 1132 q 365 1188 301 1188 q 456 1160 428 1188 q 483 1083 483 1132 l 483 1056 m 317 1056 q 365 1013 317 1013 q 414 1056 414 1013 l 414 1083 q 365 1126 414 1126 q 317 1083 317 1126 l 317 1056 z "},"ũ":{"ha":729,"x_min":125,"x_max":590,"o":"m 125 903 l 222 903 l 222 174 q 243 94 222 126 q 328 63 264 63 q 410 85 372 63 q 470 141 447 108 q 493 201 493 174 l 493 903 l 590 903 l 590 0 l 549 0 l 513 89 q 435 10 483 42 q 329 -21 388 -21 q 209 5 254 -21 q 144 75 164 31 q 125 174 125 119 l 125 903 m 472 1015 q 425 1054 458 1054 q 385 1041 403 1054 q 346 1015 367 1028 q 293 1001 325 1001 q 231 1029 257 1001 q 201 1104 206 1057 l 258 1124 q 306 1085 272 1085 q 347 1098 329 1085 q 385 1124 364 1111 q 438 1138 407 1138 q 499 1110 474 1138 q 529 1035 525 1083 l 472 1015 z "},"v":{"ha":665,"x_min":56,"x_max":610,"o":"m 260 0 l 56 903 l 153 903 l 332 107 l 513 903 l 610 903 l 406 0 l 260 0 z "},"w":{"ha":1056,"x_min":125,"x_max":931,"o":"m 479 903 l 576 903 l 576 174 q 608 92 576 122 q 704 63 640 63 q 801 92 769 63 q 833 174 833 122 l 833 903 l 931 903 l 931 174 q 873 31 931 83 q 704 -21 815 -21 q 597 1 640 -21 q 528 60 554 24 q 458 1 503 22 q 351 -21 414 -21 q 183 31 240 -21 q 125 174 125 83 l 125 903 l 222 903 l 222 174 q 255 92 222 122 q 351 63 288 63 q 448 92 417 63 q 479 174 479 122 l 479 903 z "},"ẃ":{"ha":1056,"x_min":125,"x_max":931,"o":"m 479 903 l 576 903 l 576 174 q 608 92 576 122 q 704 63 640 63 q 801 92 769 63 q 833 174 833 122 l 833 903 l 931 903 l 931 174 q 873 31 931 83 q 704 -21 815 -21 q 597 1 640 -21 q 528 60 554 24 q 458 1 503 22 q 351 -21 414 -21 q 183 31 240 -21 q 125 174 125 83 l 125 903 l 222 903 l 222 174 q 255 92 222 122 q 351 63 288 63 q 448 92 417 63 q 479 174 479 122 l 479 903 m 597 1049 l 440 969 l 404 1006 l 575 1176 l 650 1101 l 597 1049 z "},"ŵ":{"ha":1056,"x_min":125,"x_max":931,"o":"m 479 903 l 576 903 l 576 174 q 608 92 576 122 q 704 63 640 63 q 801 92 769 63 q 833 174 833 122 l 833 903 l 931 903 l 931 174 q 873 31 931 83 q 704 -21 815 -21 q 597 1 640 -21 q 528 60 554 24 q 458 1 503 22 q 351 -21 414 -21 q 183 31 240 -21 q 125 174 125 83 l 125 903 l 222 903 l 222 174 q 255 92 222 122 q 351 63 288 63 q 448 92 417 63 q 479 174 479 122 l 479 903 m 406 969 l 369 1006 l 506 1163 l 550 1163 l 686 1006 l 650 969 l 528 1056 l 406 969 z "},"ẅ":{"ha":1056,"x_min":125,"x_max":931,"o":"m 479 903 l 576 903 l 576 174 q 608 92 576 122 q 704 63 640 63 q 801 92 769 63 q 833 174 833 122 l 833 903 l 931 903 l 931 174 q 873 31 931 83 q 704 -21 815 -21 q 597 1 640 -21 q 528 60 554 24 q 458 1 503 22 q 351 -21 414 -21 q 183 31 240 -21 q 125 174 125 83 l 125 903 l 222 903 l 222 174 q 255 92 222 122 q 351 63 288 63 q 448 92 417 63 q 479 174 479 122 l 479 903 m 382 993 l 382 1146 l 479 1146 l 479 993 l 382 993 m 576 993 l 576 1146 l 674 1146 l 674 993 l 576 993 z "},"ẁ":{"ha":1056,"x_min":125,"x_max":931,"o":"m 479 903 l 576 903 l 576 174 q 608 92 576 122 q 704 63 640 63 q 801 92 769 63 q 833 174 833 122 l 833 903 l 931 903 l 931 174 q 873 31 931 83 q 704 -21 815 -21 q 597 1 640 -21 q 528 60 554 24 q 458 1 503 22 q 351 -21 414 -21 q 183 31 240 -21 q 125 174 125 83 l 125 903 l 222 903 l 222 174 q 255 92 222 122 q 351 63 288 63 q 448 92 417 63 q 479 174 479 122 l 479 903 m 404 1101 l 479 1176 l 650 1006 l 614 969 l 457 1049 l 404 1101 z "},"x":{"ha":628,"x_min":56,"x_max":572,"o":"m 471 0 l 314 351 l 157 0 l 56 0 l 264 465 l 69 903 l 171 903 l 319 567 l 471 903 l 572 903 l 371 453 l 572 0 l 471 0 z "},"y":{"ha":653,"x_min":90,"x_max":563,"o":"m 279 0 l 279 256 q 137 317 183 267 q 90 447 90 367 l 90 903 l 188 903 l 188 447 q 222 366 188 396 q 328 336 257 336 q 431 366 397 336 q 465 447 465 396 l 465 903 l 563 903 l 563 447 q 517 317 563 367 q 376 256 471 267 l 376 0 l 279 0 z "},"ý":{"ha":653,"x_min":90,"x_max":563,"o":"m 279 0 l 279 256 q 137 317 183 267 q 90 447 90 367 l 90 903 l 188 903 l 188 447 q 222 366 188 396 q 328 336 257 336 q 431 366 397 336 q 465 447 465 396 l 465 903 l 563 903 l 563 447 q 517 317 563 367 q 376 256 471 267 l 376 0 l 279 0 m 397 1049 l 240 969 l 204 1006 l 375 1176 l 450 1101 l 397 1049 z "},"ŷ":{"ha":653,"x_min":90,"x_max":563,"o":"m 279 0 l 279 256 q 137 317 183 267 q 90 447 90 367 l 90 903 l 188 903 l 188 447 q 222 366 188 396 q 328 336 257 336 q 431 366 397 336 q 465 447 465 396 l 465 903 l 563 903 l 563 447 q 517 317 563 367 q 376 256 471 267 l 376 0 l 279 0 m 206 969 l 169 1006 l 306 1163 l 350 1163 l 486 1006 l 450 969 l 328 1056 l 206 969 z "},"ÿ":{"ha":653,"x_min":90,"x_max":563,"o":"m 279 0 l 279 256 q 137 317 183 267 q 90 447 90 367 l 90 903 l 188 903 l 188 447 q 222 366 188 396 q 328 336 257 336 q 431 366 397 336 q 465 447 465 396 l 465 903 l 563 903 l 563 447 q 517 317 563 367 q 376 256 471 267 l 376 0 l 279 0 m 182 993 l 182 1146 l 279 1146 l 279 993 l 182 993 m 376 993 l 376 1146 l 474 1146 l 474 993 l 376 993 z "},"ỵ":{"ha":653,"x_min":90,"x_max":563,"o":"m 279 0 l 279 256 q 137 317 183 267 q 90 447 90 367 l 90 903 l 188 903 l 188 447 q 222 366 188 396 q 328 336 257 336 q 431 366 397 336 q 465 447 465 396 l 465 903 l 563 903 l 563 447 q 517 317 563 367 q 376 256 471 267 l 376 0 l 279 0 m 272 -229 l 272 -76 l 383 -76 l 383 -229 l 272 -229 z "},"ỳ":{"ha":653,"x_min":90,"x_max":563,"o":"m 279 0 l 279 256 q 137 317 183 267 q 90 447 90 367 l 90 903 l 188 903 l 188 447 q 222 366 188 396 q 328 336 257 336 q 431 366 397 336 q 465 447 465 396 l 465 903 l 563 903 l 563 447 q 517 317 563 367 q 376 256 471 267 l 376 0 l 279 0 m 204 1101 l 279 1176 l 450 1006 l 414 969 l 257 1049 l 204 1101 z "},"ỷ":{"ha":653,"x_min":90,"x_max":563,"o":"m 279 0 l 279 256 q 137 317 183 267 q 90 447 90 367 l 90 903 l 188 903 l 188 447 q 222 366 188 396 q 328 336 257 336 q 431 366 397 336 q 465 447 465 396 l 465 903 l 563 903 l 563 447 q 517 317 563 367 q 376 256 471 267 l 376 0 l 279 0 m 326 1015 q 385 1108 385 1065 l 385 1125 q 328 1168 385 1168 q 269 1125 269 1168 l 269 1083 l 203 1083 l 203 1122 q 233 1199 203 1171 q 328 1228 263 1228 q 422 1199 393 1228 q 451 1122 451 1171 l 451 1108 q 439 1051 451 1082 q 394 993 426 1021 l 367 969 l 326 1015 z "},"ȳ":{"ha":653,"x_min":90,"x_max":563,"o":"m 279 0 l 279 256 q 137 317 183 267 q 90 447 90 367 l 90 903 l 188 903 l 188 447 q 222 366 188 396 q 328 336 257 336 q 431 366 397 336 q 465 447 465 396 l 465 903 l 563 903 l 563 447 q 517 317 563 367 q 376 256 471 267 l 376 0 l 279 0 m 178 1111 l 478 1111 l 478 1028 l 178 1028 l 178 1111 z "},"ỹ":{"ha":653,"x_min":90,"x_max":563,"o":"m 279 0 l 279 256 q 137 317 183 267 q 90 447 90 367 l 90 903 l 188 903 l 188 447 q 222 366 188 396 q 328 336 257 336 q 431 366 397 336 q 465 447 465 396 l 465 903 l 563 903 l 563 447 q 517 317 563 367 q 376 256 471 267 l 376 0 l 279 0 m 435 1015 q 388 1054 421 1054 q 347 1041 365 1054 q 308 1015 329 1028 q 256 1001 288 1001 q 194 1029 219 1001 q 164 1104 168 1057 l 221 1124 q 268 1085 235 1085 q 309 1098 292 1085 q 348 1124 326 1111 q 400 1138 369 1138 q 462 1110 436 1138 q 492 1035 488 1083 l 435 1015 z "},"z":{"ha":579,"x_min":49,"x_max":524,"o":"m 69 903 l 524 903 l 524 819 l 150 83 l 517 83 l 517 0 l 49 0 l 49 83 l 422 819 l 69 819 l 69 903 z "},"ź":{"ha":579,"x_min":49,"x_max":524,"o":"m 69 903 l 524 903 l 524 819 l 150 83 l 517 83 l 517 0 l 49 0 l 49 83 l 422 819 l 69 819 l 69 903 m 360 1049 l 203 969 l 167 1006 l 338 1176 l 413 1101 l 360 1049 z "},"ž":{"ha":579,"x_min":49,"x_max":524,"o":"m 69 903 l 524 903 l 524 819 l 150 83 l 517 83 l 517 0 l 49 0 l 49 83 l 422 819 l 69 819 l 69 903 m 413 1163 l 449 1126 l 313 969 l 268 969 l 132 1126 l 168 1163 l 290 1076 l 413 1163 z "},"ż":{"ha":579,"x_min":49,"x_max":524,"o":"m 69 903 l 524 903 l 524 819 l 150 83 l 517 83 l 517 0 l 49 0 l 49 83 l 422 819 l 69 819 l 69 903 m 235 993 l 235 1146 l 346 1146 l 346 993 l 235 993 z "},"ﬀ":{"ha":1153,"x_min":139,"x_max":1097,"o":"m 139 0 l 139 903 l 521 903 l 521 819 l 236 819 l 236 500 l 465 500 l 465 417 l 236 417 l 236 0 l 139 0 m 715 0 l 715 903 l 1097 903 l 1097 819 l 813 819 l 813 500 l 1042 500 l 1042 417 l 813 417 l 813 0 l 715 0 z "},"ﬃ":{"ha":1528,"x_min":139,"x_max":1389,"o":"m 139 0 l 139 903 l 521 903 l 521 819 l 236 819 l 236 500 l 465 500 l 465 417 l 236 417 l 236 0 l 139 0 m 715 0 l 715 903 l 1097 903 l 1097 819 l 813 819 l 813 500 l 1042 500 l 1042 417 l 813 417 l 813 0 l 715 0 m 1292 0 l 1292 903 l 1389 903 l 1389 0 l 1292 0 z "},"ﬄ":{"ha":1671,"x_min":139,"x_max":1643,"o":"m 139 0 l 139 903 l 521 903 l 521 819 l 236 819 l 236 500 l 465 500 l 465 417 l 236 417 l 236 0 l 139 0 m 715 0 l 715 903 l 1097 903 l 1097 819 l 813 819 l 813 500 l 1042 500 l 1042 417 l 813 417 l 813 0 l 715 0 m 1292 903 l 1389 903 l 1389 83 l 1643 83 l 1643 0 l 1292 0 l 1292 903 z "},"ﬁ":{"ha":951,"x_min":139,"x_max":813,"o":"m 139 0 l 139 903 l 521 903 l 521 819 l 236 819 l 236 500 l 465 500 l 465 417 l 236 417 l 236 0 l 139 0 m 715 0 l 715 903 l 813 903 l 813 0 l 715 0 z "},"ﬂ":{"ha":1094,"x_min":139,"x_max":1067,"o":"m 139 0 l 139 903 l 521 903 l 521 819 l 236 819 l 236 500 l 465 500 l 465 417 l 236 417 l 236 0 l 139 0 m 715 903 l 813 903 l 813 83 l 1067 83 l 1067 0 l 715 0 l 715 903 z "},"ª":{"ha":478,"x_min":111,"x_max":353,"o":"m 331 553 l 304 597 q 267 557 289 572 q 218 542 244 542 q 135 572 158 542 q 111 646 111 603 l 111 671 q 135 745 111 715 q 218 775 158 775 l 288 775 l 288 864 q 235 907 288 907 q 183 864 183 907 l 183 829 l 118 829 l 118 861 q 147 938 118 910 q 235 965 175 965 q 324 938 294 965 q 353 861 353 910 l 353 553 l 331 553 m 218 601 q 266 620 244 601 q 288 657 288 639 l 288 718 l 218 718 q 185 706 193 718 q 178 674 178 693 l 178 646 q 185 615 178 628 q 218 601 193 601 z "},"º":{"ha":485,"x_min":118,"x_max":367,"o":"m 367 647 q 337 572 367 600 q 244 543 307 543 q 149 572 181 543 q 118 647 118 600 l 118 863 q 149 939 118 911 q 243 967 179 967 q 336 939 306 967 q 367 863 367 911 l 367 647 m 300 863 q 243 908 300 908 q 185 863 185 908 l 185 647 q 244 603 185 603 q 300 647 300 603 l 300 863 z "},"Δ":{"ha":749,"x_min":69,"x_max":679,"o":"m 69 76 l 340 903 l 408 903 l 679 76 l 679 0 l 69 0 l 69 76 m 374 731 l 167 83 l 582 83 l 374 731 z "},"Ω":{"ha":764,"x_min":76,"x_max":686,"o":"m 464 0 l 464 265 q 528 290 507 278 q 549 340 549 301 l 549 729 q 507 811 549 782 q 381 840 465 840 q 256 811 296 840 q 215 729 215 782 l 215 340 q 236 292 215 304 q 299 267 257 279 l 299 0 l 76 0 l 76 83 l 215 83 l 215 200 q 142 252 167 219 q 118 340 118 285 l 118 729 q 182 872 118 819 q 381 924 246 924 q 580 872 514 924 q 646 729 646 819 l 646 340 q 622 251 646 283 q 547 200 597 218 l 547 83 l 686 83 l 686 0 l 464 0 z "},"μ":{"ha":729,"x_min":125,"x_max":597,"o":"m 222 903 l 222 174 q 257 92 222 122 q 363 63 292 63 q 466 92 432 63 q 500 174 500 122 l 500 903 l 597 903 l 597 174 q 540 31 597 83 q 363 -21 482 -21 q 272 -6 310 -21 q 210 32 233 8 l 167 -347 l 125 -347 l 125 903 l 222 903 z "},"π":{"ha":829,"x_min":97,"x_max":732,"o":"m 181 0 l 181 819 l 97 819 l 97 903 l 732 903 l 732 819 l 649 819 l 649 0 l 551 0 l 551 819 l 278 819 l 278 0 l 181 0 z "},"⁄":{"ha":0,"x_min":-154,"x_max":149,"o":"m -154 181 l 108 765 l 149 747 l -114 163 l -154 181 z "},"½":{"ha":639,"x_min":25,"x_max":604,"o":"m 207 914 l 207 518 l 140 518 l 140 842 l 54 793 l 25 842 l 147 914 l 207 914 m 165 181 l 428 765 l 468 747 l 206 163 l 165 181 m 356 54 l 496 226 q 525 266 513 247 q 538 299 538 285 l 538 307 q 483 350 538 350 q 429 307 429 350 l 429 279 l 363 279 l 363 304 q 390 381 363 353 q 481 410 418 410 q 574 381 543 410 q 604 304 604 353 l 604 299 q 588 245 604 272 q 539 178 572 218 l 440 60 l 603 60 l 603 0 l 356 0 l 356 54 z "},"¼":{"ha":639,"x_min":25,"x_max":607,"o":"m 207 914 l 207 518 l 140 518 l 140 842 l 54 793 l 25 842 l 147 914 l 207 914 m 165 181 l 428 765 l 468 747 l 206 163 l 165 181 m 572 396 l 572 133 l 607 133 l 607 74 l 572 74 l 572 0 l 506 0 l 506 74 l 325 74 l 325 128 l 510 396 l 572 396 m 506 133 l 506 281 l 399 133 l 506 133 z "},"¾":{"ha":639,"x_min":36,"x_max":607,"o":"m 278 785 q 267 742 278 761 q 231 711 256 722 q 272 683 260 701 q 285 636 285 664 l 285 610 q 256 533 285 563 q 161 504 226 504 q 66 533 96 504 q 36 610 36 563 l 36 628 l 103 628 l 103 607 q 161 564 103 564 q 218 607 218 564 l 218 636 q 205 669 218 653 q 168 685 192 685 l 103 685 l 103 738 l 161 738 q 199 753 186 738 q 211 785 211 768 l 211 825 q 157 868 211 868 q 103 825 103 868 l 103 797 l 36 797 l 36 822 q 65 899 36 871 q 156 928 93 928 q 249 899 219 928 q 278 822 278 871 l 278 785 m 165 181 l 428 765 l 468 747 l 206 163 l 165 181 m 572 396 l 572 133 l 607 133 l 607 74 l 572 74 l 572 0 l 506 0 l 506 74 l 325 74 l 325 128 l 510 396 l 572 396 m 506 133 l 506 281 l 399 133 l 506 133 z "},"⅛":{"ha":639,"x_min":25,"x_max":604,"o":"m 207 914 l 207 518 l 140 518 l 140 842 l 54 793 l 25 842 l 147 914 l 207 914 m 165 181 l 428 765 l 468 747 l 206 163 l 165 181 m 356 122 q 389 192 356 172 q 356 264 356 211 l 356 304 q 383 381 356 353 q 474 410 411 410 q 567 381 538 410 q 597 304 597 353 l 597 264 q 565 193 597 213 q 604 122 604 172 l 604 92 q 574 15 604 44 q 479 -14 544 -14 q 385 15 414 -14 q 356 92 356 44 l 356 122 m 422 264 q 434 233 422 247 q 472 219 446 219 l 479 219 q 517 233 504 219 q 531 264 531 247 l 531 307 q 476 350 531 350 q 422 307 422 350 l 422 264 m 472 167 q 435 152 447 167 q 422 122 422 138 l 422 89 q 479 46 422 46 q 538 89 538 46 l 538 122 q 524 152 538 138 q 486 167 511 167 l 472 167 z "},"⅜":{"ha":639,"x_min":36,"x_max":604,"o":"m 278 785 q 267 742 278 761 q 231 711 256 722 q 272 683 260 701 q 285 636 285 664 l 285 610 q 256 533 285 563 q 161 504 226 504 q 66 533 96 504 q 36 610 36 563 l 36 628 l 103 628 l 103 607 q 161 564 103 564 q 218 607 218 564 l 218 636 q 205 669 218 653 q 168 685 192 685 l 103 685 l 103 738 l 161 738 q 199 753 186 738 q 211 785 211 768 l 211 825 q 157 868 211 868 q 103 825 103 868 l 103 797 l 36 797 l 36 822 q 65 899 36 871 q 156 928 93 928 q 249 899 219 928 q 278 822 278 871 l 278 785 m 165 181 l 428 765 l 468 747 l 206 163 l 165 181 m 356 122 q 389 192 356 172 q 356 264 356 211 l 356 304 q 383 381 356 353 q 474 410 411 410 q 567 381 538 410 q 597 304 597 353 l 597 264 q 565 193 597 213 q 604 122 604 172 l 604 92 q 574 15 604 44 q 479 -14 544 -14 q 385 15 414 -14 q 356 92 356 44 l 356 122 m 422 264 q 434 233 422 247 q 472 219 446 219 l 479 219 q 517 233 504 219 q 531 264 531 247 l 531 307 q 476 350 531 350 q 422 307 422 350 l 422 264 m 472 167 q 435 152 447 167 q 422 122 422 138 l 422 89 q 479 46 422 46 q 538 89 538 46 l 538 122 q 524 152 538 138 q 486 167 511 167 l 472 167 z "},"⅝":{"ha":639,"x_min":36,"x_max":604,"o":"m 278 914 l 278 854 l 110 854 l 110 765 l 168 765 q 256 735 226 765 q 285 656 285 704 l 285 610 q 256 533 285 563 q 161 504 226 504 q 66 533 96 504 q 36 610 36 563 l 36 635 l 103 635 l 103 607 q 161 564 103 564 q 218 607 218 564 l 218 656 q 205 690 218 674 q 168 706 192 706 l 43 706 l 43 914 l 278 914 m 165 181 l 428 765 l 468 747 l 206 163 l 165 181 m 356 122 q 389 192 356 172 q 356 264 356 211 l 356 304 q 383 381 356 353 q 474 410 411 410 q 567 381 538 410 q 597 304 597 353 l 597 264 q 565 193 597 213 q 604 122 604 172 l 604 92 q 574 15 604 44 q 479 -14 544 -14 q 385 15 414 -14 q 356 92 356 44 l 356 122 m 422 264 q 434 233 422 247 q 472 219 446 219 l 479 219 q 517 233 504 219 q 531 264 531 247 l 531 307 q 476 350 531 350 q 422 307 422 350 l 422 264 m 472 167 q 435 152 447 167 q 422 122 422 138 l 422 89 q 479 46 422 46 q 538 89 538 46 l 538 122 q 524 152 538 138 q 486 167 511 167 l 472 167 z "},"⅞":{"ha":639,"x_min":39,"x_max":604,"o":"m 39 914 l 281 914 l 281 861 l 153 518 l 83 518 l 208 854 l 39 854 l 39 914 m 165 181 l 428 765 l 468 747 l 206 163 l 165 181 m 356 122 q 389 192 356 172 q 356 264 356 211 l 356 304 q 383 381 356 353 q 474 410 411 410 q 567 381 538 410 q 597 304 597 353 l 597 264 q 565 193 597 213 q 604 122 604 172 l 604 92 q 574 15 604 44 q 479 -14 544 -14 q 385 15 414 -14 q 356 92 356 44 l 356 122 m 422 264 q 434 233 422 247 q 472 219 446 219 l 479 219 q 517 233 504 219 q 531 264 531 247 l 531 307 q 476 350 531 350 q 422 307 422 350 l 422 264 m 472 167 q 435 152 447 167 q 422 122 422 138 l 422 89 q 479 46 422 46 q 538 89 538 46 l 538 122 q 524 152 538 138 q 486 167 511 167 l 472 167 z "},"₀":{"ha":383,"x_min":42,"x_max":342,"o":"m 342 -101 q 305 -193 342 -158 q 193 -228 268 -228 q 78 -193 115 -228 q 42 -101 42 -158 l 42 154 q 78 247 42 213 q 192 281 114 281 q 304 247 267 281 q 342 154 342 213 l 342 -101 m 261 154 q 192 208 261 208 q 122 154 122 208 l 122 -101 q 193 -156 122 -156 q 261 -101 261 -156 l 261 154 z "},"₁":{"ha":383,"x_min":31,"x_max":249,"o":"m 249 264 l 249 -211 l 168 -211 l 168 178 l 65 119 l 31 178 l 176 264 l 249 264 z "},"₂":{"ha":383,"x_min":43,"x_max":342,"o":"m 43 -146 l 211 61 q 247 108 232 86 q 261 147 261 129 l 261 157 q 197 208 261 208 q 132 157 132 208 l 132 124 l 51 124 l 51 154 q 85 247 51 213 q 193 281 118 281 q 305 247 268 281 q 342 154 342 213 l 342 147 q 322 83 342 115 q 264 3 303 51 l 144 -139 l 340 -139 l 340 -211 l 43 -211 l 43 -146 z "},"₃":{"ha":383,"x_min":43,"x_max":342,"o":"m 333 108 q 320 58 333 81 q 276 21 307 35 q 326 -15 311 8 q 342 -69 342 -37 l 342 -101 q 306 -193 342 -158 q 193 -228 271 -228 q 79 -193 115 -228 q 43 -101 43 -158 l 43 -79 l 124 -79 l 124 -104 q 193 -156 124 -156 q 261 -104 261 -156 l 261 -69 q 246 -31 261 -50 q 201 -11 231 -11 l 124 -11 l 124 53 l 193 53 q 238 71 224 53 q 253 108 253 89 l 253 157 q 189 208 253 208 q 124 157 124 208 l 124 124 l 43 124 l 43 154 q 77 247 43 213 q 186 281 111 281 q 298 247 263 281 q 333 154 333 213 l 333 108 z "},"₄":{"ha":383,"x_min":7,"x_max":344,"o":"m 303 264 l 303 -51 l 344 -51 l 344 -122 l 303 -122 l 303 -211 l 224 -211 l 224 -122 l 7 -122 l 7 -58 l 228 264 l 303 264 m 224 -51 l 224 125 l 94 -51 l 224 -51 z "},"₅":{"ha":383,"x_min":43,"x_max":342,"o":"m 333 264 l 333 192 l 132 192 l 132 86 l 201 86 q 307 49 272 86 q 342 -46 342 11 l 342 -101 q 306 -193 342 -158 q 193 -228 271 -228 q 79 -193 115 -228 q 43 -101 43 -158 l 43 -71 l 124 -71 l 124 -104 q 193 -156 124 -156 q 261 -104 261 -156 l 261 -46 q 246 -6 261 -25 q 201 14 231 14 l 51 14 l 51 264 l 333 264 z "},"₆":{"ha":383,"x_min":42,"x_max":342,"o":"m 42 154 q 77 247 42 213 q 192 281 113 281 q 305 247 269 281 q 340 154 340 213 l 340 124 l 260 124 l 260 157 q 192 208 260 208 q 122 157 122 208 l 122 64 q 192 81 150 81 q 304 47 267 81 q 342 -46 342 13 l 342 -101 q 305 -193 342 -158 q 193 -228 268 -228 q 78 -193 115 -228 q 42 -100 42 -158 l 42 154 m 122 -101 q 193 -156 122 -156 q 261 -101 261 -156 l 261 -46 q 192 8 261 8 q 122 -39 126 8 l 122 -101 z "},"₇":{"ha":383,"x_min":47,"x_max":336,"o":"m 47 264 l 336 264 l 336 200 l 183 -211 l 100 -211 l 250 192 l 47 192 l 47 264 z "},"₈":{"ha":383,"x_min":43,"x_max":342,"o":"m 43 -64 q 83 19 43 -6 q 43 106 43 43 l 43 154 q 76 247 43 213 q 185 281 110 281 q 297 247 261 281 q 333 154 333 213 l 333 106 q 294 21 333 44 q 342 -64 342 -4 l 342 -101 q 306 -193 342 -158 q 192 -228 269 -228 q 78 -193 113 -228 q 43 -101 43 -158 l 43 -64 m 124 106 q 138 69 124 86 q 183 53 153 53 l 192 53 q 238 69 222 53 q 253 106 253 86 l 253 157 q 189 208 253 208 q 124 157 124 208 l 124 106 m 183 -11 q 138 -28 153 -11 q 124 -64 124 -46 l 124 -104 q 192 -156 124 -156 q 261 -104 261 -156 l 261 -64 q 246 -28 261 -46 q 200 -11 231 -11 l 183 -11 z "},"₉":{"ha":383,"x_min":42,"x_max":342,"o":"m 342 -101 q 306 -193 342 -158 q 193 -228 271 -228 q 79 -193 115 -228 q 43 -101 43 -158 l 43 -86 l 124 -86 l 124 -104 q 193 -156 124 -156 q 261 -104 261 -156 l 261 -25 q 193 -42 236 -42 q 78 -7 115 -42 q 42 86 42 28 l 42 154 q 78 247 42 213 q 192 281 114 281 q 304 247 267 281 q 342 154 342 213 l 342 -101 m 261 154 q 192 208 261 208 q 122 154 122 208 l 122 86 q 193 31 122 31 q 261 86 261 31 l 261 154 z "},"⁰":{"ha":383,"x_min":42,"x_max":342,"o":"m 342 663 q 305 571 342 606 q 193 536 268 536 q 78 571 115 536 q 42 663 42 606 l 42 918 q 78 1010 42 976 q 192 1044 114 1044 q 304 1010 267 1044 q 342 918 342 976 l 342 663 m 261 918 q 192 972 261 972 q 122 918 122 972 l 122 663 q 193 608 122 608 q 261 663 261 608 l 261 918 z "},"¹":{"ha":383,"x_min":31,"x_max":249,"o":"m 249 1028 l 249 553 l 168 553 l 168 942 l 65 883 l 31 942 l 176 1028 l 249 1028 z "},"²":{"ha":383,"x_min":43,"x_max":342,"o":"m 43 618 l 211 825 q 247 872 232 850 q 261 911 261 893 l 261 921 q 197 972 261 972 q 132 921 132 972 l 132 888 l 51 888 l 51 918 q 85 1010 51 976 q 193 1044 118 1044 q 305 1010 268 1044 q 342 918 342 976 l 342 911 q 322 847 342 879 q 264 767 303 815 l 144 625 l 340 625 l 340 553 l 43 553 l 43 618 z "},"³":{"ha":383,"x_min":43,"x_max":342,"o":"m 333 872 q 320 822 333 844 q 276 785 307 799 q 326 749 311 772 q 342 694 342 726 l 342 663 q 306 571 342 606 q 193 536 271 536 q 79 571 115 536 q 43 663 43 606 l 43 685 l 124 685 l 124 660 q 193 608 124 608 q 261 660 261 608 l 261 694 q 246 733 261 714 q 201 753 231 753 l 124 753 l 124 817 l 193 817 q 238 835 224 817 q 253 872 253 853 l 253 921 q 189 972 253 972 q 124 921 124 972 l 124 888 l 43 888 l 43 918 q 77 1010 43 976 q 186 1044 111 1044 q 298 1010 263 1044 q 333 918 333 976 l 333 872 z "},"⁴":{"ha":383,"x_min":7,"x_max":344,"o":"m 303 1028 l 303 713 l 344 713 l 344 642 l 303 642 l 303 553 l 224 553 l 224 642 l 7 642 l 7 706 l 228 1028 l 303 1028 m 224 713 l 224 889 l 94 713 l 224 713 z "},"⁵":{"ha":383,"x_min":43,"x_max":342,"o":"m 333 1028 l 333 956 l 132 956 l 132 850 l 201 850 q 307 813 272 850 q 342 718 342 775 l 342 663 q 306 571 342 606 q 193 536 271 536 q 79 571 115 536 q 43 663 43 606 l 43 693 l 124 693 l 124 660 q 193 608 124 608 q 261 660 261 608 l 261 718 q 246 758 261 739 q 201 778 231 778 l 51 778 l 51 1028 l 333 1028 z "},"⁶":{"ha":383,"x_min":42,"x_max":342,"o":"m 42 918 q 77 1010 42 976 q 192 1044 113 1044 q 305 1010 269 1044 q 340 918 340 976 l 340 888 l 260 888 l 260 921 q 192 972 260 972 q 122 921 122 972 l 122 828 q 192 844 150 844 q 304 810 267 844 q 342 718 342 776 l 342 663 q 305 571 342 606 q 193 536 268 536 q 78 571 115 536 q 42 664 42 606 l 42 918 m 122 663 q 193 608 122 608 q 261 663 261 608 l 261 718 q 192 772 261 772 q 122 725 126 772 l 122 663 z "},"⁷":{"ha":383,"x_min":47,"x_max":336,"o":"m 47 1028 l 336 1028 l 336 964 l 183 553 l 100 553 l 250 956 l 47 956 l 47 1028 z "},"⁸":{"ha":383,"x_min":43,"x_max":342,"o":"m 43 700 q 83 783 43 758 q 43 869 43 807 l 43 918 q 76 1010 43 976 q 185 1044 110 1044 q 297 1010 261 1044 q 333 918 333 976 l 333 869 q 294 785 333 808 q 342 700 342 760 l 342 663 q 306 571 342 606 q 192 536 269 536 q 78 571 113 536 q 43 663 43 606 l 43 700 m 124 869 q 138 833 124 850 q 183 817 153 817 l 192 817 q 238 833 222 817 q 253 869 253 850 l 253 921 q 189 972 253 972 q 124 921 124 972 l 124 869 m 183 753 q 138 735 153 753 q 124 700 124 718 l 124 660 q 192 608 124 608 q 261 660 261 608 l 261 700 q 246 735 261 718 q 200 753 231 753 l 183 753 z "},"⁹":{"ha":383,"x_min":42,"x_max":342,"o":"m 342 663 q 306 571 342 606 q 193 536 271 536 q 79 571 115 536 q 43 663 43 606 l 43 678 l 124 678 l 124 660 q 193 608 124 608 q 261 660 261 608 l 261 739 q 193 722 236 722 q 78 757 115 722 q 42 850 42 792 l 42 918 q 78 1010 42 976 q 192 1044 114 1044 q 304 1010 267 1044 q 342 918 342 976 l 342 663 m 261 918 q 192 972 261 972 q 122 918 122 972 l 122 850 q 193 794 122 794 q 261 850 261 794 l 261 918 z "}," ":{"ha":319,"x_min":0,"x_max":0,"o":""}," ":{"ha":319,"x_min":0,"x_max":0,"o":""},"⟨":{"ha":422,"x_min":42,"x_max":403,"o":"m 403 979 l 146 451 l 403 -76 l 301 -90 l 42 451 l 301 993 l 403 979 z "},"⟩":{"ha":422,"x_min":19,"x_max":381,"o":"m 19 -76 l 276 451 l 19 979 l 121 993 l 381 451 l 121 -90 l 19 -76 z "},".":{"ha":361,"x_min":118,"x_max":243,"o":"m 118 0 l 118 153 l 243 153 l 243 0 l 118 0 z "},",":{"ha":361,"x_min":118,"x_max":243,"o":"m 175 -154 l 131 -146 l 151 0 l 118 13 l 118 153 l 243 153 l 243 21 l 175 -154 z "},":":{"ha":361,"x_min":118,"x_max":243,"o":"m 118 0 l 118 153 l 243 153 l 243 0 l 118 0 m 118 556 l 118 708 l 243 708 l 243 556 l 118 556 z "},";":{"ha":361,"x_min":118,"x_max":243,"o":"m 175 -154 l 131 -146 l 151 0 l 118 13 l 118 153 l 243 153 l 243 21 l 175 -154 m 118 556 l 118 708 l 243 708 l 243 556 l 118 556 z "},"…":{"ha":944,"x_min":118,"x_max":826,"o":"m 118 0 l 118 153 l 243 153 l 243 0 l 118 0 m 410 0 l 410 153 l 535 153 l 535 0 l 410 0 m 701 0 l 701 153 l 826 153 l 826 0 l 701 0 z "},"!":{"ha":403,"x_min":146,"x_max":257,"o":"m 146 903 l 257 903 l 257 563 l 236 292 l 167 292 l 146 563 l 146 903 m 153 0 l 153 153 l 250 153 l 250 0 l 153 0 z "},"¡":{"ha":403,"x_min":146,"x_max":257,"o":"m 257 0 l 146 0 l 146 340 l 167 611 l 236 611 l 257 340 l 257 0 m 250 903 l 250 750 l 153 750 l 153 903 l 250 903 z "},"?":{"ha":608,"x_min":69,"x_max":525,"o":"m 263 375 l 319 457 q 368 528 343 492 q 410 598 393 564 q 428 660 428 632 l 428 735 q 396 812 428 783 q 297 840 364 840 q 199 812 231 840 q 167 735 167 783 l 167 611 l 69 611 l 69 729 q 123 872 69 819 q 293 924 176 924 q 469 872 413 924 q 525 729 525 819 l 525 660 q 492 550 525 610 q 394 399 460 490 l 318 292 l 263 292 l 263 375 m 244 0 l 244 153 l 342 153 l 342 0 l 244 0 z "},"¿":{"ha":608,"x_min":83,"x_max":539,"o":"m 346 528 l 289 446 q 240 376 265 413 q 198 305 215 339 q 181 243 181 271 l 181 168 q 213 92 181 121 q 311 63 244 63 q 410 92 378 63 q 442 168 442 121 l 442 292 l 539 292 l 539 174 q 485 31 539 83 q 315 -21 432 -21 q 140 31 197 -21 q 83 174 83 83 l 83 243 q 116 353 83 293 q 214 504 149 413 l 290 611 l 346 611 l 346 528 m 364 903 l 364 750 l 267 750 l 267 903 l 364 903 z "},"·":{"ha":361,"x_min":118,"x_max":243,"o":"m 118 375 l 118 528 l 243 528 l 243 375 l 118 375 z "},"•":{"ha":419,"x_min":118,"x_max":301,"o":"m 118 340 l 118 564 l 301 564 l 301 340 l 118 340 z "},"*":{"ha":531,"x_min":76,"x_max":454,"o":"m 231 944 l 300 944 l 300 806 l 231 806 l 231 944 m 76 778 l 93 842 l 231 806 l 214 742 l 76 778 m 317 742 l 300 806 l 438 842 l 454 778 l 317 742 m 178 589 l 126 631 l 214 742 l 265 700 l 178 589 m 265 700 l 317 742 l 404 631 l 353 589 l 265 700 z "},"#":{"ha":875,"x_min":56,"x_max":819,"o":"m 153 0 l 194 271 l 56 271 l 56 354 l 207 354 l 238 549 l 99 549 l 99 632 l 250 632 l 292 903 l 375 903 l 333 632 l 597 632 l 639 903 l 722 903 l 681 632 l 819 632 l 819 549 l 668 549 l 638 354 l 776 354 l 776 271 l 625 271 l 583 0 l 500 0 l 542 271 l 278 271 l 236 0 l 153 0 m 290 354 l 554 354 l 585 549 l 321 549 l 290 354 z "},"/":{"ha":528,"x_min":83,"x_max":444,"o":"m 83 -139 l 361 1042 l 444 1042 l 167 -139 l 83 -139 z "},"\\":{"ha":528,"x_min":83,"x_max":444,"o":"m 444 -139 l 361 -139 l 83 1042 l 167 1042 l 444 -139 z "},"-":{"ha":681,"x_min":132,"x_max":549,"o":"m 132 500 l 549 500 l 549 417 l 132 417 l 132 500 z "},"–":{"ha":774,"x_min":26,"x_max":747,"o":"m 747 410 l 26 410 l 26 493 l 747 493 l 747 410 z "},"—":{"ha":888,"x_min":26,"x_max":861,"o":"m 861 410 l 26 410 l 26 493 l 861 493 l 861 410 z "},"‐":{"ha":681,"x_min":132,"x_max":549,"o":"m 132 500 l 549 500 l 549 417 l 132 417 l 132 500 z "},"_":{"ha":583,"x_min":26,"x_max":557,"o":"m 557 -83 l 26 -83 l 26 0 l 557 0 l 557 -83 z "},"(":{"ha":447,"x_min":118,"x_max":357,"o":"m 118 799 q 176 941 118 889 q 357 993 235 993 l 357 910 q 250 881 285 910 q 215 799 215 851 l 215 104 q 250 23 215 53 q 356 -7 285 -7 l 356 -90 q 177 -38 236 -90 q 118 104 118 14 l 118 799 z "},")":{"ha":447,"x_min":90,"x_max":329,"o":"m 329 104 q 272 -38 329 14 q 90 -90 214 -90 l 90 -7 q 198 23 164 -7 q 232 104 232 53 l 232 799 q 197 881 232 851 q 92 910 163 910 l 92 993 q 270 941 211 993 q 329 799 329 889 l 329 104 z "}}}
